<svg xmlns="http://www.w3.org/2000/svg" id="mainLogo" viewBox="0.00 0.00 300.00 300.00 " width="5000" height="5000">
  <defs />
  <g data-mask="1" data-refid="shape" fill="#db4e0e" data-box="15.00 16.50 270.00 266.99 " transform="matrix(0.47703180212014135 0 0 0.4770318021201414 15 16.502632707252094)">
    <svg version="1.1" id="FLDSRC_SHAPE" xmlns="http://www.w3.org/2000/svg" xmlns:xlink="http://www.w3.org/1999/xlink" x="0px" y="0px" viewBox="0 0 565.9 559.7" xml:space="preserve" width="565.9" height="559.7">
      <title />
      <g id="Calque_2">
        <g id="Calque_1-2">
          <path class="st0" d="M104.3,486.2c-2.7-2.3-5.1-4.3-7.7-6.6c-0.7-0.7-1.3-1.4-1.8-2.2c0-1-1.3-2.5-3.3-4.4s-4.8-4-7.5-6.3    c-5-5.3-6.7-6.5-8.2-5.9l6.7,7.4c1,1.3,2,2.5,3,3.7l3.2,3.6l-3.3-3.5c-1.1-1.1-2.1-2.4-3.2-3.6l-6.4-7.5c-2.8-3.2-4.8-4.2-5.3-3.6    c1.4,1.9,2.8,3.8,4.3,5.7l4.6,5.5c1,2.4-0.9,1.2-1.2,1.5l3.3,3.6c1.1,1.2,2.3,2.4,3.5,3.5c2.4,2.4,4.8,4.8,7.4,7.2l8,7.2    c1.3,1.2,2.8,2.4,4.2,3.5l4.3,3.5c1.1,0.9,2.2,1.8,3.4,2.6l3.6,2.5c1.9,0.1,3.6-0.1,5.5-0.1l-1.4-1l3.7-1    C117,496.7,110.5,491.5,104.3,486.2z M93.3,481.5c-1.8-2-3.6-3.9-5.4-5.9c1.1,1.2,2.3,2.4,3.5,3.7l1.8,1.9    c0.6,0.6,1.3,1.2,1.9,1.9s1.5,1.4,2.3,2C95.9,484,94.5,482.8,93.3,481.5L93.3,481.5z" />
          <path class="st0" d="M139,514.2c-1.8-1-3.6-2.3-5.7-3.6c-2.6-1.5-5.3-2.9-8-4.2c1.5,1.8,3.3,3.4,5.3,4.6c1.4,0.9,3,1.9,4.8,3    s4.1,2.2,6.6,3.4C142.6,517.2,140,515.3,139,514.2z" />
          <path class="st0" d="M565.9,299.8c-0.1-1.7-0.1-3.5-0.1-5.8c0-1.1,0-2.4,0-3.8l0.1-2.2v-1.5c0.1-1.1,0.1-2.3,0.1-3.5    c0-3.4-0.1-6.9-0.2-10.5s-0.5-7.2-0.7-10.7c-0.7-2.5-1.3-4.6-2.2-7.1l-1-9.9c-0.1-1.6-0.5-3.3-0.7-4.9l-0.8-4.9    c0.4-0.3,0.6-1.5,0.5-3c-0.1-1.8-0.3-3.6-0.9-5.3c-1-1.5-1.9-5.6-2.9-10s-2.8-8.8-4.8-11.2c-0.4-1.3-0.8-3-1.4-4.7l-2.1-6.3    c-1.1-2.6,0.8,4.8-0.2,2.1c-1-2-2.1-4.9-3.2-7.3s-2.3-4.4-3-4.6c0.2,1.9,0.7,3.8,1.6,5.6c0.9,2.1,2.3,5.2,4.5,10.9    c-0.2,2.1,0.9,6.6,2.3,11.5l1.1,3.8c0.3,1.3,0.6,2.5,0.9,3.8c0.5,2.2,0.9,4.5,1.2,6.7c1.1,3,2.1,6.4,3.1,9.8    c0.7,4.4,1.2,6.8,1.5,9.5c0.9,4.1,1.8,7.9,2.6,11.7c-1-1.5-0.8,6.1-1.6,6.3l0.4,6.7c0.1,2,0.1,4.1,0.2,6.1c-0.6-0.1-1.2-0.1-1.8,0    c-0.6-0.5-0.8-0.7-1.5,5.5c-0.6,1.6-1.2,3.5-1.8,5.1c-0.5,0-0.9,0-1.4-0.1c0.6-1.1,0.8-4.8,0.7-9c0-2.2-0.2-4.4-0.3-6.5    c-0.2-1.7-0.5-3.5-1-5.1c-0.3,0-0.6,0-0.9-0.1c-1.2-1.1-2.3-2.3-3.3-3.6l-1.1-4.7l-1.3-4.9l-1-7.8c-0.3,0-0.6,0-1.5,0    c-0.6-3.1-1-6-1.5-8.6c-0.2-1.3-0.5-2.5-0.8-3.7c-0.3-1.1-0.7-2.1-1.1-3.1c-0.8-3.5-1.5-7-2.4-10.5l-3-10.6    c-0.1-0.5-0.3-1.1-0.4-1.6l-0.5-1.6l-1-3.1l-2-6.3c-0.3-1.1-0.7-2.1-1.1-3.1l-1.2-3.1l-2.2-6.2c-1.3-3.6-2.8-7.1-4.3-10.7    c-0.7-1.8-1.5-3.5-2.3-5.3l-2.4-5.3c-1.4-3.1-3-6.1-4.5-9.1l-2.3-4.5c-0.8-1.5-1.7-2.9-2.5-4.4c-1-2.8-2.3-5.5-3.7-8.1    c-1.8-3.1-3.9-6.1-6.1-8.9l-3.8-2.7l-2.8-3.7c2.6,1.6-0.3-2.4-0.8-3.7c-0.5-0.7-1.1-1.3-1.6-2l-1.7-1.9c-1.1-1.2-2.3-2.4-3.4-3.6    c-0.7-1.8-1.1-3.4-1.7-5c-1.6-1.9-3.3-3.6-4.9-5.4l-2.4-2.7c-0.8-0.9-1.6-1.8-2.5-2.7c-1.3-1.5-2.8-2.8-4.5-3.9l-0.5-0.6l-1.1-1.4    l-1.4-1.5l-6.2-5.8l-1.6-1.4l-1.6-1.4l-3.1-2.7c-1.6-1.6-3.1-3.2-4.8-4.7l-1.9-1.7c1.1,0.3,2.2,0.7,3.5,1.2l1.1-0.3l-2.5-2.1    c-0.8-0.7-1.6-1.3-2.4-1.9c-4-2.9-5.6-3.3-7-3.6l-0.8-0.1c-2.1-1.7-4.4-3.3-6.5-4.9c-1-0.7-1.9-1.5-2.9-2.1l-3-2l-5.9-4l-1.5-1    l-1.4-0.9l-0.7-0.4l-1.9-3c-3.9-2.1-7.6-4-11.6-6c-4.2-2-8.8-4.3-13.1-6.3l-3-1.2l-1.3-0.6c-1.7-0.7-3.3-1.4-5-2l-5.8-2.3    c0.6-1.7-7.5-4-10.2-4.3c-1.2-0.4-2.5-0.9-3.7-1.3l-0.4-0.1l-0.4-0.2l-0.5-0.1l-2.6-0.8l-7.6-2.2c-2.5-0.7-5.1-1.2-7.7-1.9    l-3.8-0.9c-1.3-0.3-2.6-0.6-3.9-0.8l-7.7-1.7c-0.5-0.6-1.2-0.9-2-1.1c-0.6-0.2-1.2-0.4-1.8-0.5c-0.6-0.1-1.4-0.2-2.1-0.3    c-1.6-0.2-3.3-0.4-4.8-0.4l1.1-1.1c3.4,0.5,6.8,1,9.8,1.6l8.7,2l4.3,1l4.4,1.2c0.4-0.3,0.8-0.6,1.2-0.9c1.8,0.3,3.5,0.7,5,1    l2.8,1.2c0.9,0.4,1.8,0.9,2.7,1.3l5.4,2.7c1.3,0.1,2.6,0.1,3.9,0.3c1.1,0.3,2.1,0.5,3,0.8l2.5,0.7c1.5,0.4,2.7,0.7,3.6,0.8    c1.9,0.3,2.7,0.1,2.9-0.6c2.8,0.8,5.5,1.8,8.3,2.7c4.1,1.8,8.6,4,14.7,6.6c1.4,1.3,3,2.4,4.8,3.2c1.3,0.7,2.8,1.5,4.5,2.3    c0.9,0.4,1.7,0.8,2.6,1.3l2.9,1.4c-1.2-1.6-2.8-2.9-4.6-3.8c-1-0.5-2.1-1.1-3.4-1.7l2,0.8c-1-1-2.1-1.8-3.3-2.5    c-1.5-0.8-3.2-1.7-5.2-2.6s-4.2-1.9-6.5-2.8s-4.9-1.8-7.5-2.7l-2.2-0.9c-1.6-0.9-3.1-1.7-4.6-2.5c-1.8-0.9-3.6-1.8-5.5-2.5    c-2.4-1-5-1.6-7.6-1.9l-0.3-0.1l-2.9-1c-1.1-0.2-2.3-0.4-3.3-0.7l-1.3,0.9c-2.3-0.7-4.3-1.4-6.6-2c-1.2-0.7-2.4-1.2-3.7-1.6    c0.9,0.2,1.9,0.4,2.8,0.6c2.1,0.4,4.5,0.9,7,1.2l-5-2.1l-2.5-1c-0.9-0.3-1.7-0.6-2.6-0.9c0.2-0.4,0.3-0.8,0.5-1.2    c0-0.1,0.1-0.2,0.1-0.2c-1.6-0.5-3.2-1-4.8-1.5l-4-0.9c-1.3-0.3-2.6-0.6-4-0.9c-3.8-0.6-2.5,0.8-5.3,0.9c-1.5-0.5-2.9-1.2-4.3-2    c-0.8-0.4-1.7-0.8-2.6-1c-1.3-0.3-2.7-0.5-4-0.6c-3.1-0.3-6.5-0.7-9.9-1L300.3,0c0,0.1-0.1,0.3-0.1,0.3c-1.2,0.1-2.4,0.2-3.5,0.3    l-3.5,0.5l-7-0.2l-3.5-0.1c-1.2,0-2.4,0-3.5,0.1c-2.4,0-4.7,0.1-6.9,0.1H271c0,0,0-0.1,0.1-0.1c-1.8-0.6-3.7-0.9-5.7-0.8    c-1.9,0.1-3.8,0.4-5.6,1l-5.1,0.3c-1.7,0.1-3.3,0.3-5.1,0.5l-2.2,0.7c-2.6,0.3-5.1,0.6-7.6,1c-1.5-0.3-1.5-0.7-3.1-0.8L228.2,4    L226,4.4c-0.7,0.1-1.4,0.3-2.1,0.4l-4.1,0.9c-4.5,1-9.7,2-9.6,1.1c-2.1,0.6-4.5,1.1-7.4,1.9c-1.5,0.4-3.1,0.8-5,1.4    s-3.8,1.4-6,2.3l-4.3,2c-1.4,0.7-2.9,1.3-4.3,2c-1.3,0.4-6.2,1.1-9.9,4.3c0.3,0.1,0.7,0.2,1,0.3c-8.7,3.6-17.1,7.6-25.4,12.1    c-2.6,0.8-4.1,0.6-7.5,2.9c-2,1.6-5.5,3.6-6.6,5.4l-6.4,3.5l-6.1,3.7l-4.5,2.9c-1.5,1-2.9,2.1-4.4,3.1l-4.3,3.2    c-1.4,1.1-2.9,2.1-4.3,3.3l-7.8,6c-1,1-1.9,1.9-2.8,2.9l-2.9,3.2c-1.7,1.7-3.5,3.3-5.3,5l-5.2,5.4c-1.3,1.3-3,2.7-4.3,4.2    c-1.2,1.3-2.4,2.7-3.3,4.2c-2.4,2.5-4.8,4.8-6.8,7.1c1.8-3.1-1.3-1,0.3-4.3c-1.7,1.2-4.3,5-6.3,7.4c-1.2,2.2-2.3,4.1-3.3,6.4    l-0.8,1.1c0-1.5-1.9,0.5-3.1,1.7c-1,1.4-2,2.8-3.1,4.5c-1.4,2.3-2.6,4.6-3.7,7c-2.1,2.7-3.3,3.9-4.4,5.2c-2,3.7-5.9,9-6.2,11.8    l-4.4,9.1l-1.4,2.5c-0.5,0.8-0.9,1.7-1.3,2.6l-2.5,5.1c-1,1.5-1.9,3.1-2.6,4.8c-0.8,2-1.6,4.1-2.3,5.9l-0.9,4.3    c-0.3,1.4-0.6,2.8-0.8,4.3L16,189.1c-0.6,1.7-1,3.4-1.5,5.1l-1.4,5.1l-0.1,0.5c-1.1,0.5-1.4-1-3.2,0.8L7,212.7    c-0.2,0.7-0.3,1.4-0.5,2l-0.4,1.9L5.5,220c-0.4,2.2-0.9,4.2-1.6,6.5l-0.2,1.8l-0.2,1.9L3.3,234c-0.6,3.1-1.4,6.3-1.9,9    c-0.4,2-0.6,4-0.6,6.1c-0.7,3.5-0.9,7.2-0.7,10.8c0.1,1.7,0.1,3.5,0.1,5.8c0,1.1,0,2.4,0,3.8l-0.1,2.2c0,0.5,0,1,0,1.5    C0,274.3,0,275.5,0,276.7c0,3.4,0.1,6.9,0.2,10.5s0.5,7.2,0.7,10.7c0.7,2.5,1.3,4.6,2.2,7.1l1,9.9c0.1,1.6,0.4,3.3,0.7,4.9    l0.8,4.9c-0.4,0.3-0.6,1.5-0.5,3c0.1,1.8,0.3,3.6,0.9,5.3c1,1.5,1.9,5.6,2.9,10s2.8,8.8,4.8,11.2c0.4,1.3,0.8,3,1.4,4.7l2.1,6.2    c1.1,2.6-0.8-4.8,0.2-2.1c1,2,2.1,4.9,3.2,7.3s2.3,4.4,3,4.6c-0.2-1.9-0.7-3.8-1.6-5.6c-0.9-2.1-2.3-5.2-4.5-10.9    c0.2-2.1-0.9-6.6-2.3-11.5l-1.1-3.8c-0.3-1.3-0.6-2.5-0.9-3.8c-0.5-2.2-0.9-4.5-1.1-6.7c-1.1-3-2.1-6.4-3.1-9.8    c-0.7-4.4-1.2-6.8-1.5-9.5c-0.9-4.1-1.8-7.9-2.6-11.7c1,1.5,0.8-6.1,1.6-6.3L6,288.6c-0.1-2-0.1-4.1-0.2-6.1    c0.6,0.1,1.2,0.1,1.8,0c0.6,0.5,0.9,0.7,1.5-5.5c0.6-1.6,1.2-3.5,1.8-5.1c0.5,0,0.9,0,1.4,0.1c-0.6,1.1-0.8,4.8-0.7,9    c0,2.2,0.2,4.4,0.4,6.5c0.2,1.7,0.5,3.5,1,5.1c0.3,0,0.6,0,0.9,0.1c1.2,1.1,2.3,2.3,3.3,3.6l1.1,4.7l1.4,4.9l1,7.8    c0.3,0,0.6,0,1.5,0c0.6,3,1,6,1.5,8.6c0.2,1.3,0.5,2.5,0.8,3.7c0.3,1.1,0.7,2.1,1.1,3.1c0.8,3.5,1.5,7,2.4,10.5l3,10.6    c0.1,0.5,0.3,1.1,0.4,1.6l0.5,1.6l1,3.1l2,6.3c0.3,1.1,0.7,2.1,1.1,3.1l1.2,3.1l2.2,6.2c1.3,3.6,2.8,7.1,4.3,10.7    c0.7,1.8,1.5,3.5,2.3,5.3l2.4,5.3c1.4,3.1,3,6.1,4.5,9.1l2.3,4.5c0.8,1.5,1.7,2.9,2.5,4.4c1,2.8,2.3,5.5,3.7,8.1    c1.8,3.1,3.9,6.1,6.1,8.9l3.8,2.7l2.7,3.7c-2.6-1.6,0.3,2.4,0.8,3.7c0.6,0.6,1.1,1.3,1.6,2l1.7,1.9c1.1,1.2,2.3,2.4,3.4,3.6    c0.7,1.8,1.1,3.4,1.7,5c1.6,1.9,3.3,3.6,4.9,5.4l2.4,2.6c0.8,0.9,1.6,1.8,2.5,2.7c1.3,1.5,2.8,2.8,4.5,3.9l0.5,0.6l1.2,1.5    l1.4,1.5l6.2,5.8l1.6,1.5l1.6,1.4l3.2,2.7c1.6,1.6,3.1,3.2,4.8,4.7l1.9,1.7c-1.1-0.3-2.2-0.7-3.5-1.2l-1.1,0.3l2.6,2.1    c0.8,0.7,1.6,1.3,2.4,1.9c4,2.9,5.6,3.3,7,3.6l0.8,0.1c2.2,1.7,4.3,3.3,6.5,4.9c1,0.7,1.9,1.5,2.9,2.1l3,2l5.9,4l1.4,1l1.5,0.9    l0.7,0.4l1.9,3c3.9,2.1,7.6,4,11.6,6c4.2,2,8.8,4.3,13.1,6.3l3,1.2l1.3,0.6c1.7,0.7,3.3,1.3,5,2l5.8,2.3c-0.6,1.7,7.4,4,10.2,4.3    c1.2,0.4,2.5,0.9,3.7,1.3l0.4,0.1l0.4,0.2l0.5,0.1l2.6,0.8l7.6,2.2c2.5,0.7,5.1,1.2,7.7,1.9l3.8,0.9c1.3,0.3,2.6,0.6,3.9,0.8    l7.7,1.7c0.5,0.6,1.2,0.9,2,1.1c0.6,0.2,1.2,0.4,1.8,0.5c0.6,0.1,1.4,0.2,2.1,0.3c1.6,0.2,3.3,0.4,4.8,0.4l-1.1,1.1    c-3.4-0.5-6.8-1-9.8-1.5l-8.7-2l-4.3-1l-4.4-1.2c-0.4,0.3-0.8,0.6-1.2,0.9c-1.8-0.3-3.5-0.7-5-1l-2.8-1.2    c-0.9-0.4-1.8-0.9-2.7-1.3l-5.4-2.7c-1.3-0.1-2.6-0.2-3.9-0.3c-1.1-0.3-2.1-0.5-3-0.8l-2.5-0.7c-1.5-0.4-2.7-0.7-3.6-0.8    c-1.9-0.3-2.7-0.1-2.9,0.7c-2.8-0.8-5.5-1.8-8.3-2.7c-4.1-1.8-8.6-4-14.7-6.6c-1.5-1.3-3.1-2.4-4.8-3.2c-1.3-0.7-2.8-1.5-4.6-2.3    c-0.9-0.4-1.7-0.8-2.6-1.3l-2.9-1.4c1.2,1.6,2.8,2.9,4.6,3.8c1,0.5,2.1,1.1,3.4,1.7l-2-0.8c1,1,2.1,1.8,3.3,2.5    c1.4,0.8,3.2,1.7,5.2,2.6s4.2,1.8,6.5,2.8s4.9,1.8,7.5,2.7l2.2,0.9c1.6,0.9,3.1,1.7,4.6,2.5c1.8,0.9,3.6,1.8,5.5,2.5    c2.4,1,5,1.6,7.6,2l0.3,0.1l2.9,1c1.1,0.2,2.3,0.4,3.3,0.7l1.3-0.9c2.3,0.7,4.3,1.4,6.6,2c1.2,0.7,2.4,1.2,3.7,1.6    c-0.9-0.2-1.9-0.3-2.8-0.6c-2.1-0.4-4.5-0.9-7-1.2l5.1,2.1l2.6,1c0.9,0.3,1.7,0.6,2.6,0.9c-0.2,0.4-0.3,0.8-0.5,1.2    c0,0.1-0.1,0.2-0.1,0.2c1.6,0.5,3.2,1,4.8,1.5l4,0.9c1.3,0.3,2.6,0.6,4,0.9c3.8,0.6,2.5-0.8,5.3-0.9c1.5,0.5,2.9,1.2,4.3,2    c0.8,0.4,1.7,0.8,2.6,1c1.3,0.3,2.7,0.5,4,0.6c3.1,0.3,6.5,0.7,9.9,1l9.6,0.5c0-0.1,0.1-0.3,0.1-0.3c1.2-0.1,2.4-0.2,3.5-0.3    l3.5-0.5l7,0.2l3.5,0.1c1.2,0,2.4,0,3.5-0.1c2.4,0,4.7-0.1,6.9-0.1h1.2c0,0,0,0.1-0.1,0.1c1.8,0.6,3.8,0.9,5.7,0.8    c1.9-0.1,3.8-0.4,5.6-1l5.1-0.3c1.7-0.1,3.3-0.3,5.1-0.5l2.2-0.7c2.6-0.3,5.1-0.6,7.6-1c1.5,0.3,1.5,0.7,3.1,0.8l8.6-1.5l2.1-0.4    c0.7-0.1,1.4-0.3,2.1-0.5l4.1-0.9c4.5-1,9.7-2,9.5-1.1c2.1-0.6,4.5-1.1,7.4-1.9c1.5-0.4,3.1-0.8,5-1.4s3.8-1.4,6-2.3l4.3-2    c1.5-0.7,2.9-1.3,4.3-2c1.3-0.4,6.2-1.1,9.9-4.3c-0.3-0.1-0.7-0.2-1-0.3c8.7-3.6,17.2-7.6,25.4-12.1c2.6-0.8,4.1-0.6,7.5-2.9    c2-1.6,5.5-3.6,6.6-5.4l6.5-3.6l6.1-3.7l4.5-2.9c1.5-1,2.9-2.1,4.4-3.1l4.3-3.2c1.4-1.1,2.9-2.1,4.3-3.3l7.9-6    c1-1,1.9-1.9,2.8-2.9l2.9-3.2c1.7-1.7,3.5-3.3,5.3-5l5.2-5.4c1.4-1.3,3-2.7,4.3-4.2c1.2-1.3,2.4-2.7,3.3-4.2    c2.4-2.5,4.8-4.8,6.8-7.1c-1.8,3.1,1.3,1-0.3,4.3c1.7-1.2,4.3-5,6.3-7.4c1.2-2.2,2.3-4.1,3.4-6.5l0.8-1.1c0,1.5,1.9-0.5,3.1-1.7    c1-1.4,2-2.8,3.1-4.5c1.4-2.3,2.6-4.6,3.7-7c2.1-2.7,3.3-3.9,4.4-5.2c2-3.7,5.9-9,6.2-11.8l4.4-9.1l1.4-2.5    c0.5-0.8,0.8-1.7,1.3-2.5l2.5-5.1c1-1.5,1.9-3.1,2.6-4.8c0.8-2,1.6-4.1,2.3-5.9l0.9-4.3c0.3-1.4,0.6-2.8,0.8-4.3l3.4-10.4    c0.6-1.7,1-3.5,1.5-5.1l1.4-5.1l0.1-0.5c1.1-0.5,1.4,1,3.2-0.8L559,347c0.2-0.7,0.3-1.4,0.5-2l0.4-1.9l0.7-3.4    c0.4-2.2,0.9-4.2,1.6-6.5l0.2-1.8l0.2-1.9l0.3-3.7c0.6-3.1,1.3-6.3,1.9-9c0.4-2,0.6-4,0.6-6.1    C565.8,307.1,566.1,303.4,565.9,299.8z M305.7,3.5c1.5,0,3.3-0.1,5.2,0s4,0.1,6.5,0.1l5.7,0.9c1.9,0.3,3.7,0.8,5.6,1.1l5.5,1.2    l2.8,0.6l2.8,0.7c0.5,0.6,1.2,1,2,1.2h-0.1c-4.3-0.8-9.1-1.4-13.7-2.1c-2.9-0.6-5.9-0.9-8.9-1.4s-6-1-8.9-1.2    c-3.6-0.2-7.1-0.5-10.3-0.7c-0.8-0.1-1.7-0.1-2.5-0.1l0.5-0.3C300.1,3.5,302.6,3.5,305.7,3.5z M43.7,132.3l-0.3,0.4l-0.3,0.3    c0.3-0.5,0.6-0.9,0.9-1.4C43.9,131.8,43.8,132,43.7,132.3z M64.2,412.5l-2.3-2.6c-0.8-0.9-1.6-1.8-2.3-2.7l-1.5-2.8l-3-5.8    l-0.8-1.5l-0.7-1.5l-1.5-3.1l-3-6.3c-0.9-2.1-1.8-4.3-2.7-6.5s-1.8-4.3-2.7-6.5l-2.4-6.5c-1.7-4.3-2.9-8.6-4.2-12.7    c-0.4-0.4-0.8-0.9-1.1-1.4c-0.3-0.8-0.6-1.7-0.8-2.6l-0.8-3.1c-0.5-2.3-1.2-5.1-2-9.2l2.1-0.2c-0.2-2.5-0.5-5-0.8-7.5    c-0.8-2.5-1.3-4.6-2.2-5.8c-0.3-3.4-0.8-7.2-1.4-11.2s-0.9-8.2-1.5-12.2c-0.2-1-0.2-2-0.3-3l-0.3-2.9c-0.2-1.9-0.4-3.8-0.7-5.5    l-0.4-2.5l-0.2-2.3c-0.1-0.6-0.1-1.1-0.2-1.6c0.2,0.5,0.5,0.9,0.9,1.2c0-2.6,0-5.2,0.1-7.8c0.1-1.1,0.3-2.2,0.7-3.3    c0.3-0.7,0.6-1,0.8-1.5c0.5-1,0.9-2.4,1.1-7.5c-0.3-0.6-0.5-1.2-0.5-1.9c-0.1-1.1-0.1-2.1-0.1-3.2c0-2.2,0-4.3-0.7-4.4    c0.3-2.8,0.6-5.5,1-8l1.5-7.2c0.8-4.7,2-9,2.7-13.6c0.8-3.5,1.4-6.1,1.9-8.5s0.8-4.5,1.6-7.2c0-2.3,3.6-8.9,2-8.1    C43.1,189,48.2,177.6,54,166c-1.7-0.6-0.1-3.9,2.4-7.5s5.3-7.9,6-10.7c1.2-1,2.3-2.1,3.1-3.5c0.5-0.7,1-1.5,1.5-2.4l0.8-1.3    l0.8-1.3c1.1-1.8,2.2-3.6,3.5-5.3c0.6-0.9,1.3-1.7,1.9-2.5c0.6-0.8,1.3-1.5,2.1-2.1c2.3-3.2,4.7-6.5,7.3-9.8s5.3-6.4,8.1-9.6    s5.7-6.1,8.6-9s5.9-5.5,8.7-8c1.7-1.6,3.3-3.1,5-4.7l2.6-2.3c0.8-0.8,1.7-1.5,2.6-2.2c1.8-1.4,3.6-2.8,5.5-4.3l2.8-2.1    c0.9-0.7,1.9-1.3,2.9-2c3.9-2.6,7.9-5.4,12.2-7.9l6.5-3.9l6.9-3.8c0.1-0.9,3.4-2.4,4.2-3.6l11.1-5.4l11.5-5l10.2-3.9    c1.8-0.7,3.7-1.2,5.6-1.9l5.8-1.8c7.8-2.3,15.8-4.2,22.7-5.5c1.2-0.5,2.5-0.9,3.7-1.1c1.5-0.4,2.9-0.8,3-1.7    c2.2,0.1,4.5,0,6.7-0.2c1.4-0.2,2.7-0.4,4.1-0.7c1.5-0.3,3-0.6,4.5-1.1c2.2,0,4.3-0.1,6.4-0.4c2.2-0.2,4-0.2,3.8,0.4    c2-0.2,6.2,0,6.2-0.6c1.4-0.3,2.9-0.5,4.4-0.5c1.7-0.1,3.5,0.1,5.1,0c2.8-0.3,5.2-0.6,8.3-0.9c-1,0.7,0.7,0.9,2.6,1    c1.5,0.2,3,0.1,4.5-0.1c1.8-0.2,3.6-0.2,5.4-0.1h1.6c0.5,0,1.1,0,1.6,0c1,0,2-0.2,2.9-0.5l1.6,0.2c1.9,0.7,4,1.3,6,1.6    c1.5,0.4,3.1,0.3,4.5-0.1c1.7,0.3,3,0.8,4.7,1.1c2.7,0.3,5.3,0.4,8,0.2c1.7,0.2,3.3,0.5,4.7,0.6c-2.5,0.5,2.5,1.2,1.7,1.9    c3,0.3,6,0.8,8.9,1.6c3.2,0.8,6.7,1.6,10.1,2.8l5.1,1.6c1.7,0.5,3.3,1,4.9,1.6c2.8,1,5.7,1.9,8.7,2.6c1.9,0.7,3.8,1.5,5.6,2.3    l5.5,2.4c1.2,0.4,2.4,1,3.6,1.6c1.1,0.9,2.4,1.7,3.8,2.1l1.2,0.3l0.1,0c1.5,0.7,3,1.4,4.5,2c1,0.4,1.9,0.8,2.8,1.1    c0.8,0.6,1.5,1.3,2.2,2c1,1.3,2.2,2.5,3.6,3.5c1.1,0.8,2.2,1.4,3.4,2c1.4,0.7,3.1,1.4,5.2,2.4c4,2.1,7.8,4.6,11.3,7.5    c3.1,2.6,5.9,5.1,8.3,7.4c1.3,1.4,2.6,2.7,4.1,3.8c1.3,0.9,2.4,1.6,3.5,2.3c2.4,1.3,4.7,2.8,6.8,4.5c0,0.4,0.7,1.2,1.3,1.9    s1.2,1.5,0.9,1.7c1.6,1.4,4.2,4.4,4.4,3.8c1.1,0.7,2.1,1.5,3,2.4c0.7,0.8,1.4,1.6,2,2.4c1.2,1.8,2.6,3.5,4.1,5    c1.1,0.8,1.9,1.8,2.4,3c0.2,0.6-0.1,0.9-0.5,0.8l6.5,7.5c-0.7,0.2,3.5,5.1,7.1,9.7c1.5,2.9,5.8,7.9,5,8.6c1.4,1.9,2.5,3.8,4,6.1    l3,4.8c1.2,2.1,2.3,4.2,3.4,6.3l1.7,3.2l0.9,1.6l0.8,1.6c2.2,5.4,4.1,9.1,5.7,13l2.6,6c0.9,2.2,1.7,4.6,2.6,7.4    c-0.5,0.4-0.4,1.3-0.3,2.6c0.1,0.6,0.2,1.3,0.4,2.1s0.2,1.6,0.3,2.5l-1.5,0.3c0.2,3.1,1.4,6.4,2.7,9.8c1.3,3.4,2.2,6.9,2.8,10.5    c1.7,3.7,2.8,14,4.3,13.7c0.5-1.8-0.5-5.2-1.2-8.4l-0.3-5c-0.1-1.7-0.4-3.3-0.6-5c0.6-0.1,1.2-0.1,1.8-0.2    c0.6,1.1,1.2,1.9,1.7,2.8c1,2.9,1.7,5.6,2.6,8.5c0.3,1.3,0.7,2.9,1,4.5c0.2,1.4,0.7,2.8,1.3,4.1l1,5.7c0.3,2.1,0.4,4.3,0.7,6.4    l0.6,6.4c0.2,1,0.2,2.1,0.3,3.2l0.3,3.3l0.6,6.5c-0.5,2.4-0.1,6.9,0.5,13.1c0.2-4.2,0.3-8.4,0.4-13l-0.4-8l-0.2-4l-0.4-4l-0.5-4.2    l-0.1-2.8l-0.1-1.4l-0.1-1.4c-0.2-1.9-0.4-3.7-0.7-5.6s-0.5-3.8-0.9-5.8s-0.9-4-1.4-6l-0.5-5c-0.2-1.6-0.5-3.3-0.7-4.9    c0.7-0.1,1.2-0.1,1.5-0.2l-1.2-5.1l-0.6-2.5l-0.7-2.5c-1-3.3-2-6.6-3-10c-1-2.7-2-5.2-2.8-7.6l-1.3-3.4l-1.3-3.3l-2.4-6.6    c-0.4-1.1-0.9-2.2-1.3-3.3l-1.5-3.3c-0.8-1.5-1.6-3-2.3-4.4l-0.5-1.1l-0.6-1.1l-1.1-2.2c-0.7-1.5-1.5-2.9-2.1-4.4l-0.7-1.5    c1.2,0.9,2.2,1.6,3.3,2.4l2.3,2.6c0.8,0.9,1.6,1.8,2.3,2.7l1.5,2.8l3,5.8l0.8,1.5l0.7,1.5l1.5,3.1l3,6.3c0.9,2.1,1.8,4.3,2.7,6.5    s1.8,4.3,2.7,6.5l2.4,6.5c1.7,4.3,2.9,8.6,4.2,12.7c0.4,0.4,0.8,0.9,1.1,1.4c0.3,0.8,0.6,1.7,0.8,2.6l0.8,3.1    c0.5,2.3,1.2,5.1,2,9.2l-2.1,0.2c0.2,2.5,0.5,5,0.8,7.5c0.8,2.5,1.3,4.6,2.2,5.8c0.3,3.4,0.8,7.2,1.4,11.2s0.9,8.2,1.5,12.2    c0.2,1,0.2,2,0.3,3l0.3,2.9c0.2,1.9,0.4,3.8,0.7,5.5l0.4,2.5l0.3,2.4c0.1,0.6,0.1,1.1,0.2,1.6c-0.2-0.5-0.5-0.9-0.9-1.2    c0,2.6,0,5.2-0.1,7.8c-0.1,1.1-0.3,2.2-0.7,3.3c-0.3,0.7-0.6,1-0.8,1.5c-0.5,1-0.9,2.4-1.2,7.5c0.3,0.6,0.4,1.3,0.4,1.9    c0.1,1.1,0.1,2.1,0.1,3.2c0,2.2,0,4.3,0.7,4.4c-0.3,2.8-0.6,5.5-1,8l-1.5,7.2c-0.8,4.7-2,9-2.7,13.6c-0.8,3.5-1.4,6.1-1.9,8.5    s-0.8,4.5-1.6,7.2c0,2.3-3.6,8.9-2,8.1c-3.2,12.9-8.3,24.3-14.1,35.9c1.7,0.6,0.1,3.9-2.4,7.5s-5.3,8-6,10.7    c-1.2,1-2.3,2.1-3.1,3.5c-0.5,0.7-1,1.5-1.5,2.4l-0.8,1.3l-0.8,1.3c-1.1,1.8-2.2,3.6-3.5,5.3c-0.6,0.9-1.3,1.7-1.9,2.5    c-0.6,0.8-1.3,1.5-2.1,2.1c-2.3,3.2-4.7,6.5-7.3,9.8s-5.3,6.5-8.1,9.6s-5.7,6.1-8.6,9s-5.9,5.5-8.7,8c-1.7,1.6-3.3,3.1-5,4.7    l-2.6,2.3c-0.9,0.8-1.7,1.5-2.6,2.2c-1.8,1.4-3.6,2.8-5.5,4.3l-2.8,2.1c-0.9,0.7-1.9,1.3-2.9,2c-3.9,2.6-7.9,5.4-12.2,7.9    l-6.5,3.9l-6.9,3.8c-0.1,0.9-3.4,2.4-4.2,3.6l-11.1,5.4l-11.5,5l-10.2,3.9c-1.8,0.7-3.7,1.2-5.6,1.9l-5.7,1.9    c-7.8,2.3-15.8,4.2-22.7,5.5c-1.2,0.5-2.5,0.9-3.7,1.1c-1.5,0.4-2.9,0.8-3,1.7c-2.2-0.1-4.5,0-6.7,0.2c-2.9,0.4-5.7,1-8.5,1.8    c-2.2,0-4.3,0.1-6.4,0.4c-2.2,0.2-4,0.2-3.8-0.4c-2,0.2-6.2,0-6.2,0.6c-1.4,0.3-2.9,0.5-4.4,0.5c-1.7,0.1-3.5-0.1-5.1,0    c-2.8,0.3-5.2,0.6-8.3,0.9c1-0.7-0.7-0.9-2.6-1c-1.5-0.2-3-0.1-4.5,0.1c-1.8,0.2-3.6,0.2-5.4,0.1h-1.6c-0.5,0-1.1,0-1.6,0    c-1,0-2,0.2-2.9,0.5l-1.6-0.2c-1.9-0.7-4-1.3-6-1.6c-1.5-0.4-3.1-0.3-4.6,0.1c-1.7-0.3-3-0.8-4.7-1.1c-2.7-0.3-5.3-0.4-8-0.2    c-1.7-0.2-3.3-0.5-4.7-0.7c2.5-0.5-2.5-1.2-1.7-1.9c-3-0.3-6-0.8-8.9-1.6c-3.2-0.8-6.7-1.6-10.1-2.8l-5.1-1.6    c-1.7-0.5-3.3-1-4.9-1.6c-2.8-1-5.7-1.9-8.7-2.6c-1.9-0.7-3.8-1.5-5.6-2.3l-5.6-2.4c-1.2-0.4-2.4-1-3.6-1.6    c-1.1-0.9-2.4-1.7-3.8-2.1l-1.2-0.3l-0.1,0c-1.5-0.7-3-1.4-4.5-2c-1-0.4-1.9-0.8-2.8-1.1c-0.8-0.6-1.5-1.4-2.1-2.1    c-1-1.3-2.2-2.5-3.6-3.5c-1.1-0.8-2.2-1.4-3.4-2c-1.4-0.7-3.1-1.4-5.2-2.4c-4-2.1-7.8-4.6-11.3-7.5c-3.1-2.6-5.9-5-8.3-7.4    c-1.3-1.4-2.6-2.7-4.1-3.8c-1.3-0.9-2.4-1.6-3.5-2.3c-2.4-1.3-4.7-2.8-6.8-4.5c0-0.4-0.7-1.2-1.3-1.9s-1.2-1.5-0.9-1.7    c-1.6-1.4-4.2-4.4-4.4-3.8c-1.1-0.7-2.1-1.5-3-2.4c-0.7-0.8-1.4-1.6-2-2.5c-1.2-1.8-2.6-3.5-4.1-5c-1.1-0.8-1.9-1.8-2.4-3    c-0.2-0.6,0.1-0.9,0.5-0.8l-6.4-7.5c0.7-0.2-3.5-5.1-7.1-9.7c-1.6-2.9-5.8-7.9-5-8.6c-1.4-1.9-2.5-3.8-4-6.1l-3-4.8    c-1.2-2.1-2.3-4.2-3.4-6.3l-1.8-3l-0.9-1.6l-0.8-1.7c-2.2-5.4-4.1-9.1-5.7-13l-2.6-6c-0.9-2.2-1.7-4.6-2.6-7.4    c0.5-0.4,0.4-1.3,0.3-2.5c-0.1-0.6-0.2-1.3-0.3-2.1s-0.2-1.6-0.3-2.5l1.5-0.3c-0.2-3.1-1.4-6.4-2.7-9.8c-1.3-3.4-2.2-6.9-2.8-10.5    c-1.7-3.7-2.8-14-4.3-13.7c-0.5,1.8,0.5,5.2,1.2,8.4l0.3,5c0.1,1.7,0.4,3.3,0.6,5c-0.6,0.1-1.2,0.1-1.8,0.2    c-0.6-1.1-1.2-1.9-1.7-2.8c-1-2.9-1.7-5.6-2.6-8.5c-0.3-1.3-0.7-2.9-1-4.5c-0.2-1.4-0.7-2.8-1.3-4.1l-1-5.7    c-0.3-2.1-0.4-4.3-0.7-6.4l-0.6-6.4c-0.2-1-0.2-2.1-0.3-3.2l-0.3-3.3l-0.6-6.5c0.5-2.4,0.1-6.9-0.5-13.1c-0.2,4.2-0.3,8.4-0.4,13    l0.4,8l0.2,4l0.4,4l0.5,4.2l0.1,2.8l0.1,1.4l0.1,1.4c0.2,1.9,0.4,3.7,0.7,5.6s0.5,3.8,0.9,5.8s0.9,4,1.4,6l0.5,5    c0.2,1.6,0.5,3.3,0.7,4.9c-0.7,0.1-1.2,0.1-1.5,0.2l1.2,5.1l0.6,2.5l0.7,2.5c1,3.3,2,6.6,3,10c1,2.7,2,5.2,2.8,7.6l1.2,3.5    l1.3,3.3l2.4,6.6c0.4,1.1,0.8,2.2,1.3,3.3l1.5,3.3c0.8,1.5,1.6,3,2.3,4.4l0.5,1.1l0.6,1.1l1.1,2.1c0.7,1.5,1.5,2.9,2.2,4.4    l0.7,1.5C66.3,414,65.3,413.2,64.2,412.5L64.2,412.5z M260.2,556.1c-1.5,0-3.3,0.1-5.2,0s-4.1-0.1-6.5-0.1l-5.7-0.9    c-1.9-0.3-3.7-0.8-5.6-1.1l-5.6-1.2l-2.8-0.6l-2.8-0.8c-0.5-0.6-1.2-1-1.9-1.2h0.1c4.3,0.8,9.1,1.3,13.7,2.1    c2.9,0.6,5.9,1,8.9,1.4s6,1,8.9,1.2c3.6,0.2,7.1,0.5,10.3,0.7c0.8,0.1,1.7,0.1,2.5,0.1l-0.5,0.3    C265.8,556.2,263.4,556.1,260.2,556.1L260.2,556.1z M522.2,427.4l0.3-0.4l0.3-0.3c-0.3,0.5-0.6,0.9-0.9,1.4    C522,427.8,522.1,427.6,522.2,427.4L522.2,427.4z" />
          <path class="st0" d="M461.7,73.5c2.7,2.3,5.1,4.3,7.7,6.6c0.7,0.7,1.3,1.4,1.8,2.2c0,1,1.3,2.6,3.4,4.4s4.8,4,7.5,6.3    c5,5.3,6.7,6.5,8.2,5.9l-6.6-7.4c-1-1.3-2-2.5-3-3.7l-3.1-3.6l3.3,3.5c1.1,1.2,2.1,2.4,3.2,3.6l6.4,7.5c2.8,3.2,4.8,4.2,5.3,3.6    c-1.4-1.9-2.8-3.8-4.3-5.7l-4.6-5.5c-1-2.4,0.9-1.2,1.2-1.5l-3.3-3.6c-1.1-1.2-2.3-2.3-3.5-3.5c-2.4-2.3-4.8-4.8-7.4-7.2l-8-7.2    c-1.3-1.2-2.8-2.4-4.2-3.5l-4.3-3.5c-1.1-0.9-2.2-1.8-3.4-2.6L450,56c-1.9-0.1-3.6,0.1-5.5,0.1l1.4,1l-3.7,1    C449,63,455.4,68.1,461.7,73.5z M472.7,78.2c1.8,2,3.6,3.9,5.4,5.9c-1.1-1.2-2.3-2.4-3.5-3.7l-1.8-1.9c-0.6-0.6-1.3-1.2-1.9-1.8    s-1.5-1.4-2.3-2C470.1,75.6,471.5,76.8,472.7,78.2L472.7,78.2z" />
          <path class="st0" d="M426.9,45.5c1.8,1,3.5,2.3,5.7,3.6c2.6,1.5,5.3,2.9,8,4.2c-1.5-1.8-3.3-3.3-5.3-4.5c-1.4-0.9-3-1.9-4.8-3    s-4.1-2.2-6.6-3.4C423.3,42.5,426,44.4,426.9,45.5z" />
        </g>
      </g>
      
    </svg>
  </g>
  <path data-refid="title" fill="#db4e0e" d="M 43.74-2.32L 49.14-2.32L 49.14 0L 3.94 0L 3.94-2.32L 10.42-2.32Q 13.07-2.32  14.66-3.73Q 16.25-5.13  16.25-8.21L 16.25-8.21L 16.25-26.84Q 16.25-29.27  14.55-31.02Q 12.85-32.78  10.42-32.78L 10.42-32.78L 3.94-32.78L 3.94-35.1L 65.23-35.1L 65.23-25L 63.72-25Q 62.26-26.57  61.56-27.22Q 60.86-27.86  58.99-29.16Q 57.13-30.46  55.3-31.1L 55.3-31.1Q 50.44-32.72  43.42-32.72L 43.42-32.72Q 40.61-32.72  38.99-31.27Q 37.37-29.81  37.37-27.43L 37.37-27.43L 37.37-25.6Q 37.37-20.09  42.07-20.09L 42.07-20.09Q 45.36-20.09  47.9-21.46Q 50.44-22.84  51.89-25L 51.89-25L 53.89-25L 53.89-11.5L 51.89-11.5Q 50.6-14.47  48.2-15.69Q 45.79-16.9  42.07-16.9L 42.07-16.9Q 39.53-16.9  38.45-15.5Q 37.37-14.09  37.37-12.04L 37.37-12.04L 37.37-7.94Q 37.37-4.37  38.72-3.35Q 40.07-2.32  43.74-2.32L 43.74-2.32ZM 19.93-2.32L 23.44-2.32L 23.44-32.78L 19.93-32.78L 19.93-2.32ZM 132.17-26.84L 132.17-26.84L 132.17-8.15Q 132.17-5.13  133.79-3.73Q 135.40999999999997-2.32  138.04999999999998-2.32L 138.04999999999998-2.32L 144.58999999999997-2.32L 144.58999999999997 0L 98.62999999999998 0L 98.62999999999998-2.32L 105.21999999999998-2.32Q 107.86999999999998-2.32  109.48999999999998-3.73Q 111.10999999999999-5.13  111.10999999999999-8.15L 111.10999999999999-8.15L 111.10999999999999-26.84Q 111.10999999999999-29.27  109.37999999999998-31.02Q 107.64999999999998-32.78  105.21999999999998-32.78L 105.21999999999998-32.78L 98.62999999999998-32.78L 98.62999999999998-35.1L 144.58999999999997-35.1L 144.58999999999997-32.78L 138.04999999999998-32.78Q 135.61999999999998-32.78  133.89-31.02Q 132.17-29.27  132.17-26.84ZM 114.71999999999998-2.32L 118.22999999999999-2.32L 118.22999999999999-32.78L 114.71999999999998-32.78L 114.71999999999998-2.32ZM 182.032-24.14L 182.032-24.14Q 182.032-26.57  182.952-28.51Q 183.872-30.46  185.222-31.7Q 186.572-32.94  188.872-33.83Q 191.162-34.72  193.102-35.18Q 195.052-35.64  198.022-35.86L 198.022-35.86Q 202.392-36.18  207.582-36.18Q 212.762-36.18  220.702-35.13Q 228.642-34.07  234.362-32.78L 234.362-32.78L 235.332-35.1L 237.872-35.1L 237.872-23.71L 235.332-23.71Q 233.282-26.62  223.532-30.29Q 213.792-33.97  206.962-33.97Q 200.122-33.97  200.122-31.05L 200.122-31.05Q 200.122-28.3  208.012-26.84L 208.012-26.84Q 211.522-26.19  215.732-25.54Q 219.942-24.89  224.18200000000002-23.84Q 228.422-22.79  231.93200000000002-21.33Q 235.442-19.87  237.632-17.25Q 239.812-14.63  239.812-11.12L 239.812-11.12Q 239.812-4.7  232.74200000000002-1.78Q 225.672 1.13  211.632 1.13L 211.632 1.13Q 204.552 1.13  198.912 0.11Q 193.272-0.92  185.982-3.13L 185.982-3.13L 184.46200000000002 0L 181.93200000000002 0L 181.93200000000002-15.17L 184.46200000000002-15.17Q 185.332-13.18  188.142-10.77Q 190.942-8.37  194.892-6.18Q 198.832-4  204.012-2.54Q 209.202-1.08  214.162-1.08L 214.162-1.08Q 223.18200000000002-1.08  223.18200000000002-3.78L 223.18200000000002-3.78Q 223.18200000000002-5.45  218.942-6.88Q 214.702-8.32  208.662-9.64Q 202.612-10.96  196.562-12.64Q 190.512-14.31  186.272-17.25Q 182.032-20.2  182.032-24.14ZM 229.612-3.73L 229.612-4.97Q 229.612-8.1  227.232-9.88L 227.232-9.88Q 224.752-11.72  221.862-12.5Q 218.972-13.28  217.24200000000002-13.69Q 215.512-14.09  212.68200000000002-14.69Q 209.842-15.28  206.74200000000002-16.01Q 203.632-16.74  200.452-17.74Q 197.262-18.74  194.022-20.3L 194.022-20.3Q 187.382-23.44  186.412-28.57L 186.412-28.57L 186.032-28.62Q 185.332-27.05  185.332-24.84L 185.332-24.84Q 185.332-21.11  189.812-18.41L 189.812-18.41Q 195.102-15.17  210.282-11.66L 210.282-11.66Q 213.622-10.85  215.512-10.42Q 217.402-9.99  219.592-9.42Q 221.782-8.86  223.05200000000002-8.37Q 224.322-7.88  225.612-7.18L 225.612-7.18Q 227.882-5.94  229.392-3.67L 229.392-3.67L 229.612-3.73Z" data-box="46.96 124.29 206.36 32.64 " transform="matrix(0.8748657563364521 0 0 0.8748657563364522 43.51796736465312 155.94459114907335)" />
  <path data-refid="slogan" fill="#db4e0e" d="M 7.66-9.53L 7.53-7.66L 4.12-7.66Q 3.44-7.66  3.44-7.06L 3.44-7.06L 3.44-5.7L 7.01-5.7L 7.01-3.88L 3.44-3.88L 3.44 0L 0.81 0L 0.81-7.6Q 0.81-8.55  1.43-9.13Q 2.04-9.7  3.04-9.7L 3.04-9.7Q 6.36-9.7  7.66-9.53L 7.66-9.53ZM 13.428-7.15L 13.808-7.15L 13.578-4.82L 12.908-4.82Q 12.208-4.82  10.988-4.52L 10.988-4.52L 10.988 0L 8.437999999999999 0L 8.437999999999999-6.96L 10.428-6.96L 10.658-5.94Q 12.008-7.15  13.428-7.15L 13.428-7.15ZM 19.068-2.81L 19.068-2.81L 16.978-2.81Q 17.078000000000003-2.24  17.378-2.02Q 17.678-1.81  18.358-1.81L 18.358-1.81Q 19.628-1.81  21.088-1.97L 21.088-1.97L 21.308-0.42Q 20.148000000000003 0.17  18.078000000000003 0.17L 18.078000000000003 0.17Q 16.018 0.17  15.138000000000002-0.7Q 14.268-1.57  14.268-3.44L 14.268-3.44Q 14.268-5.49  15.128000000000002-6.32Q 15.988000000000001-7.15  18.028000000000002-7.15L 18.028000000000002-7.15Q 19.868000000000002-7.15  20.678-6.54Q 21.488-5.94  21.508000000000003-4.69L 21.508000000000003-4.69Q 21.518-3.71  20.958000000000002-3.26Q 20.398000000000003-2.81  19.068-2.81ZM 16.928-4.13L 16.928-4.13L 18.358-4.13Q 18.788-4.13  18.918-4.26Q 19.058-4.4  19.058-4.75L 19.058-4.75Q 19.058-5.15  18.848000000000003-5.29Q 18.638-5.43  18.098000000000003-5.43L 18.098000000000003-5.43Q 17.448-5.45  17.208000000000002-5.19Q 16.968-4.94  16.928-4.13ZM 27.132-2.81L 27.132-2.81L 25.042-2.81Q 25.142000000000003-2.24  25.442-2.02Q 25.742-1.81  26.422-1.81L 26.422-1.81Q 27.692-1.81  29.152-1.97L 29.152-1.97L 29.372-0.42Q 28.212000000000003 0.17  26.142000000000003 0.17L 26.142000000000003 0.17Q 24.082 0.17  23.202-0.7Q 22.332-1.57  22.332-3.44L 22.332-3.44Q 22.332-5.49  23.192-6.32Q 24.052-7.15  26.092000000000002-7.15L 26.092000000000002-7.15Q 27.932000000000002-7.15  28.742-6.54Q 29.552-5.94  29.572000000000003-4.69L 29.572000000000003-4.69Q 29.582-3.71  29.022000000000002-3.26Q 28.462000000000003-2.81  27.132-2.81ZM 24.992-4.13L 24.992-4.13L 26.422-4.13Q 26.852-4.13  26.982-4.26Q 27.122-4.4  27.122-4.75L 27.122-4.75Q 27.122-5.15  26.912000000000003-5.29Q 26.702-5.43  26.162000000000003-5.43L 26.162000000000003-5.43Q 25.512-5.45  25.272000000000002-5.19Q 25.032-4.94  24.992-4.13ZM 35.196000000000005-9.8L 37.746-9.8L 37.746 0L 35.726000000000006 0L 35.516000000000005-1.08Q 34.666000000000004 0.17  32.916000000000004 0.17L 32.916000000000004 0.17Q 31.616000000000007 0.17  31.016000000000005-0.78Q 30.426000000000005-1.72  30.426000000000005-3.56L 30.426000000000005-3.56Q 30.426000000000005-5.59  31.066000000000006-6.37Q 31.706000000000007-7.15  33.086000000000006-7.15L 33.086000000000006-7.15Q 34.43600000000001-7.15  35.25600000000001-6.55L 35.25600000000001-6.55Q 35.196000000000005-7.5  35.196000000000005-8.04L 35.196000000000005-8.04L 35.196000000000005-9.8ZM 35.196000000000005-2.25L 35.196000000000005-2.25L 35.196000000000005-5.18Q 34.496-5.4  34.036-5.4L 34.036-5.4Q 33.456-5.4  33.246-5.06Q 33.036-4.72  33.036-3.57L 33.036-3.57Q 33.036-2.53  33.246-2.21Q 33.446000000000005-1.89  33.976000000000006-1.89L 33.976000000000006-1.89Q 34.626000000000005-1.89  35.196000000000005-2.25ZM 44.900000000000006-9.66L 44.900000000000006 0L 42.290000000000006 0L 42.290000000000006-9.66L 44.900000000000006-9.66ZM 46.462-6.96L 48.492000000000004-6.96L 48.702000000000005-5.94Q 50.132000000000005-7.15  51.622-7.15L 51.622-7.15Q 52.612-7.15  53.122-6.66Q 53.632000000000005-6.16  53.632000000000005-5.21L 53.632000000000005-5.21L 53.632000000000005 0L 51.082 0L 51.082-4.41Q 51.082-4.75  50.962-4.87Q 50.832-5  50.512-5L 50.512-5Q 49.912000000000006-5  49.012-4.63L 49.012-4.63L 49.012 0L 46.462 0L 46.462-6.96ZM 59.556-9.8L 62.105999999999995-9.8L 62.105999999999995 0L 60.086 0L 59.876-1.08Q 59.025999999999996 0.17  57.275999999999996 0.17L 57.275999999999996 0.17Q 55.976 0.17  55.376-0.78Q 54.785999999999994-1.72  54.785999999999994-3.56L 54.785999999999994-3.56Q 54.785999999999994-5.59  55.425999999999995-6.37Q 56.065999999999995-7.15  57.446-7.15L 57.446-7.15Q 58.796-7.15  59.616-6.55L 59.616-6.55Q 59.556-7.5  59.556-8.04L 59.556-8.04L 59.556-9.8ZM 59.556-2.25L 59.556-2.25L 59.556-5.18Q 58.855999999999995-5.4  58.396-5.4L 58.396-5.4Q 57.815999999999995-5.4  57.605999999999995-5.06Q 57.396-4.72  57.396-3.57L 57.396-3.57Q 57.396-2.53  57.605999999999995-2.21Q 57.806-1.89  58.336-1.89L 58.336-1.89Q 58.986-1.89  59.556-2.25ZM 67.99799999999999-6.96L 70.55799999999999-6.96L 70.55799999999999 0L 68.54799999999999 0L 68.338-0.99Q 66.93799999999999 0.2  65.508 0.2L 65.508 0.2Q 63.48799999999999 0.2  63.48799999999999-1.75L 63.48799999999999-1.75L 63.48799999999999-6.96L 66.038-6.96L 66.038-2.55Q 66.038-2.23  66.178-2.09Q 66.31799999999998-1.95  66.65799999999999-1.95L 66.65799999999999-1.95Q 67.198-1.95  67.99799999999999-2.3L 67.99799999999999-2.3L 67.99799999999999-6.96ZM 75.08399999999999-2.49L 75.08399999999999-2.49L 73.454-2.94Q 72.43399999999998-3.23  72.064-3.75Q 71.69399999999999-4.26  71.69399999999999-5.14L 71.69399999999999-5.14Q 71.69399999999999-6.17  72.40399999999998-6.66Q 73.10399999999998-7.15  74.80399999999999-7.15L 74.80399999999999-7.15Q 76.814-7.13  78.20399999999998-6.86L 78.20399999999998-6.86L 78.05399999999999-5.32Q 77.12399999999998-5.33  75.33399999999999-5.33L 75.33399999999999-5.33Q 74.52399999999999-5.33  74.34399999999998-5.3Q 74.15399999999998-5.26  74.15399999999998-5.04L 74.15399999999998-5.04Q 74.15399999999998-5  74.16399999999999-4.96Q 74.17399999999999-4.91  74.19399999999999-4.89Q 74.21399999999998-4.86  74.23399999999998-4.84Q 74.25399999999999-4.82  74.29399999999998-4.79Q 74.34399999999998-4.77  74.38399999999999-4.75Q 74.42399999999999-4.73  74.50399999999999-4.71Q 74.57399999999998-4.69  74.64399999999999-4.68Q 74.704-4.66  74.814-4.63Q 74.92399999999999-4.61  75.01399999999998-4.58L 75.01399999999998-4.58L 76.69399999999999-4.13Q 77.64399999999999-3.86  78.064-3.41Q 78.48399999999998-2.95  78.48399999999998-2.07L 78.48399999999998-2.07Q 78.48399999999998-0.8  77.74399999999999-0.32Q 77.00399999999999 0.15  75.19399999999999 0.15L 75.19399999999999 0.15Q 73.41399999999999 0.15  71.80399999999999-0.11L 71.80399999999999-0.11L 71.96399999999998-1.65Q 72.10399999999998-1.65  72.98399999999998-1.65Q 73.86399999999999-1.64  74.41399999999999-1.64L 74.41399999999999-1.64Q 75.44399999999999-1.64  75.73399999999998-1.7Q 76.02399999999999-1.76  76.02399999999999-2L 76.02399999999999-2Q 76.02399999999999-2.06  76.00399999999999-2.1Q 75.99399999999999-2.14  75.95399999999998-2.18Q 75.90399999999998-2.23  75.87399999999998-2.25Q 75.83399999999999-2.27  75.74399999999999-2.3Q 75.65399999999998-2.32  75.57399999999998-2.35Q 75.50399999999999-2.37  75.35399999999998-2.41Q 75.204-2.45  75.08399999999999-2.49ZM 84.58800000000001-5.36L 82.79800000000002-5.36L 82.79800000000002-2.42Q 82.79800000000002-2.09  82.93800000000002-1.95Q 83.08800000000001-1.82  83.45800000000001-1.82L 83.45800000000001-1.82L 84.26800000000001-1.82L 84.54800000000002-0.14Q 83.74800000000002 0.18  82.35800000000002 0.18L 82.35800000000002 0.18Q 81.36800000000001 0.18  80.808-0.34Q 80.24800000000002-0.85  80.24800000000002-1.79L 80.24800000000002-1.79L 80.24800000000002-5.36L 79.04800000000002-5.36L 79.04800000000002-6.89L 80.23800000000001-6.94L 80.23800000000001-8.83L 82.79800000000002-8.83L 82.79800000000002-6.96L 84.58800000000001-6.96L 84.58800000000001-5.36ZM 90.51200000000001-7.15L 90.89200000000001-7.15L 90.662-4.82L 89.99200000000002-4.82Q 89.29200000000002-4.82  88.07200000000002-4.52L 88.07200000000002-4.52L 88.07200000000002 0L 85.522 0L 85.522-6.96L 87.51200000000001-6.96L 87.74200000000002-5.94Q 89.09200000000001-7.15  90.51200000000001-7.15L 90.51200000000001-7.15ZM 92.452-10.09L 92.452-10.09L 93.562-10.09Q 94.29199999999999-10.09  94.29199999999999-9.34L 94.29199999999999-9.34L 94.29199999999999-8.61Q 94.29199999999999-7.87  93.562-7.87L 93.562-7.87L 92.452-7.87Q 91.71199999999999-7.87  91.71199999999999-8.61L 91.71199999999999-8.61L 91.71199999999999-9.34Q 91.71199999999999-10.09  92.452-10.09ZM 94.27199999999999-6.96L 94.27199999999999 0L 91.74199999999999 0L 91.74199999999999-6.96L 94.27199999999999-6.96ZM 96.02600000000001-5.15L 96.02600000000001-5.15L 95.80600000000001-6.8Q 97.646-7.15  99.60600000000001-7.15L 99.60600000000001-7.15Q 101.07600000000001-7.15  101.796-6.54Q 102.506-5.94  102.506-4.44L 102.506-4.44L 102.506 0L 100.49600000000001 0L 100.256-1.02Q 99.24600000000001 0.18  97.77600000000001 0.18L 97.77600000000001 0.18Q 96.756 0.18  96.096-0.34Q 95.436-0.87  95.436-1.81L 95.436-1.81L 95.436-2.51Q 95.436-3.33  96.036-3.81Q 96.626-4.28  97.66600000000001-4.28L 97.66600000000001-4.28L 99.976-4.28L 99.976-4.45Q 99.956-4.9  99.756-5.08Q 99.55600000000001-5.25  99.006-5.25L 99.006-5.25Q 97.646-5.25  96.02600000000001-5.15ZM 97.926-2.41L 97.926-2.41L 97.926-2.17Q 97.926-1.61  98.616-1.61L 98.616-1.61Q 99.236-1.61  99.976-2.09L 99.976-2.09L 99.976-2.95L 98.516-2.95Q 97.926-2.94  97.926-2.41ZM 103.896-9.8L 106.426-9.8L 106.426-2.42Q 106.426-1.82  107.166-1.82L 107.166-1.82L 107.676-1.82L 107.966-0.14Q 107.40599999999999 0.18  106.096 0.18L 106.096 0.18Q 105.066 0.18  104.48599999999999-0.33Q 103.896-0.84  103.896-1.75L 103.896-1.75L 103.896-9.8ZM 115.20400000000002-3.44L 115.20400000000002-3.44L 113.27400000000003-4.21Q 112.14400000000002-4.68  111.66400000000003-5.34Q 111.18400000000003-6.01  111.18400000000003-7.08L 111.18400000000003-7.08Q 111.18400000000003-8.71  112.01400000000002-9.28Q 112.84400000000002-9.84  114.95400000000002-9.84L 114.95400000000002-9.84Q 116.98400000000002-9.84  118.31400000000002-9.41L 118.31400000000002-9.41L 118.14400000000002-7.69Q 115.66400000000003-7.73  114.92400000000002-7.73L 114.92400000000002-7.73Q 114.25400000000002-7.73  114.02400000000003-7.62Q 113.79400000000003-7.5  113.79400000000003-7.13L 113.79400000000003-7.13Q 113.79400000000003-6.8  113.98400000000002-6.63Q 114.18400000000003-6.45  114.71400000000003-6.27L 114.71400000000003-6.27L 116.49400000000003-5.59Q 117.65400000000002-5.12  118.13400000000003-4.45Q 118.60400000000003-3.78  118.60400000000003-2.69L 118.60400000000003-2.69Q 118.60400000000003-1.05  117.79400000000003-0.43Q 116.97400000000003 0.18  114.82400000000003 0.18L 114.82400000000003 0.18Q 112.98400000000002 0.18  111.28400000000002-0.24L 111.28400000000002-0.24L 111.44400000000003-2.1Q 114.31400000000002-2.03  114.81400000000002-2.03L 114.81400000000002-2.03Q 115.51400000000002-2.03  115.74400000000003-2.15Q 115.97400000000003-2.27  115.97400000000003-2.63L 115.97400000000003-2.63Q 115.97400000000003-2.97  115.81400000000002-3.12Q 115.65400000000002-3.28  115.20400000000002-3.44ZM 124.29200000000002-2.81L 124.29200000000002-2.81L 122.20200000000001-2.81Q 122.30200000000002-2.24  122.60200000000002-2.02Q 122.90200000000002-1.81  123.58200000000002-1.81L 123.58200000000002-1.81Q 124.85200000000002-1.81  126.31200000000001-1.97L 126.31200000000001-1.97L 126.53200000000001-0.42Q 125.37200000000001 0.17  123.30200000000002 0.17L 123.30200000000002 0.17Q 121.24200000000002 0.17  120.36200000000001-0.7Q 119.49200000000002-1.57  119.49200000000002-3.44L 119.49200000000002-3.44Q 119.49200000000002-5.49  120.35200000000002-6.32Q 121.21200000000002-7.15  123.25200000000001-7.15L 123.25200000000001-7.15Q 125.09200000000001-7.15  125.90200000000002-6.54Q 126.71200000000002-5.94  126.73200000000001-4.69L 126.73200000000001-4.69Q 126.74200000000002-3.71  126.18200000000002-3.26Q 125.62200000000001-2.81  124.29200000000002-2.81ZM 122.15200000000002-4.13L 122.15200000000002-4.13L 123.58200000000002-4.13Q 124.01200000000001-4.13  124.14200000000001-4.26Q 124.28200000000001-4.4  124.28200000000001-4.75L 124.28200000000001-4.75Q 124.28200000000001-5.15  124.07200000000002-5.29Q 123.86200000000002-5.43  123.32200000000002-5.43L 123.32200000000002-5.43Q 122.67200000000001-5.45  122.43200000000002-5.19Q 122.19200000000002-4.94  122.15200000000002-4.13ZM 132.806-7.15L 133.186-7.15L 132.95600000000002-4.82L 132.286-4.82Q 131.586-4.82  130.366-4.52L 130.366-4.52L 130.366 0L 127.816 0L 127.816-6.96L 129.806-6.96L 130.036-5.94Q 131.386-7.15  132.806-7.15L 132.806-7.15ZM 138.72600000000003-6.96L 141.41600000000003-6.96L 139.25600000000003-0.6Q 139.04600000000002 0  138.44600000000003 0L 138.44600000000003 0L 136.26600000000002 0Q 135.63600000000002 0  135.44600000000003-0.6L 135.44600000000003-0.6L 133.29600000000002-6.96L 135.98600000000002-6.96L 137.01600000000002-2.88Q 137.10600000000002-2.49  137.25600000000003-1.61L 137.25600000000003-1.61L 137.436-1.61Q 137.47600000000003-1.82  137.56600000000003-2.25Q 137.64600000000002-2.67  137.686-2.88L 137.686-2.88L 138.72600000000003-6.96ZM 142.922-10.09L 142.922-10.09L 144.032-10.09Q 144.762-10.09  144.762-9.34L 144.762-9.34L 144.762-8.61Q 144.762-7.87  144.032-7.87L 144.032-7.87L 142.922-7.87Q 142.18200000000002-7.87  142.18200000000002-8.61L 142.18200000000002-8.61L 142.18200000000002-9.34Q 142.18200000000002-10.09  142.922-10.09ZM 144.74200000000002-6.96L 144.74200000000002 0L 142.21200000000002 0L 142.21200000000002-6.96L 144.74200000000002-6.96ZM 152.22600000000003-1.97L 152.22600000000003-1.97L 152.45600000000002-0.36Q 151.38600000000002 0.17  149.57600000000002 0.17L 149.57600000000002 0.17Q 147.586 0.17  146.776-0.65Q 145.966-1.47  145.966-3.49Q 145.966-5.5  146.78600000000003-6.33Q 147.60600000000002-7.15  149.60600000000002-7.15L 149.60600000000002-7.15Q 151.29600000000002-7.15  152.34600000000003-6.68L 152.34600000000003-6.68L 152.09600000000003-5.1L 150.03600000000003-5.11Q 149.22600000000003-5.11  148.936-4.77Q 148.63600000000002-4.44  148.63600000000002-3.49Q 148.63600000000002-2.53  148.936-2.2Q 149.22600000000003-1.86  150.03600000000003-1.86L 150.03600000000003-1.86Q 151.25600000000003-1.86  152.22600000000003-1.97ZM 157.934-2.81L 157.934-2.81L 155.844-2.81Q 155.944-2.24  156.244-2.02Q 156.544-1.81  157.224-1.81L 157.224-1.81Q 158.494-1.81  159.954-1.97L 159.954-1.97L 160.174-0.42Q 159.014 0.17  156.944 0.17L 156.944 0.17Q 154.884 0.17  154.004-0.7Q 153.134-1.57  153.134-3.44L 153.134-3.44Q 153.134-5.49  153.994-6.32Q 154.85399999999998-7.15  156.894-7.15L 156.894-7.15Q 158.734-7.15  159.544-6.54Q 160.35399999999998-5.94  160.374-4.69L 160.374-4.69Q 160.384-3.71  159.82399999999998-3.26Q 159.264-2.81  157.934-2.81ZM 155.794-4.13L 155.794-4.13L 157.224-4.13Q 157.654-4.13  157.784-4.26Q 157.924-4.4  157.924-4.75L 157.924-4.75Q 157.924-5.15  157.714-5.29Q 157.504-5.43  156.964-5.43L 156.964-5.43Q 156.314-5.45  156.07399999999998-5.19Q 155.834-4.94  155.794-4.13ZM 164.55800000000002-2.49L 164.55800000000002-2.49L 162.92800000000003-2.94Q 161.90800000000002-3.23  161.538-3.75Q 161.168-4.26  161.168-5.14L 161.168-5.14Q 161.168-6.17  161.87800000000001-6.66Q 162.57800000000003-7.15  164.27800000000002-7.15L 164.27800000000002-7.15Q 166.288-7.13  167.67800000000003-6.86L 167.67800000000003-6.86L 167.52800000000002-5.32Q 166.598-5.33  164.80800000000002-5.33L 164.80800000000002-5.33Q 163.99800000000002-5.33  163.818-5.3Q 163.62800000000001-5.26  163.62800000000001-5.04L 163.62800000000001-5.04Q 163.62800000000001-5  163.638-4.96Q 163.64800000000002-4.91  163.668-4.89Q 163.68800000000002-4.86  163.70800000000003-4.84Q 163.728-4.82  163.76800000000003-4.79Q 163.818-4.77  163.85800000000003-4.75Q 163.89800000000002-4.73  163.978-4.71Q 164.04800000000003-4.69  164.11800000000002-4.68Q 164.17800000000003-4.66  164.288-4.63Q 164.39800000000002-4.61  164.48800000000003-4.58L 164.48800000000003-4.58L 166.168-4.13Q 167.11800000000002-3.86  167.538-3.41Q 167.95800000000003-2.95  167.95800000000003-2.07L 167.95800000000003-2.07Q 167.95800000000003-0.8  167.21800000000002-0.32Q 166.478 0.15  164.668 0.15L 164.668 0.15Q 162.888 0.15  161.27800000000002-0.11L 161.27800000000002-0.11L 161.43800000000002-1.65Q 161.57800000000003-1.65  162.45800000000003-1.65Q 163.33800000000002-1.64  163.888-1.64L 163.888-1.64Q 164.918-1.64  165.20800000000003-1.7Q 165.49800000000002-1.76  165.49800000000002-2L 165.49800000000002-2Q 165.49800000000002-2.06  165.478-2.1Q 165.46800000000002-2.14  165.42800000000003-2.18Q 165.37800000000001-2.23  165.348-2.25Q 165.30800000000002-2.27  165.21800000000002-2.3Q 165.12800000000001-2.32  165.04800000000003-2.35Q 164.978-2.37  164.82800000000003-2.41Q 164.67800000000003-2.45  164.55800000000002-2.49Z" data-box="55.99 165.21 188.30 11.59 " transform="matrix(1.1265306164211597 0 0 1.1265306164211597 55.08194699780181 176.57988447977542)" />
</svg>