<?xml version="1.0" encoding="utf-8"?>
<!-- Generator: Adobe Illustrator 24.1.0, SVG Export Plug-In . SVG Version: 6.00 Build 0)  -->
<svg version="1.1" id="Layer_1" xmlns="http://www.w3.org/2000/svg" xmlns:xlink="http://www.w3.org/1999/xlink" x="0px" y="0px"
	 viewBox="0 0 104.49 102.5" style="enable-background:new 0 0 104.49 102.5;" xml:space="preserve">
<style type="text/css">
	.st0{fill:#FFFFFF;}
</style>
<g>
	<g>
		<path class="st0" d="M41.7,0.74c2.7-0.19,5.39-0.59,8.1-0.72C68.03,0.03,86.26,0.08,104.49,0c-0.69,10.12-2.77,20.13-4.07,30.2
			c-1.6,11.34-3.17,22.69-4.99,34c-0.61,5.85-1.75,11.76-4.6,16.97c-6.46,12.48-19.9,20.81-33.93,21.18
			c-18.96,0.29-37.93-0.01-56.9,0.15c1.62-18.78,5.4-37.32,7.57-56.04c1.64-8.26,1.69-17.09,5.79-24.67
			C18.78,10.81,29.67,2.85,41.7,0.74z M20.88,35.29c-2.71,18.46-5.32,36.92-7.91,55.4c3.69-0.07,7.38-0.02,11.07-0.05
			c1.2-7.56,1.87-15.22,3.38-22.72c10.37,0.08,20.75,0.2,31.12-0.07c0.86-0.77,1.73-1.55,2.61-2.3c0.79-2.81,1.28-5.69,1.42-8.6
			c-11.21,0.07-33.62,0.07-33.62,0.07l0,0l0.83-5.66c0,0,1.13-10.26,2.04-15.34c1.52-6.7,7.29-11.8,13.99-12.98
			c7.22-0.19,14.45-0.06,21.68-0.08c0.72-3.67,1.04-7.41,1.71-11.09c-7.44,0.04-14.88-0.16-22.31,0.1
			C34.23,12.49,22.79,22.78,20.88,35.29z M79.66,18.19C79.12,23.7,78.4,29.2,77.25,34.6c-9.83-0.13-19.66-0.11-29.48-0.02
			c-1.85-0.13-3.08,1.32-4.32,2.42c-0.81,2.85-1.17,5.79-1.29,8.74c11.14-0.1,22.28,0.01,33.42-0.06c-0.36,6.9-1.7,13.68-2.7,20.5
			c-1.4,7.57-8.49,13.3-16.11,13.51c-6.51,0.06-13.03,0.05-19.54,0.01c-0.99,3.56-1.09,7.28-1.26,10.95
			c7.3-0.04,14.59,0.05,21.88-0.03c12.71-0.5,23.94-10.88,25.99-23.35c2.42-18.51,5.58-36.94,7.69-55.49
			c-3.67,0.1-7.35,0.07-11.03,0.12C80.35,14.01,80.37,16.17,79.66,18.19z"/>
	</g>
</g>
</svg>
