<?xml version="1.0" encoding="utf-8"?>
<!-- Generator: Adobe Illustrator 24.1.0, SVG Export Plug-In . SVG Version: 6.00 Build 0)  -->
<svg version="1.1" xmlns="http://www.w3.org/2000/svg" xmlns:xlink="http://www.w3.org/1999/xlink" x="0px" y="0px"
	 viewBox="0 0 3250.9 229" style="enable-background:new 0 0 3250.9 229;" xml:space="preserve">
<style type="text/css">
	.st0{fill:#DB4E0E;}
</style>
<g id="Layer_1">
	<g>
		<path d="M387.9,38.5v27.1h-72.8V97h63.5V124h-63.5v60.5h-30.3v-146H387.9z"/>
		<path d="M488.6,114.4c7.2,1.5,12.4,4.2,15.6,8.1c3.1,3.9,5.2,9.1,6.1,15.7l5.9,46.3h-31.2l-3.5-37.5c-0.7-6.7-2.7-11.5-6-14.6
			c-3.4-3-8.7-4.5-16.1-4.5h-26.9v56.6h-30.3v-146h68.1c16.1,0,27.9,3.8,35.3,11.3c7.2,7.7,10.9,17.3,10.9,28.9
			C516.5,97.6,507.2,109.5,488.6,114.4z M432.6,64v39.4h29.1c8.3,0,14.6-1.8,18.8-5.4c4.2-3.6,6.3-8.6,6.3-15.1
			c0-5.9-1.7-10.5-5.2-13.8c-3.5-3.3-8.7-5-15.7-5H432.6z"/>
		<path d="M571.4,121.8v37.1h77.9v25.6H541.1v-146h106.2v25.6h-75.8v31.6h68.3v26H571.4z"/>
		<path d="M701.2,121.8v37.1h77.9v25.6H670.8v-146H777v25.6h-75.8v31.6h68.3v26H701.2z"/>
		<path d="M800.6,38.5h53.7c46.2,0,69.3,24.3,69.3,73c0,23.2-5.5,41.2-16.5,53.9c-11,12.7-27.2,19.1-48.7,19.1h-57.8V38.5z
			 M830.9,158.9h23.6c14.1,0,24.1-3.7,29.9-11c5.9-7.3,8.8-19.4,8.8-36.4c0-17.2-3.1-29.7-9.2-37.3c-6.4-7.4-17.6-11.1-33.6-11.1
			h-19.5V158.9z"/>
		<path d="M1025.1,184.5h-30.3v-146h30.3V184.5z"/>
		<path d="M1139.3,132.2V38.5h30.3v146h-29.7l-57.8-93.7v93.7h-30.3v-146h29.7L1139.3,132.2z"/>
		<path d="M1196.2,38.5h53.7c46.2,0,69.3,24.3,69.3,73c0,23.2-5.5,41.2-16.5,53.9c-11,12.7-27.2,19.1-48.7,19.1h-57.8V38.5z
			 M1226.6,158.9h23.6c14.1,0,24.1-3.7,29.9-11c5.9-7.3,8.8-19.4,8.8-36.4c0-17.2-3.1-29.7-9.2-37.3c-6.4-7.4-17.6-11.1-33.6-11.1
			h-19.5V158.9z"/>
		<path d="M1437.5,176.3c-10,8.6-23.9,12.9-41.8,12.9c-17.9,0-31.8-4.3-41.6-12.9c-10-8.6-15-20.8-15-36.7V38.5h30.3V140
			c0,15.3,8.8,23,26.4,23c17.5,0,26.2-7.7,26.2-23V38.5h30.3v101.1C1452.5,155.5,1447.5,167.7,1437.5,176.3z"/>
		<path d="M1535.7,189.2c-18.9,0-33.8-4.4-44.8-13.3c-11-8.9-16.7-21.1-17.1-36.7h29.7c0.4,8.1,3.4,14.3,9,18.7
			c5.6,4.4,13.3,6.6,23,6.6c8.3,0,14.9-1.6,19.7-4.8c4.8-3.2,7.2-7.7,7.2-13.4c0-4.8-1.7-8.4-5.1-11c-3.4-2.5-9.2-4.8-17.2-6.9
			l-26.9-6.8c-11.5-2.9-20.3-7.8-26.5-14.8c-6.2-7-9.3-15.6-9.3-25.8c0-12.7,4.7-23.5,14.1-32.4c9.3-8.9,22.8-13.3,40.4-13.3
			s31.7,4.4,42.2,13.1c10.5,8.9,16.3,20.5,17.2,34.9h-29.5c-1-7.2-4.1-12.9-9.4-17c-5.3-4.1-12.1-6.1-20.3-6.1
			c-7.4,0-13.3,1.6-17.6,4.9c-4.4,3.3-6.6,7.5-6.6,12.7c0,8.1,5.7,13.5,17,16.4l29.1,7.2c26.5,6.4,39.8,20.4,39.8,42
			c0,14.2-5.2,25.4-15.5,33.6C1567.9,185.1,1553.8,189.2,1535.7,189.2z"/>
		<path d="M1602.8,38.5h117.9v27.1H1677v118.9h-30.3V65.6h-43.9V38.5z"/>
		<path d="M1824.4,114.4c7.2,1.5,12.4,4.2,15.6,8.1c3.1,3.9,5.2,9.1,6.2,15.7l5.9,46.3h-31.2l-3.5-37.5c-0.7-6.7-2.7-11.5-6-14.6
			c-3.4-3-8.7-4.5-16.1-4.5h-26.9v56.6h-30.3v-146h68.1c16.1,0,27.9,3.8,35.3,11.3c7.2,7.7,10.9,17.3,10.9,28.9
			C1852.2,97.6,1842.9,109.5,1824.4,114.4z M1768.4,64v39.4h29.1c8.3,0,14.6-1.8,18.8-5.4c4.2-3.6,6.3-8.6,6.3-15.1
			c0-5.9-1.7-10.5-5.2-13.8c-3.5-3.3-8.7-5-15.7-5H1768.4z"/>
		<path d="M1907.2,184.5h-30.3v-146h30.3V184.5z"/>
		<path d="M2062.8,184.5h-32.4l-9.8-30.3h-52.9l-9.8,30.3h-32.2l51.7-146h35.1L2062.8,184.5z M1981.8,111.1l-5.9,18h36.7l-5.9-18
			l-12.3-42L1981.8,111.1z"/>
		<path d="M2111.6,38.5v118.9h71.1v27.1h-101.5v-146H2111.6z"/>
		<path d="M2306.9,189.2c-18.9,0-33.8-4.4-44.8-13.3c-11-8.9-16.7-21.1-17.1-36.7h29.7c0.4,8.1,3.4,14.3,9,18.7
			c5.6,4.4,13.3,6.6,23,6.6c8.3,0,14.9-1.6,19.7-4.8c4.8-3.2,7.2-7.7,7.2-13.4c0-4.8-1.7-8.4-5.1-11c-3.4-2.5-9.2-4.8-17.2-6.9
			l-26.9-6.8c-11.5-2.9-20.3-7.8-26.5-14.8c-6.2-7-9.3-15.6-9.3-25.8c0-12.7,4.7-23.5,14.1-32.4c9.3-8.9,22.8-13.3,40.4-13.3
			s31.7,4.4,42.2,13.1c10.5,8.9,16.3,20.5,17.2,34.9H2333c-1-7.2-4.1-12.9-9.4-17c-5.3-4.1-12.1-6.1-20.3-6.1
			c-7.4,0-13.3,1.6-17.6,4.9c-4.4,3.3-6.6,7.5-6.6,12.7c0,8.1,5.7,13.5,17,16.4l29.1,7.2c26.5,6.4,39.8,20.4,39.8,42
			c0,14.2-5.2,25.4-15.5,33.6C2339.1,185.1,2325,189.2,2306.9,189.2z"/>
		<path d="M2416.6,121.8v37.1h77.9v25.6h-108.2v-146h106.2v25.6h-75.8v31.6h68.3v26H2416.6z"/>
		<path d="M2602.3,114.4c7.2,1.5,12.4,4.2,15.6,8.1c3.1,3.9,5.2,9.1,6.2,15.7l5.9,46.3h-31.2l-3.5-37.5c-0.7-6.7-2.7-11.5-6-14.6
			c-3.4-3-8.7-4.5-16.1-4.5h-26.9v56.6H2516v-146h68.1c16.1,0,27.9,3.8,35.3,11.3c7.2,7.7,10.9,17.3,10.9,28.9
			C2630.2,97.6,2620.9,109.5,2602.3,114.4z M2546.4,64v39.4h29.1c8.3,0,14.6-1.8,18.8-5.4c4.2-3.6,6.3-8.6,6.3-15.1
			c0-5.9-1.7-10.5-5.2-13.8c-3.5-3.3-8.7-5-15.7-5H2546.4z"/>
		<path d="M2717.1,102.1l18.9-63.5h32.2l-49.6,146h-28.7l-49.4-146h32.2l19.5,63.5l12.5,48.2L2717.1,102.1z"/>
		<path d="M2817,184.5h-30.3v-146h30.3V184.5z"/>
		<path d="M2905.3,189.2c-19.8,0-36.1-7.1-48.8-21.3c-12.7-14.2-19.1-33-19.1-56.4c0-23.2,6.4-41.7,19.3-55.6
			c13-13.8,29.3-20.7,49-20.7c17.8,0,32.1,4.6,43,13.8c10.9,9.2,17.1,21.8,18.5,37.8h-28.9c-1.2-8.1-4.5-14.3-9.9-18.8
			c-5.4-4.4-12.5-6.7-21.2-6.7c-12.3,0-21.9,4.5-28.9,13.5c-7,9-10.5,21.2-10.5,36.5c0,15.9,3.5,28.4,10.5,37.6
			c7,9.2,16.6,13.8,28.9,13.8c8.9,0,16-2.4,21.3-7.2c5.3-4.8,8.6-11.1,9.8-19.1h28.7c-1.2,16.4-7.3,29.2-18.2,38.5
			C2937.8,184.6,2923.4,189.2,2905.3,189.2z"/>
		<path d="M3016,121.8v37.1h77.9v25.6h-108.2v-146h106.2v25.6H3016v31.6h68.3v26H3016z"/>
		<path d="M3172,189.2c-18.9,0-33.8-4.4-44.8-13.3c-11-8.9-16.7-21.1-17.1-36.7h29.7c0.4,8.1,3.4,14.3,9,18.7
			c5.6,4.4,13.3,6.6,23,6.6c8.3,0,14.9-1.6,19.7-4.8c4.8-3.2,7.2-7.7,7.2-13.4c0-4.8-1.7-8.4-5.1-11c-3.4-2.5-9.2-4.8-17.2-6.9
			l-26.9-6.8c-11.5-2.9-20.3-7.8-26.5-14.8c-6.2-7-9.3-15.6-9.3-25.8c0-12.7,4.7-23.5,14.1-32.4c9.3-8.9,22.8-13.3,40.4-13.3
			s31.7,4.4,42.2,13.1c10.5,8.9,16.3,20.5,17.2,34.9h-29.5c-1-7.2-4.1-12.9-9.4-17c-5.3-4.1-12.1-6.1-20.3-6.1
			c-7.4,0-13.3,1.6-17.6,4.9c-4.4,3.3-6.6,7.5-6.6,12.7c0,8.1,5.7,13.5,17,16.4l29.1,7.2c26.5,6.4,39.8,20.4,39.8,42
			c0,14.2-5.2,25.4-15.5,33.6C3204.2,185.1,3190.1,189.2,3172,189.2z"/>
	</g>
</g>
<g id="Layer_2">
	<g transform="matrix(0.47703180212014135 0 0 0.4770318021201414 15 16.502632707252094)">
		<g id="Calque_2">
			<g id="Calque_1-2">
				<path class="st0" d="M96,364.1c-2.1-1.8-4-3.3-6-5.1c-0.5-0.5-1-1.1-1.4-1.7c0-0.8-1-1.9-2.6-3.4c-1.6-1.5-3.7-3.1-5.8-4.9
					c-3.9-4.1-5.2-5-6.4-4.6l5.2,5.7c0.8,1,1.6,1.9,2.3,2.9l2.5,2.8l-2.6-2.7c-0.9-0.9-1.6-1.9-2.5-2.8l-5-5.8
					c-2.2-2.5-3.7-3.3-4.1-2.8c1.1,1.5,2.2,2.9,3.3,4.4l3.6,4.3c0.8,1.9-0.7,0.9-0.9,1.2l2.6,2.8c0.9,0.9,1.8,1.9,2.7,2.7
					c1.9,1.9,3.7,3.7,5.7,5.6l6.2,5.6c1,0.9,2.2,1.9,3.3,2.7l3.3,2.7c0.9,0.7,1.7,1.4,2.6,2l2.8,1.9c1.5,0.1,2.8-0.1,4.3-0.1
					l-1.1-0.8l2.9-0.8C105.9,372.2,100.8,368.2,96,364.1z M87.5,360.4c-1.4-1.6-2.8-3-4.2-4.6c0.9,0.9,1.8,1.9,2.7,2.9l1.4,1.5
					c0.5,0.5,1,0.9,1.5,1.5c0.5,0.5,1.2,1.1,1.8,1.6C89.5,362.4,88.4,361.4,87.5,360.4L87.5,360.4z"/>
				<path class="st0" d="M122.9,385.8c-1.4-0.8-2.8-1.8-4.4-2.8c-2-1.2-4.1-2.2-6.2-3.3c1.2,1.4,2.6,2.6,4.1,3.6
					c1.1,0.7,2.3,1.5,3.7,2.3c1.4,0.9,3.2,1.7,5.1,2.6C125.7,388.1,123.7,386.6,122.9,385.8z"/>
				<path class="st0" d="M454,219.5c-0.1-1.3-0.1-2.7-0.1-4.5c0-0.9,0-1.9,0-2.9l0.1-1.7v-1.2c0.1-0.9,0.1-1.8,0.1-2.7
					c0-2.6-0.1-5.4-0.2-8.1c-0.1-2.8-0.4-5.6-0.5-8.3c-0.5-1.9-1-3.6-1.7-5.5l-0.8-7.7c-0.1-1.2-0.4-2.6-0.5-3.8l-0.6-3.8
					c0.3-0.2,0.5-1.2,0.4-2.3c-0.1-1.4-0.2-2.8-0.7-4.1c-0.8-1.2-1.5-4.3-2.2-7.8c-0.8-3.4-2.2-6.8-3.7-8.7c-0.3-1-0.6-2.3-1.1-3.6
					l-1.6-4.9c-0.9-2,0.6,3.7-0.2,1.6c-0.8-1.6-1.6-3.8-2.5-5.7c-0.9-1.9-1.8-3.4-2.3-3.6c0.2,1.5,0.5,2.9,1.2,4.3
					c0.7,1.6,1.8,4,3.5,8.5c-0.2,1.6,0.7,5.1,1.8,8.9l0.9,2.9c0.2,1,0.5,1.9,0.7,2.9c0.4,1.7,0.7,3.5,0.9,5.2c0.9,2.3,1.6,5,2.4,7.6
					c0.5,3.4,0.9,5.3,1.2,7.4c0.7,3.2,1.4,6.1,2,9.1c-0.8-1.2-0.6,4.7-1.2,4.9l0.3,5.2c0.1,1.6,0.1,3.2,0.2,4.7
					c-0.5-0.1-0.9-0.1-1.4,0c-0.5-0.4-0.6-0.5-1.2,4.3c-0.5,1.2-0.9,2.7-1.4,4c-0.4,0-0.7,0-1.1-0.1c0.5-0.9,0.6-3.7,0.5-7
					c0-1.7-0.2-3.4-0.2-5c-0.2-1.3-0.4-2.7-0.8-4c-0.2,0-0.5,0-0.7-0.1c-0.9-0.9-1.8-1.8-2.6-2.8l-0.9-3.6l-1-3.8l-0.8-6
					c-0.2,0-0.5,0-1.2,0c-0.5-2.4-0.8-4.7-1.2-6.7c-0.2-1-0.4-1.9-0.6-2.9c-0.2-0.9-0.5-1.6-0.9-2.4c-0.6-2.7-1.2-5.4-1.9-8.1
					l-2.3-8.2c-0.1-0.4-0.2-0.9-0.3-1.2l-0.4-1.2l-0.8-2.4l-1.6-4.9c-0.2-0.9-0.5-1.6-0.9-2.4l-0.9-2.4l-1.7-4.8
					c-1-2.8-2.2-5.5-3.3-8.3c-0.5-1.4-1.2-2.7-1.8-4.1l-1.9-4.1c-1.1-2.4-2.3-4.7-3.5-7.1l-1.8-3.5c-0.6-1.2-1.3-2.2-1.9-3.4
					c-0.8-2.2-1.8-4.3-2.9-6.3c-1.4-2.4-3-4.7-4.7-6.9l-2.9-2.1l-2.2-2.9c2,1.2-0.2-1.9-0.6-2.9c-0.4-0.5-0.9-1-1.2-1.6l-1.3-1.5
					c-0.9-0.9-1.8-1.9-2.6-2.8c-0.5-1.4-0.9-2.6-1.3-3.9c-1.2-1.5-2.6-2.8-3.8-4.2l-1.9-2.1c-0.6-0.7-1.2-1.4-1.9-2.1
					c-1-1.2-2.2-2.2-3.5-3l-0.4-0.5l-0.9-1.1l-1.1-1.2l-4.8-4.5l-1.2-1.1l-1.2-1.1l-2.4-2.1c-1.2-1.2-2.4-2.5-3.7-3.6l-1.5-1.3
					c0.9,0.2,1.7,0.5,2.7,0.9l0.9-0.2l-1.9-1.6c-0.6-0.5-1.2-1-1.9-1.5c-3.1-2.2-4.3-2.6-5.4-2.8l-0.6-0.1c-1.6-1.3-3.4-2.6-5-3.8
					c-0.8-0.5-1.5-1.2-2.2-1.6l-2.3-1.6l-4.6-3.1l-1.2-0.8l-1.1-0.7l-0.5-0.3l-1.5-2.3c-3-1.6-5.9-3.1-9-4.7
					c-3.3-1.6-6.8-3.3-10.2-4.9l-2.3-0.9l-1-0.5c-1.3-0.5-2.6-1.1-3.9-1.6l-4.5-1.8c0.5-1.3-5.8-3.1-7.9-3.3c-0.9-0.3-1.9-0.7-2.9-1
					l-0.3-0.1l-0.3-0.2l-0.4-0.1l-2-0.6L286,0.3c-1.9-0.5-4-0.9-6-1.5l-2.9-0.7c-1-0.2-2-0.5-3-0.6l-6-1.3c-0.4-0.5-0.9-0.7-1.6-0.9
					c-0.5-0.2-0.9-0.3-1.4-0.4c-0.5-0.1-1.1-0.2-1.6-0.2c-1.2-0.2-2.6-0.3-3.7-0.3l0.9-0.9c2.6,0.4,5.3,0.8,7.6,1.2l6.7,1.6l3.3,0.8
					l3.4,0.9c0.3-0.2,0.6-0.5,0.9-0.7c1.4,0.2,2.7,0.5,3.9,0.8l2.2,0.9c0.7,0.3,1.4,0.7,2.1,1l4.2,2.1c1,0.1,2,0.1,3,0.2
					c0.9,0.2,1.6,0.4,2.3,0.6l1.9,0.5c1.2,0.3,2.1,0.5,2.8,0.6c1.5,0.2,2.1,0.1,2.2-0.5c2.2,0.6,4.3,1.4,6.4,2.1
					c3.2,1.4,6.7,3.1,11.4,5.1c1.1,1,2.3,1.9,3.7,2.5c1,0.5,2.2,1.2,3.5,1.8c0.7,0.3,1.3,0.6,2,1l2.2,1.1c-0.9-1.2-2.2-2.2-3.6-2.9
					c-0.8-0.4-1.6-0.9-2.6-1.3l1.6,0.6c-0.8-0.8-1.6-1.4-2.6-1.9c-1.2-0.6-2.5-1.3-4-2s-3.3-1.5-5-2.2s-3.8-1.4-5.8-2.1l-1.7-0.7
					c-1.2-0.7-2.4-1.3-3.6-1.9c-1.4-0.7-2.8-1.4-4.3-1.9c-1.9-0.8-3.9-1.2-5.9-1.5l-0.2-0.1l-2.2-0.8c-0.9-0.2-1.8-0.3-2.6-0.5
					l-1,0.7c-1.8-0.5-3.3-1.1-5.1-1.6c-0.9-0.5-1.9-0.9-2.9-1.2c0.7,0.2,1.5,0.3,2.2,0.5c1.6,0.3,3.5,0.7,5.4,0.9l-3.9-1.6l-1.9-0.8
					c-0.7-0.2-1.3-0.5-2-0.7c0.2-0.3,0.2-0.6,0.4-0.9c0-0.1,0.1-0.2,0.1-0.2c-1.2-0.4-2.5-0.8-3.7-1.2l-3.1-0.7
					c-1-0.2-2-0.5-3.1-0.7c-2.9-0.5-1.9,0.6-4.1,0.7c-1.2-0.4-2.2-0.9-3.3-1.6c-0.6-0.3-1.3-0.6-2-0.8c-1-0.2-2.1-0.4-3.1-0.5
					c-2.4-0.2-5-0.5-7.7-0.8L248-13c0,0.1-0.1,0.2-0.1,0.2c-0.9,0.1-1.9,0.2-2.7,0.2l-2.7,0.4l-5.4-0.2l-2.7-0.1
					c-0.9,0-1.9,0-2.7,0.1c-1.9,0-3.6,0.1-5.4,0.1h-1c0,0,0-0.1,0.1-0.1c-1.4-0.5-2.9-0.7-4.4-0.6c-1.5,0.1-2.9,0.3-4.3,0.8l-4,0.2
					c-1.3,0.1-2.6,0.2-4,0.4L207-11c-2,0.2-4,0.5-5.9,0.8c-1.2-0.2-1.2-0.5-2.4-0.6l-6.6,0.9l-1.7,0.3c-0.5,0.1-1.1,0.2-1.6,0.3
					l-3.2,0.7c-3.5,0.8-7.5,1.6-7.4,0.9c-1.6,0.5-3.5,0.9-5.7,1.5c-1.2,0.3-2.4,0.6-3.9,1.1c-1.5,0.5-2.9,1.1-4.7,1.8l-3.3,1.6
					c-1.1,0.5-2.2,1-3.3,1.6c-1,0.3-4.8,0.9-7.7,3.3c0.2,0.1,0.5,0.2,0.8,0.2c-6.7,2.8-13.3,5.9-19.7,9.4c-2,0.6-3.2,0.5-5.8,2.2
					c-1.6,1.2-4.3,2.8-5.1,4.2l-5,2.7l-4.7,2.9l-3.5,2.2c-1.2,0.8-2.2,1.6-3.4,2.4l-3.3,2.5c-1.1,0.9-2.2,1.6-3.3,2.6l-6,4.7
					c-0.8,0.8-1.5,1.5-2.2,2.2l-2.2,2.5c-1.3,1.3-2.7,2.6-4.1,3.9l-4,4.2c-1,1-2.3,2.1-3.3,3.3c-0.9,1-1.9,2.1-2.6,3.3
					c-1.9,1.9-3.7,3.7-5.3,5.5c1.4-2.4-1-0.8,0.2-3.3c-1.3,0.9-3.3,3.9-4.9,5.7c-0.9,1.7-1.8,3.2-2.6,5l-0.6,0.9
					c0-1.2-1.5,0.4-2.4,1.3c-0.8,1.1-1.6,2.2-2.4,3.5c-1.1,1.8-2,3.6-2.9,5.4c-1.6,2.1-2.6,3-3.4,4c-1.6,2.9-4.6,7-4.8,9.2l-3.4,7.1
					l-1.1,1.9c-0.4,0.6-0.7,1.3-1,2l-1.9,4c-0.8,1.2-1.5,2.4-2,3.7c-0.6,1.6-1.2,3.2-1.8,4.6l-0.7,3.3c-0.2,1.1-0.5,2.2-0.6,3.3
					l-2.8,8.2c-0.5,1.3-0.8,2.6-1.2,4l-1.1,4l-0.1,0.4c-0.9,0.4-1.1-0.8-2.5,0.6l-2.2,9.4c-0.2,0.5-0.2,1.1-0.4,1.6l-0.3,1.5
					l-0.5,2.6c-0.3,1.7-0.7,3.3-1.2,5l-0.2,1.4l-0.2,1.5l-0.2,2.9c-0.5,2.4-1.1,4.9-1.5,7c-0.3,1.6-0.5,3.1-0.5,4.7
					c-0.5,2.7-0.7,5.6-0.5,8.4c0.1,1.3,0.1,2.7,0.1,4.5c0,0.9,0,1.9,0,2.9l-0.1,1.7c0,0.4,0,0.8,0,1.2c-0.1,0.9-0.1,1.8-0.1,2.7
					c0,2.6,0.1,5.4,0.2,8.1c0.1,2.8,0.4,5.6,0.5,8.3c0.5,1.9,1,3.6,1.7,5.5l0.8,7.7c0.1,1.2,0.3,2.6,0.5,3.8l0.6,3.8
					c-0.3,0.2-0.5,1.2-0.4,2.3c0.1,1.4,0.2,2.8,0.7,4.1c0.8,1.2,1.5,4.3,2.2,7.8c0.8,3.4,2.2,6.8,3.7,8.7c0.3,1,0.6,2.3,1.1,3.6
					l1.6,4.8c0.9,2-0.6-3.7,0.2-1.6c0.8,1.6,1.6,3.8,2.5,5.7c0.9,1.9,1.8,3.4,2.3,3.6c-0.2-1.5-0.5-2.9-1.2-4.3
					c-0.7-1.6-1.8-4-3.5-8.5c0.2-1.6-0.7-5.1-1.8-8.9l-0.9-2.9c-0.2-1-0.5-1.9-0.7-2.9c-0.4-1.7-0.7-3.5-0.9-5.2
					c-0.9-2.3-1.6-5-2.4-7.6c-0.5-3.4-0.9-5.3-1.2-7.4c-0.7-3.2-1.4-6.1-2-9.1c0.8,1.2,0.6-4.7,1.2-4.9l-0.4-5.2
					c-0.1-1.6-0.1-3.2-0.2-4.7c0.5,0.1,0.9,0.1,1.4,0c0.5,0.4,0.7,0.5,1.2-4.3c0.5-1.2,0.9-2.7,1.4-4c0.4,0,0.7,0,1.1,0.1
					c-0.5,0.9-0.6,3.7-0.5,7c0,1.7,0.2,3.4,0.3,5c0.2,1.3,0.4,2.7,0.8,4c0.2,0,0.5,0,0.7,0.1c0.9,0.9,1.8,1.8,2.6,2.8l0.9,3.6
					l1.1,3.8l0.8,6c0.2,0,0.5,0,1.2,0c0.5,2.3,0.8,4.7,1.2,6.7c0.2,1,0.4,1.9,0.6,2.9c0.2,0.9,0.5,1.6,0.9,2.4
					c0.6,2.7,1.2,5.4,1.9,8.1l2.3,8.2c0.1,0.4,0.2,0.9,0.3,1.2l0.4,1.2l0.8,2.4l1.6,4.9c0.2,0.9,0.5,1.6,0.9,2.4l0.9,2.4l1.7,4.8
					c1,2.8,2.2,5.5,3.3,8.3c0.5,1.4,1.2,2.7,1.8,4.1l1.9,4.1c1.1,2.4,2.3,4.7,3.5,7.1l1.8,3.5c0.6,1.2,1.3,2.2,1.9,3.4
					c0.8,2.2,1.8,4.3,2.9,6.3c1.4,2.4,3,4.7,4.7,6.9l2.9,2.1l2.1,2.9c-2-1.2,0.2,1.9,0.6,2.9c0.5,0.5,0.9,1,1.2,1.6l1.3,1.5
					c0.9,0.9,1.8,1.9,2.6,2.8c0.5,1.4,0.9,2.6,1.3,3.9c1.2,1.5,2.6,2.8,3.8,4.2l1.9,2c0.6,0.7,1.2,1.4,1.9,2.1c1,1.2,2.2,2.2,3.5,3
					l0.4,0.5l0.9,1.2l1.1,1.2l4.8,4.5l1.2,1.2l1.2,1.1l2.5,2.1c1.2,1.2,2.4,2.5,3.7,3.6l1.5,1.3c-0.9-0.2-1.7-0.5-2.7-0.9l-0.9,0.2
					l2,1.6c0.6,0.5,1.2,1,1.9,1.5c3.1,2.2,4.3,2.6,5.4,2.8l0.6,0.1c1.7,1.3,3.3,2.6,5,3.8c0.8,0.5,1.5,1.2,2.2,1.6l2.3,1.6l4.6,3.1
					l1.1,0.8l1.2,0.7l0.5,0.3l1.5,2.3c3,1.6,5.9,3.1,9,4.7c3.3,1.6,6.8,3.3,10.2,4.9l2.3,0.9l1,0.5c1.3,0.5,2.6,1,3.9,1.6l4.5,1.8
					c-0.5,1.3,5.7,3.1,7.9,3.3c0.9,0.3,1.9,0.7,2.9,1l0.3,0.1l0.3,0.2l0.4,0.1l2,0.6l5.9,1.7c1.9,0.5,4,0.9,6,1.5l2.9,0.7
					c1,0.2,2,0.5,3,0.6l6,1.3c0.4,0.5,0.9,0.7,1.6,0.9c0.5,0.2,0.9,0.3,1.4,0.4c0.5,0.1,1.1,0.2,1.6,0.2c1.2,0.2,2.6,0.3,3.7,0.3
					l-0.9,0.9c-2.6-0.4-5.3-0.8-7.6-1.2l-6.7-1.6l-3.3-0.8l-3.4-0.9c-0.3,0.2-0.6,0.5-0.9,0.7c-1.4-0.2-2.7-0.5-3.9-0.8l-2.2-0.9
					c-0.7-0.3-1.4-0.7-2.1-1l-4.2-2.1c-1-0.1-2-0.2-3-0.2c-0.9-0.2-1.6-0.4-2.3-0.6l-1.9-0.5c-1.2-0.3-2.1-0.5-2.8-0.6
					c-1.5-0.2-2.1-0.1-2.2,0.5c-2.2-0.6-4.3-1.4-6.4-2.1c-3.2-1.4-6.7-3.1-11.4-5.1c-1.2-1-2.4-1.9-3.7-2.5c-1-0.5-2.2-1.2-3.6-1.8
					c-0.7-0.3-1.3-0.6-2-1l-2.2-1.1c0.9,1.2,2.2,2.2,3.6,2.9c0.8,0.4,1.6,0.9,2.6,1.3l-1.6-0.6c0.8,0.8,1.6,1.4,2.6,1.9
					c1.1,0.6,2.5,1.3,4,2c1.6,0.7,3.3,1.4,5,2.2c1.8,0.8,3.8,1.4,5.8,2.1l1.7,0.7c1.2,0.7,2.4,1.3,3.6,1.9c1.4,0.7,2.8,1.4,4.3,1.9
					c1.9,0.8,3.9,1.2,5.9,1.6l0.2,0.1l2.2,0.8c0.9,0.2,1.8,0.3,2.6,0.5l1-0.7c1.8,0.5,3.3,1.1,5.1,1.6c0.9,0.5,1.9,0.9,2.9,1.2
					c-0.7-0.2-1.5-0.2-2.2-0.5c-1.6-0.3-3.5-0.7-5.4-0.9l4,1.6l2,0.8c0.7,0.2,1.3,0.5,2,0.7c-0.2,0.3-0.2,0.6-0.4,0.9
					c0,0.1-0.1,0.2-0.1,0.2c1.2,0.4,2.5,0.8,3.7,1.2l3.1,0.7c1,0.2,2,0.5,3.1,0.7c2.9,0.5,1.9-0.6,4.1-0.7c1.2,0.4,2.2,0.9,3.3,1.6
					c0.6,0.3,1.3,0.6,2,0.8c1,0.2,2.1,0.4,3.1,0.5c2.4,0.2,5,0.5,7.7,0.8l7.4,0.4c0-0.1,0.1-0.2,0.1-0.2c0.9-0.1,1.9-0.2,2.7-0.2
					l2.7-0.4l5.4,0.2l2.7,0.1c0.9,0,1.9,0,2.7-0.1c1.9,0,3.6-0.1,5.4-0.1h0.9c0,0,0,0.1-0.1,0.1c1.4,0.5,2.9,0.7,4.4,0.6
					c1.5-0.1,2.9-0.3,4.3-0.8l4-0.2c1.3-0.1,2.6-0.2,4-0.4l1.7-0.5c2-0.2,4-0.5,5.9-0.8c1.2,0.2,1.2,0.5,2.4,0.6l6.7-1.2l1.6-0.3
					c0.5-0.1,1.1-0.2,1.6-0.4l3.2-0.7c3.5-0.8,7.5-1.6,7.4-0.9c1.6-0.5,3.5-0.9,5.7-1.5c1.2-0.3,2.4-0.6,3.9-1.1
					c1.5-0.5,2.9-1.1,4.7-1.8l3.3-1.6c1.2-0.5,2.2-1,3.3-1.6c1-0.3,4.8-0.9,7.7-3.3c-0.2-0.1-0.5-0.2-0.8-0.2
					c6.7-2.8,13.3-5.9,19.7-9.4c2-0.6,3.2-0.5,5.8-2.2c1.6-1.2,4.3-2.8,5.1-4.2l5-2.8l4.7-2.9l3.5-2.2c1.2-0.8,2.2-1.6,3.4-2.4
					l3.3-2.5c1.1-0.9,2.2-1.6,3.3-2.6l6.1-4.7c0.8-0.8,1.5-1.5,2.2-2.2l2.2-2.5c1.3-1.3,2.7-2.6,4.1-3.9l4-4.2
					c1.1-1,2.3-2.1,3.3-3.3c0.9-1,1.9-2.1,2.6-3.3c1.9-1.9,3.7-3.7,5.3-5.5c-1.4,2.4,1,0.8-0.2,3.3c1.3-0.9,3.3-3.9,4.9-5.7
					c0.9-1.7,1.8-3.2,2.6-5l0.6-0.9c0,1.2,1.5-0.4,2.4-1.3c0.8-1.1,1.6-2.2,2.4-3.5c1.1-1.8,2-3.6,2.9-5.4c1.6-2.1,2.6-3,3.4-4
					c1.6-2.9,4.6-7,4.8-9.2l3.4-7.1l1.1-1.9c0.4-0.6,0.6-1.3,1-1.9l1.9-4c0.8-1.2,1.5-2.4,2-3.7c0.6-1.6,1.2-3.2,1.8-4.6l0.7-3.3
					c0.2-1.1,0.5-2.2,0.6-3.3l2.6-8.1c0.5-1.3,0.8-2.7,1.2-4l1.1-4l0.1-0.4c0.9-0.4,1.1,0.8,2.5-0.6l1.6-9.2
					c0.2-0.5,0.2-1.1,0.4-1.6l0.3-1.5l0.5-2.6c0.3-1.7,0.7-3.3,1.2-5l0.2-1.4l0.2-1.5l0.2-2.9c0.5-2.4,1-4.9,1.5-7
					c0.3-1.6,0.5-3.1,0.5-4.7C453.9,225.2,454.1,222.3,454,219.5z M252.2-10.3c1.2,0,2.6-0.1,4,0c1.5,0.1,3.1,0.1,5,0.1l4.4,0.7
					c1.5,0.2,2.9,0.6,4.3,0.9l4.3,0.9l2.2,0.5l2.2,0.5c0.4,0.5,0.9,0.8,1.6,0.9h-0.1c-3.3-0.6-7.1-1.1-10.6-1.6
					c-2.2-0.5-4.6-0.7-6.9-1.1c-2.3-0.4-4.7-0.8-6.9-0.9c-2.8-0.2-5.5-0.4-8-0.5c-0.6-0.1-1.3-0.1-1.9-0.1l0.4-0.2
					C247.9-10.3,249.8-10.3,252.2-10.3z M49,89.6l-0.2,0.3l-0.2,0.2c0.2-0.4,0.5-0.7,0.7-1.1C49.2,89.2,49.1,89.4,49,89.6z
					 M64.9,306.9l-1.8-2c-0.6-0.7-1.2-1.4-1.8-2.1l-1.2-2.2l-2.3-4.5l-0.6-1.2l-0.5-1.2l-1.2-2.4l-2.3-4.9c-0.7-1.6-1.4-3.3-2.1-5
					c-0.7-1.7-1.4-3.3-2.1-5l-1.9-5c-1.3-3.3-2.2-6.7-3.3-9.8c-0.3-0.3-0.6-0.7-0.9-1.1c-0.2-0.6-0.5-1.3-0.6-2l-0.6-2.4
					c-0.4-1.8-0.9-4-1.6-7.1l1.6-0.2c-0.2-1.9-0.4-3.9-0.6-5.8c-0.6-1.9-1-3.6-1.7-4.5c-0.2-2.6-0.6-5.6-1.1-8.7
					c-0.5-3.1-0.7-6.4-1.2-9.5c-0.2-0.8-0.2-1.6-0.2-2.3l-0.2-2.2c-0.2-1.5-0.3-2.9-0.5-4.3l-0.3-1.9l-0.2-1.8
					c-0.1-0.5-0.1-0.9-0.2-1.2c0.2,0.4,0.4,0.7,0.7,0.9c0-2,0-4,0.1-6c0.1-0.9,0.2-1.7,0.5-2.6c0.2-0.5,0.5-0.8,0.6-1.2
					c0.4-0.8,0.7-1.9,0.9-5.8c-0.2-0.5-0.4-0.9-0.4-1.5c-0.1-0.9-0.1-1.6-0.1-2.5c0-1.7,0-3.3-0.5-3.4c0.2-2.2,0.5-4.3,0.8-6.2
					l1.2-5.6c0.6-3.6,1.6-7,2.1-10.5c0.6-2.7,1.1-4.7,1.5-6.6c0.4-1.9,0.6-3.5,1.2-5.6c0-1.8,2.8-6.9,1.6-6.3
					c2.8-10.1,6.7-18.9,11.2-27.9c-1.3-0.5-0.1-3,1.9-5.8c1.9-2.8,4.1-6.1,4.7-8.3c0.9-0.8,1.8-1.6,2.4-2.7c0.4-0.5,0.8-1.2,1.2-1.9
					l0.6-1l0.6-1c0.9-1.4,1.7-2.8,2.7-4.1c0.5-0.7,1-1.3,1.5-1.9c0.5-0.6,1-1.2,1.6-1.6c1.8-2.5,3.6-5,5.7-7.6c2-2.6,4.1-5,6.3-7.4
					s4.4-4.7,6.7-7c2.2-2.2,4.6-4.3,6.7-6.2c1.3-1.2,2.6-2.4,3.9-3.6l2-1.8c0.6-0.6,1.3-1.2,2-1.7c1.4-1.1,2.8-2.2,4.3-3.3l2.2-1.6
					c0.7-0.5,1.5-1,2.2-1.6c3-2,6.1-4.2,9.5-6.1l5-3l5.4-2.9c0.1-0.7,2.6-1.9,3.3-2.8l8.6-4.2l8.9-3.9l7.9-3
					c1.4-0.5,2.9-0.9,4.3-1.5l4.5-1.4c6-1.8,12.3-3.3,17.6-4.3c0.9-0.4,1.9-0.7,2.9-0.9c1.2-0.3,2.2-0.6,2.3-1.3
					c1.7,0.1,3.5,0,5.2-0.2c1.1-0.2,2.1-0.3,3.2-0.5c1.2-0.2,2.3-0.5,3.5-0.9c1.7,0,3.3-0.1,5-0.3c1.7-0.2,3.1-0.2,2.9,0.3
					c1.6-0.2,4.8,0,4.8-0.5c1.1-0.2,2.2-0.4,3.4-0.4c1.3-0.1,2.7,0.1,4,0c2.2-0.2,4-0.5,6.4-0.7c-0.8,0.5,0.5,0.7,2,0.8
					c1.2,0.2,2.3,0.1,3.5-0.1c1.4-0.2,2.8-0.2,4.2-0.1h1.2c0.4,0,0.9,0,1.2,0c0.8,0,1.6-0.2,2.2-0.4l1.2,0.2c1.5,0.5,3.1,1,4.7,1.2
					c1.2,0.3,2.4,0.2,3.5-0.1c1.3,0.2,2.3,0.6,3.6,0.9c2.1,0.2,4.1,0.3,6.2,0.2c1.3,0.2,2.6,0.4,3.6,0.5c-1.9,0.4,1.9,0.9,1.3,1.5
					c2.3,0.2,4.7,0.6,6.9,1.2c2.5,0.6,5.2,1.2,7.8,2.2l4,1.2c1.3,0.4,2.6,0.8,3.8,1.2c2.2,0.8,4.4,1.5,6.7,2
					c1.5,0.5,2.9,1.2,4.3,1.8l4.3,1.9c0.9,0.3,1.9,0.8,2.8,1.2c0.9,0.7,1.9,1.3,2.9,1.6l0.9,0.2h0.1c1.2,0.5,2.3,1.1,3.5,1.6
					c0.8,0.3,1.5,0.6,2.2,0.9c0.6,0.5,1.2,1,1.7,1.6c0.8,1,1.7,1.9,2.8,2.7c0.9,0.6,1.7,1.1,2.6,1.6c1.1,0.5,2.4,1.1,4,1.9
					c3.1,1.6,6,3.6,8.8,5.8c2.4,2,4.6,4,6.4,5.7c1,1.1,2,2.1,3.2,2.9c1,0.7,1.9,1.2,2.7,1.8c1.9,1,3.6,2.2,5.3,3.5
					c0,0.3,0.5,0.9,1,1.5s0.9,1.2,0.7,1.3c1.2,1.1,3.3,3.4,3.4,2.9c0.9,0.5,1.6,1.2,2.3,1.9c0.5,0.6,1.1,1.2,1.6,1.9
					c0.9,1.4,2,2.7,3.2,3.9c0.9,0.6,1.5,1.4,1.9,2.3c0.2,0.5-0.1,0.7-0.4,0.6l5,5.8c-0.5,0.2,2.7,4,5.5,7.5c1.2,2.2,4.5,6.1,3.9,6.7
					c1.1,1.5,1.9,2.9,3.1,4.7l2.3,3.7c0.9,1.6,1.8,3.3,2.6,4.9l1.3,2.5l0.7,1.2l0.6,1.2c1.7,4.2,3.2,7.1,4.4,10.1l2,4.7
					c0.7,1.7,1.3,3.6,2,5.7c-0.4,0.3-0.3,1-0.2,2c0.1,0.5,0.2,1,0.3,1.6c0.2,0.6,0.2,1.2,0.2,1.9l-1.2,0.2c0.2,2.4,1.1,5,2.1,7.6
					c1,2.6,1.7,5.4,2.2,8.1c1.3,2.9,2.2,10.9,3.3,10.6c0.4-1.4-0.4-4-0.9-6.5l-0.2-3.9c-0.1-1.3-0.3-2.6-0.5-3.9
					c0.5-0.1,0.9-0.1,1.4-0.2c0.5,0.9,0.9,1.5,1.3,2.2c0.8,2.2,1.3,4.3,2,6.6c0.2,1,0.5,2.2,0.8,3.5c0.2,1.1,0.5,2.2,1,3.2l0.8,4.4
					c0.2,1.6,0.3,3.3,0.5,5l0.5,5c0.2,0.8,0.2,1.6,0.2,2.5l0.2,2.6l0.5,5c-0.4,1.9-0.1,5.4,0.4,10.2c0.2-3.3,0.2-6.5,0.3-10.1
					l-0.3-6.2l-0.2-3.1l-0.3-3.1l-0.4-3.3l-0.1-2.2L422,170l-0.1-1.1c-0.2-1.5-0.3-2.9-0.5-4.3c-0.2-1.5-0.4-2.9-0.7-4.5
					c-0.3-1.6-0.7-3.1-1.1-4.7l-0.4-3.9c-0.2-1.2-0.4-2.6-0.5-3.8c0.5-0.1,0.9-0.1,1.2-0.2l-0.9-4l-0.5-1.9l-0.5-1.9
					c-0.8-2.6-1.6-5.1-2.3-7.8c-0.8-2.1-1.6-4-2.2-5.9l-1-2.6l-1-2.6l-1.9-5.1c-0.3-0.9-0.7-1.7-1-2.6l-1.2-2.6
					c-0.6-1.2-1.2-2.3-1.8-3.4l-0.4-0.9l-0.5-0.9l-0.9-1.7c-0.5-1.2-1.2-2.2-1.6-3.4l-0.5-1.2c0.9,0.7,1.7,1.2,2.6,1.9l1.8,2
					c0.6,0.7,1.2,1.4,1.8,2.1l1.2,2.2l2.3,4.5l0.6,1.2l0.5,1.2l1.2,2.4l2.3,4.9c0.7,1.6,1.4,3.3,2.1,5s1.4,3.3,2.1,5l1.9,5
					c1.3,3.3,2.2,6.7,3.3,9.8c0.3,0.3,0.6,0.7,0.9,1.1c0.2,0.6,0.5,1.3,0.6,2l0.6,2.4c0.4,1.8,0.9,4,1.6,7.1l-1.6,0.2
					c0.2,1.9,0.4,3.9,0.6,5.8c0.6,1.9,1,3.6,1.7,4.5c0.2,2.6,0.6,5.6,1.1,8.7c0.5,3.1,0.7,6.4,1.2,9.5c0.2,0.8,0.2,1.6,0.2,2.3
					l0.2,2.2c0.2,1.5,0.3,2.9,0.5,4.3l0.3,1.9l0.2,1.9c0.1,0.5,0.1,0.9,0.2,1.2c-0.2-0.4-0.4-0.7-0.7-0.9c0,2,0,4-0.1,6
					c-0.1,0.9-0.2,1.7-0.5,2.6c-0.2,0.5-0.5,0.8-0.6,1.2c-0.4,0.8-0.7,1.9-0.9,5.8c0.2,0.5,0.3,1,0.3,1.5c0.1,0.9,0.1,1.6,0.1,2.5
					c0,1.7,0,3.3,0.5,3.4c-0.2,2.2-0.5,4.3-0.8,6.2l-1.2,5.6c-0.6,3.6-1.6,7-2.1,10.5c-0.6,2.7-1.1,4.7-1.5,6.6
					c-0.4,1.9-0.6,3.5-1.2,5.6c0,1.8-2.8,6.9-1.6,6.3c-2.5,10-6.4,18.8-10.9,27.8c1.3,0.5,0.1,3-1.9,5.8s-4.1,6.2-4.7,8.3
					c-0.9,0.8-1.8,1.6-2.4,2.7c-0.4,0.5-0.8,1.2-1.2,1.9l-0.6,1l-0.6,1c-0.9,1.4-1.7,2.8-2.7,4.1c-0.5,0.7-1,1.3-1.5,1.9
					c-0.5,0.6-1,1.2-1.6,1.6c-1.8,2.5-3.6,5-5.7,7.6c-2,2.6-4.1,5-6.3,7.4s-4.4,4.7-6.7,7s-4.6,4.3-6.7,6.2
					c-1.3,1.2-2.6,2.4-3.9,3.6l-2,1.8c-0.7,0.6-1.3,1.2-2,1.7c-1.4,1.1-2.8,2.2-4.3,3.3l-2.2,1.6c-0.7,0.5-1.5,1-2.2,1.6
					c-3,2-6.1,4.2-9.5,6.1l-5,3l-5.4,2.9c-0.1,0.7-2.6,1.9-3.3,2.8l-8.6,4.2l-8.9,3.9l-7.9,3c-1.4,0.5-2.9,0.9-4.3,1.5l-4.4,1.5
					c-6,1.8-12.3,3.3-17.6,4.3c-0.9,0.4-1.9,0.7-2.9,0.9c-1.2,0.3-2.2,0.6-2.3,1.3c-1.7-0.1-3.5,0-5.2,0.2c-2.2,0.3-4.4,0.8-6.6,1.4
					c-1.7,0-3.3,0.1-5,0.3c-1.7,0.2-3.1,0.2-2.9-0.3c-1.6,0.2-4.8,0-4.8,0.5c-1.1,0.2-2.2,0.4-3.4,0.4c-1.3,0.1-2.7-0.1-4,0
					c-2.2,0.2-4,0.5-6.4,0.7c0.8-0.5-0.5-0.7-2-0.8c-1.2-0.2-2.3-0.1-3.5,0.1c-1.4,0.2-2.8,0.2-4.2,0.1H224c-0.4,0-0.9,0-1.2,0
					c-0.8,0-1.6,0.2-2.2,0.4l-1.2-0.2c-1.5-0.5-3.1-1-4.7-1.2c-1.2-0.3-2.4-0.2-3.6,0.1c-1.3-0.2-2.3-0.6-3.6-0.9
					c-2.1-0.2-4.1-0.3-6.2-0.2c-1.3-0.2-2.6-0.4-3.6-0.5c1.9-0.4-1.9-0.9-1.3-1.5c-2.3-0.2-4.7-0.6-6.9-1.2
					c-2.5-0.6-5.2-1.2-7.8-2.2l-4-1.2c-1.3-0.4-2.6-0.8-3.8-1.2c-2.2-0.8-4.4-1.5-6.7-2c-1.5-0.5-2.9-1.2-4.3-1.8l-4.3-1.9
					c-0.9-0.3-1.9-0.8-2.8-1.2c-0.9-0.7-1.9-1.3-2.9-1.6l-0.9-0.2h-0.1c-1.2-0.5-2.3-1.1-3.5-1.6c-0.8-0.3-1.5-0.6-2.2-0.9
					c-0.6-0.5-1.2-1.1-1.6-1.6c-0.8-1-1.7-1.9-2.8-2.7c-0.9-0.6-1.7-1.1-2.6-1.6c-1.1-0.5-2.4-1.1-4-1.9c-3.1-1.6-6-3.6-8.8-5.8
					c-2.4-2-4.6-3.9-6.4-5.7c-1-1.1-2-2.1-3.2-2.9c-1-0.7-1.9-1.2-2.7-1.8c-1.9-1-3.6-2.2-5.3-3.5c0-0.3-0.5-0.9-1-1.5
					c-0.5-0.5-0.9-1.2-0.7-1.3c-1.2-1.1-3.3-3.4-3.4-2.9c-0.9-0.5-1.6-1.2-2.3-1.9c-0.5-0.6-1.1-1.2-1.6-1.9c-0.9-1.4-2-2.7-3.2-3.9
					c-0.9-0.6-1.5-1.4-1.9-2.3c-0.2-0.5,0.1-0.7,0.4-0.6l-5-5.8c0.5-0.2-2.7-4-5.5-7.5c-1.2-2.2-4.5-6.1-3.9-6.7
					c-1.1-1.5-1.9-2.9-3.1-4.7L75,307c-0.9-1.6-1.8-3.3-2.6-4.9l-1.4-2.3l-0.7-1.2l-0.6-1.3c-1.7-4.2-3.2-7.1-4.4-10.1l-2-4.7
					c-0.7-1.7-1.3-3.6-2-5.7c0.4-0.3,0.3-1,0.2-1.9c-0.1-0.5-0.2-1-0.2-1.6c-0.1-0.6-0.2-1.2-0.2-1.9l1.2-0.2
					c-0.2-2.4-1.1-5-2.1-7.6c-1-2.6-1.7-5.4-2.2-8.1c-1.3-2.9-2.2-10.9-3.3-10.6c-0.4,1.4,0.4,4,0.9,6.5l0.2,3.9
					c0.1,1.3,0.3,2.6,0.5,3.9c-0.5,0.1-0.9,0.1-1.4,0.2c-0.5-0.9-0.9-1.5-1.3-2.2c-0.8-2.2-1.3-4.3-2-6.6c-0.2-1-0.5-2.2-0.8-3.5
					c-0.2-1.1-0.5-2.2-1-3.2l-0.8-4.4c-0.2-1.6-0.3-3.3-0.5-5l-0.5-5c-0.2-0.8-0.2-1.6-0.2-2.5l-0.2-2.6l-0.5-5
					c0.4-1.9,0.1-5.4-0.4-10.2c-0.2,3.3-0.2,6.5-0.3,10.1l0.3,6.2l0.2,3.1l0.3,3.1l0.4,3.3l0.1,2.2l0.1,1.1l0.1,1.1
					c0.2,1.5,0.3,2.9,0.5,4.3c0.2,1.5,0.4,2.9,0.7,4.5c0.3,1.6,0.7,3.1,1.1,4.7l0.4,3.9c0.2,1.2,0.4,2.6,0.5,3.8
					c-0.5,0.1-0.9,0.1-1.2,0.2l0.9,4l0.5,1.9l0.5,1.9c0.8,2.6,1.6,5.1,2.3,7.8c0.8,2.1,1.6,4,2.2,5.9l0.9,2.7l1,2.6l1.9,5.1
					c0.3,0.9,0.6,1.7,1,2.6l1.2,2.6c0.6,1.2,1.2,2.3,1.8,3.4l0.4,0.9l0.5,0.9l0.9,1.6c0.5,1.2,1.2,2.2,1.7,3.4l0.5,1.2
					C66.6,308.1,65.8,307.4,64.9,306.9L64.9,306.9z M216.9,418.3c-1.2,0-2.6,0.1-4,0c-1.5-0.1-3.2-0.1-5-0.1l-4.4-0.7
					c-1.5-0.2-2.9-0.6-4.3-0.9l-4.3-0.9l-2.2-0.5l-2.2-0.6c-0.4-0.5-0.9-0.8-1.5-0.9h0.1c3.3,0.6,7.1,1,10.6,1.6
					c2.2,0.5,4.6,0.8,6.9,1.1c2.3,0.3,4.7,0.8,6.9,0.9c2.8,0.2,5.5,0.4,8,0.5c0.6,0.1,1.3,0.1,1.9,0.1l-0.4,0.2
					C221.3,418.3,219.4,418.3,216.9,418.3L216.9,418.3z M420.1,318.5l0.2-0.3l0.2-0.2c-0.2,0.4-0.5,0.7-0.7,1.1
					C419.9,318.8,420,318.6,420.1,318.5L420.1,318.5z"/>
				<path class="st0" d="M373.2,44c2.1,1.8,4,3.3,6,5.1c0.5,0.5,1,1.1,1.4,1.7c0,0.8,1,2,2.6,3.4c1.6,1.4,3.7,3.1,5.8,4.9
					c3.9,4.1,5.2,5,6.4,4.6l-5.1-5.7c-0.8-1-1.6-1.9-2.3-2.9l-2.4-2.8l2.6,2.7c0.9,0.9,1.6,1.9,2.5,2.8l5,5.8
					c2.2,2.5,3.7,3.3,4.1,2.8c-1.1-1.5-2.2-2.9-3.3-4.4l-3.6-4.3c-0.8-1.9,0.7-0.9,0.9-1.2l-2.6-2.8c-0.9-0.9-1.8-1.8-2.7-2.7
					c-1.9-1.8-3.7-3.7-5.7-5.6l-6.2-5.6c-1-0.9-2.2-1.9-3.3-2.7l-3.3-2.7c-0.9-0.7-1.7-1.4-2.6-2l-3.1-2c-1.5-0.1-2.8,0.1-4.3,0.1
					l1.1,0.8l-2.9,0.8C363.3,35.9,368.3,39.8,373.2,44z M381.7,47.7c1.4,1.6,2.8,3,4.2,4.6c-0.9-0.9-1.8-1.9-2.7-2.9l-1.4-1.5
					c-0.5-0.5-1-0.9-1.5-1.4c-0.5-0.5-1.2-1.1-1.8-1.6C379.7,45.6,380.8,46.6,381.7,47.7L381.7,47.7z"/>
				<path class="st0" d="M346.2,22.3c1.4,0.8,2.7,1.8,4.4,2.8c2,1.2,4.1,2.2,6.2,3.3c-1.2-1.4-2.6-2.6-4.1-3.5
					c-1.1-0.7-2.3-1.5-3.7-2.3s-3.2-1.7-5.1-2.6C343.4,20,345.5,21.4,346.2,22.3z"/>
			</g>
		</g>
	</g>
</g>
</svg>
