<?xml version="1.0" encoding="utf-8"?>
<!-- Generator: Adobe Illustrator 24.1.0, SVG Export Plug-In . SVG Version: 6.00 Build 0)  -->
<svg version="1.1" xmlns="http://www.w3.org/2000/svg" xmlns:xlink="http://www.w3.org/1999/xlink" x="0px" y="0px"
	 viewBox="0 0 1172 228" style="enable-background:new 0 0 1172 228;" xml:space="preserve">
<style type="text/css">
	.st0{fill:#DB4E0E;}
</style>
<g id="Layer_1">
	<g>
		<path d="M387.4,38v27.1h-72.8v31.4h63.5v27.1h-63.5V184h-30.3V38H387.4z"/>
		<path d="M432.1,184h-30.3V38h30.3V184z"/>
		<path d="M515.4,188.7c-18.9,0-33.8-4.4-44.8-13.3c-11-8.9-16.7-21.1-17.1-36.7h29.7c0.4,8.1,3.4,14.3,9,18.7
			c5.6,4.4,13.3,6.6,23,6.6c8.3,0,14.9-1.6,19.7-4.8c4.8-3.2,7.2-7.7,7.2-13.4c0-4.8-1.7-8.4-5.1-11c-3.4-2.5-9.2-4.8-17.2-6.9
			l-26.9-6.8c-11.5-2.9-20.3-7.8-26.5-14.8c-6.2-7-9.3-15.6-9.3-25.8c0-12.7,4.7-23.5,14.1-32.4c9.3-8.9,22.8-13.3,40.4-13.3
			c17.6,0,31.7,4.4,42.2,13.1c10.5,8.9,16.3,20.5,17.2,34.9h-29.5c-1-7.2-4.1-12.9-9.4-17c-5.3-4.1-12.1-6.1-20.3-6.1
			c-7.4,0-13.3,1.6-17.6,4.9c-4.4,3.3-6.6,7.5-6.6,12.7c0,8.1,5.7,13.5,17,16.4l29.1,7.2c26.5,6.4,39.8,20.4,39.8,42
			c0,14.2-5.2,25.4-15.5,33.6C547.6,184.6,533.4,188.7,515.4,188.7z"/>
		<path d="M589,199.1h-1.8V193h1.8c4.2,0,6.3-2.1,6.3-6.3V184h-8.2v-14.2h15.5v17C602.6,195,598,199.1,589,199.1z"/>
		<path d="M703.2,38v118.9h71.1V184H672.8V38H703.2z"/>
		<path d="M821,38v118.9h71.1V184H790.7V38H821z"/>
		<path d="M964.1,188.7c-19.8,0-36.1-7.1-48.8-21.3c-12.7-14.2-19.1-33-19.1-56.4c0-23.2,6.4-41.7,19.3-55.6
			c13-13.8,29.3-20.7,49-20.7c17.8,0,32.1,4.6,43,13.8c10.9,9.2,17.1,21.8,18.5,37.8h-28.9c-1.2-8.1-4.5-14.3-9.9-18.8
			c-5.4-4.4-12.5-6.7-21.2-6.7c-12.3,0-21.9,4.5-28.9,13.5c-7,9-10.5,21.2-10.5,36.5c0,15.9,3.5,28.4,10.5,37.6
			c7,9.2,16.6,13.8,28.9,13.8c8.9,0,16-2.4,21.3-7.2c5.3-4.8,8.6-11.1,9.8-19.1h28.7c-1.2,16.4-7.3,29.2-18.2,38.5
			C996.7,184.1,982.2,188.7,964.1,188.7z"/>
	</g>
</g>
<g id="Layer_2">
	<g transform="matrix(0.47703180212014135 0 0 0.4770318021201414 15 16.502632707252094)">
		<g id="Calque_2">
			<g id="Calque_1-2">
				<path class="st0" d="M95,363c-2.1-1.8-4-3.3-6-5.1c-0.5-0.5-1-1.1-1.4-1.7c0-0.8-1-1.9-2.6-3.4s-3.7-3.1-5.8-4.9
					c-3.9-4.1-5.2-5-6.4-4.6l5.2,5.7c0.8,1,1.6,1.9,2.3,2.9l2.5,2.8l-2.6-2.7c-0.9-0.9-1.6-1.9-2.5-2.8l-5-5.8
					c-2.2-2.5-3.7-3.3-4.1-2.8c1.1,1.5,2.2,2.9,3.3,4.4l3.6,4.3c0.8,1.9-0.7,0.9-0.9,1.2l2.6,2.8c0.9,0.9,1.8,1.9,2.7,2.7
					c1.9,1.9,3.7,3.7,5.7,5.6l6.2,5.6c1,0.9,2.2,1.9,3.3,2.7l3.3,2.7c0.9,0.7,1.7,1.4,2.6,2l2.8,1.9c1.5,0.1,2.8-0.1,4.3-0.1
					l-1.1-0.8l2.9-0.8C104.8,371.2,99.8,367.1,95,363z M86.4,359.4c-1.4-1.6-2.8-3-4.2-4.6c0.9,0.9,1.8,1.9,2.7,2.9l1.4,1.5
					c0.5,0.5,1,0.9,1.5,1.5c0.5,0.5,1.2,1.1,1.8,1.6C88.5,361.3,87.4,360.4,86.4,359.4L86.4,359.4z"/>
				<path class="st0" d="M121.9,384.7c-1.4-0.8-2.8-1.8-4.4-2.8c-2-1.2-4.1-2.2-6.2-3.3c1.2,1.4,2.6,2.6,4.1,3.6
					c1.1,0.7,2.3,1.5,3.7,2.3c1.4,0.9,3.2,1.7,5.1,2.6C124.7,387.1,122.7,385.6,121.9,384.7z"/>
				<path class="st0" d="M452.9,218.5c-0.1-1.3-0.1-2.7-0.1-4.5c0-0.9,0-1.9,0-2.9l0.1-1.7v-1.2c0.1-0.9,0.1-1.8,0.1-2.7
					c0-2.6-0.1-5.4-0.2-8.1c-0.1-2.8-0.4-5.6-0.5-8.3c-0.5-1.9-1-3.6-1.7-5.5l-0.8-7.7c-0.1-1.2-0.4-2.6-0.5-3.8l-0.6-3.8
					c0.3-0.2,0.5-1.2,0.4-2.3c-0.1-1.4-0.2-2.8-0.7-4.1c-0.8-1.2-1.5-4.3-2.2-7.8c-0.8-3.4-2.2-6.8-3.7-8.7c-0.3-1-0.6-2.3-1.1-3.6
					l-1.6-4.9c-0.9-2,0.6,3.7-0.2,1.6c-0.8-1.6-1.6-3.8-2.5-5.7c-0.9-1.9-1.8-3.4-2.3-3.6c0.2,1.5,0.5,2.9,1.2,4.3
					c0.7,1.6,1.8,4,3.5,8.5c-0.2,1.6,0.7,5.1,1.8,8.9l0.9,2.9c0.2,1,0.5,1.9,0.7,2.9c0.4,1.7,0.7,3.5,0.9,5.2c0.9,2.3,1.6,5,2.4,7.6
					c0.5,3.4,0.9,5.3,1.2,7.4c0.7,3.2,1.4,6.1,2,9.1c-0.8-1.2-0.6,4.7-1.2,4.9l0.3,5.2c0.1,1.6,0.1,3.2,0.2,4.7
					c-0.5-0.1-0.9-0.1-1.4,0c-0.5-0.4-0.6-0.5-1.2,4.3c-0.5,1.2-0.9,2.7-1.4,4c-0.4,0-0.7,0-1.1-0.1c0.5-0.9,0.6-3.7,0.5-7
					c0-1.7-0.2-3.4-0.2-5c-0.2-1.3-0.4-2.7-0.8-4c-0.2,0-0.5,0-0.7-0.1c-0.9-0.9-1.8-1.8-2.6-2.8l-0.9-3.6l-1-3.8l-0.8-6
					c-0.2,0-0.5,0-1.2,0c-0.5-2.4-0.8-4.7-1.2-6.7c-0.2-1-0.4-1.9-0.6-2.9c-0.2-0.9-0.5-1.6-0.9-2.4c-0.6-2.7-1.2-5.4-1.9-8.1
					l-2.3-8.2c-0.1-0.4-0.2-0.9-0.3-1.2l-0.4-1.2l-0.8-2.4l-1.6-4.9c-0.2-0.9-0.5-1.6-0.9-2.4l-0.9-2.4l-1.7-4.8
					c-1-2.8-2.2-5.5-3.3-8.3c-0.5-1.4-1.2-2.7-1.8-4.1l-1.9-4.1c-1.1-2.4-2.3-4.7-3.5-7.1l-1.8-3.5c-0.6-1.2-1.3-2.2-1.9-3.4
					c-0.8-2.2-1.8-4.3-2.9-6.3c-1.4-2.4-3-4.7-4.7-6.9l-2.9-2.1l-2.2-2.9c2,1.2-0.2-1.9-0.6-2.9c-0.4-0.5-0.9-1-1.2-1.6l-1.3-1.5
					c-0.9-0.9-1.8-1.9-2.6-2.8c-0.5-1.4-0.9-2.6-1.3-3.9c-1.2-1.5-2.6-2.8-3.8-4.2l-1.9-2.1c-0.6-0.7-1.2-1.4-1.9-2.1
					c-1-1.2-2.2-2.2-3.5-3l-0.4-0.5l-0.9-1.1l-1.1-1.2l-4.8-4.5l-1.2-1.1l-1.2-1.1l-2.4-2.1c-1.2-1.2-2.4-2.5-3.7-3.6l-1.5-1.3
					c0.9,0.2,1.7,0.5,2.7,0.9l0.9-0.2l-1.9-1.6c-0.6-0.5-1.2-1-1.9-1.5c-3.1-2.2-4.3-2.6-5.4-2.8l-0.6-0.1c-1.6-1.3-3.4-2.6-5-3.8
					c-0.8-0.5-1.5-1.2-2.2-1.6l-2.3-1.6l-4.6-3.1l-1.2-0.8l-1.1-0.7l-0.5-0.3l-1.5-2.3c-3-1.6-5.9-3.1-9-4.7
					c-3.3-1.6-6.8-3.3-10.2-4.9l-2.3-0.9l-1-0.5c-1.3-0.5-2.6-1.1-3.9-1.6l-4.5-1.8c0.5-1.3-5.8-3.1-7.9-3.3c-0.9-0.3-1.9-0.7-2.9-1
					l-0.3-0.1l-0.3-0.2l-0.4-0.1l-2-0.6L285-0.8c-1.9-0.5-4-0.9-6-1.5l-2.9-0.7c-1-0.2-2-0.5-3-0.6l-6-1.3c-0.4-0.5-0.9-0.7-1.6-0.9
					c-0.5-0.2-0.9-0.3-1.4-0.4c-0.5-0.1-1.1-0.2-1.6-0.2c-1.2-0.2-2.6-0.3-3.7-0.3l0.9-0.9c2.6,0.4,5.3,0.8,7.6,1.2l6.7,1.6l3.3,0.8
					l3.4,0.9c0.3-0.2,0.6-0.5,0.9-0.7c1.4,0.2,2.7,0.5,3.9,0.8l2.2,0.9c0.7,0.3,1.4,0.7,2.1,1l4.2,2.1c1,0.1,2,0.1,3,0.2
					c0.9,0.2,1.6,0.4,2.3,0.6l1.9,0.5c1.2,0.3,2.1,0.5,2.8,0.6c1.5,0.2,2.1,0.1,2.2-0.5c2.2,0.6,4.3,1.4,6.4,2.1
					c3.2,1.4,6.7,3.1,11.4,5.1c1.1,1,2.3,1.9,3.7,2.5c1,0.5,2.2,1.2,3.5,1.8c0.7,0.3,1.3,0.6,2,1l2.2,1.1c-0.9-1.2-2.2-2.2-3.6-2.9
					c-0.8-0.4-1.6-0.9-2.6-1.3l1.6,0.6c-0.8-0.8-1.6-1.4-2.6-1.9c-1.2-0.6-2.5-1.3-4-2c-1.6-0.7-3.3-1.5-5-2.2
					c-1.8-0.7-3.8-1.4-5.8-2.1l-1.7-0.7c-1.2-0.7-2.4-1.3-3.6-1.9c-1.4-0.7-2.8-1.4-4.3-1.9c-1.9-0.8-3.9-1.2-5.9-1.5l-0.2-0.1
					l-2.2-0.8c-0.9-0.2-1.8-0.3-2.6-0.5l-1,0.7c-1.8-0.5-3.3-1.1-5.1-1.6C286-4.5,285-4.9,284-5.2c0.7,0.2,1.5,0.3,2.2,0.5
					c1.6,0.3,3.5,0.7,5.4,0.9l-3.9-1.6l-1.9-0.8c-0.7-0.2-1.3-0.5-2-0.7c0.2-0.3,0.2-0.6,0.4-0.9c0-0.1,0.1-0.2,0.1-0.2
					c-1.2-0.4-2.5-0.8-3.7-1.2l-3.1-0.7c-1-0.2-2-0.5-3.1-0.7c-2.9-0.5-1.9,0.6-4.1,0.7c-1.2-0.4-2.2-0.9-3.3-1.6
					c-0.6-0.3-1.3-0.6-2-0.8c-1-0.2-2.1-0.4-3.1-0.5c-2.4-0.2-5-0.5-7.7-0.8L247-14c0,0.1-0.1,0.2-0.1,0.2c-0.9,0.1-1.9,0.2-2.7,0.2
					l-2.7,0.4l-5.4-0.2l-2.7-0.1c-0.9,0-1.9,0-2.7,0.1c-1.9,0-3.6,0.1-5.4,0.1h-1c0,0,0-0.1,0.1-0.1c-1.4-0.5-2.9-0.7-4.4-0.6
					c-1.5,0.1-2.9,0.3-4.3,0.8l-4,0.2c-1.3,0.1-2.6,0.2-4,0.4L206-12c-2,0.2-4,0.5-5.9,0.8c-1.2-0.2-1.2-0.5-2.4-0.6l-6.6,0.9
					l-1.7,0.3c-0.5,0.1-1.1,0.2-1.6,0.3l-3.2,0.7c-3.5,0.8-7.5,1.6-7.4,0.9c-1.6,0.5-3.5,0.9-5.7,1.5c-1.2,0.3-2.4,0.6-3.9,1.1
					c-1.5,0.5-2.9,1.1-4.7,1.8l-3.3,1.6c-1.1,0.5-2.2,1-3.3,1.6c-1,0.3-4.8,0.9-7.7,3.3c0.2,0.1,0.5,0.2,0.8,0.2
					c-6.7,2.8-13.3,5.9-19.7,9.4c-2,0.6-3.2,0.5-5.8,2.2c-1.6,1.2-4.3,2.8-5.1,4.2l-5,2.7l-4.7,2.9l-3.5,2.2
					c-1.2,0.8-2.2,1.6-3.4,2.4l-3.3,2.5c-1.1,0.9-2.2,1.6-3.3,2.6l-6,4.7c-0.8,0.8-1.5,1.5-2.2,2.2l-2.2,2.5
					c-1.3,1.3-2.7,2.6-4.1,3.9l-4,4.2c-1,1-2.3,2.1-3.3,3.3c-0.9,1-1.9,2.1-2.6,3.3c-1.9,1.9-3.7,3.7-5.3,5.5c1.4-2.4-1-0.8,0.2-3.3
					c-1.3,0.9-3.3,3.9-4.9,5.7c-0.9,1.7-1.8,3.2-2.6,5L57.8,71c0-1.2-1.5,0.4-2.4,1.3c-0.8,1.1-1.6,2.2-2.4,3.5
					c-1.1,1.8-2,3.6-2.9,5.4c-1.6,2.1-2.6,3-3.4,4c-1.6,2.9-4.6,7-4.8,9.2l-3.4,7.1l-1.1,1.9c-0.4,0.6-0.7,1.3-1,2l-1.9,4
					c-0.8,1.2-1.5,2.4-2,3.7c-0.6,1.6-1.2,3.2-1.8,4.6l-0.7,3.3c-0.2,1.1-0.5,2.2-0.6,3.3l-2.8,8.2c-0.5,1.3-0.8,2.6-1.2,4l-1.1,4
					l-0.1,0.4c-0.9,0.4-1.1-0.8-2.5,0.6l-2.2,9.4c-0.2,0.5-0.2,1.1-0.4,1.6l-0.3,1.5l-0.5,2.6c-0.3,1.7-0.7,3.3-1.2,5L17,163
					l-0.2,1.5l-0.2,2.9c-0.5,2.4-1.1,4.9-1.5,7c-0.3,1.6-0.5,3.1-0.5,4.7c-0.5,2.7-0.7,5.6-0.5,8.4c0.1,1.3,0.1,2.7,0.1,4.5
					c0,0.9,0,1.9,0,2.9l-0.1,1.7c0,0.4,0,0.8,0,1.2c-0.1,0.9-0.1,1.8-0.1,2.7c0,2.6,0.1,5.4,0.2,8.1c0.1,2.8,0.4,5.6,0.5,8.3
					c0.5,1.9,1,3.6,1.7,5.5l0.8,7.7c0.1,1.2,0.3,2.6,0.5,3.8l0.6,3.8c-0.3,0.2-0.5,1.2-0.4,2.3c0.1,1.4,0.2,2.8,0.7,4.1
					c0.8,1.2,1.5,4.3,2.2,7.8c0.8,3.4,2.2,6.8,3.7,8.7c0.3,1,0.6,2.3,1.1,3.6l1.6,4.8c0.9,2-0.6-3.7,0.2-1.6
					c0.8,1.6,1.6,3.8,2.5,5.7c0.9,1.9,1.8,3.4,2.3,3.6c-0.2-1.5-0.5-2.9-1.2-4.3c-0.7-1.6-1.8-4-3.5-8.5c0.2-1.6-0.7-5.1-1.8-8.9
					L25,252c-0.2-1-0.5-1.9-0.7-2.9c-0.4-1.7-0.7-3.5-0.9-5.2c-0.9-2.3-1.6-5-2.4-7.6c-0.5-3.4-0.9-5.3-1.2-7.4
					c-0.7-3.2-1.4-6.1-2-9.1c0.8,1.2,0.6-4.7,1.2-4.9l-0.4-5.2c-0.1-1.6-0.1-3.2-0.2-4.7c0.5,0.1,0.9,0.1,1.4,0
					c0.5,0.4,0.7,0.5,1.2-4.3c0.5-1.2,0.9-2.7,1.4-4c0.4,0,0.7,0,1.1,0.1c-0.5,0.9-0.6,3.7-0.5,7c0,1.7,0.2,3.4,0.3,5
					c0.2,1.3,0.4,2.7,0.8,4c0.2,0,0.5,0,0.7,0.1c0.9,0.9,1.8,1.8,2.6,2.8l0.9,3.6l1.1,3.8l0.8,6c0.2,0,0.5,0,1.2,0
					c0.5,2.3,0.8,4.7,1.2,6.7c0.2,1,0.4,1.9,0.6,2.9c0.2,0.9,0.5,1.6,0.9,2.4c0.6,2.7,1.2,5.4,1.9,8.1l2.3,8.2
					c0.1,0.4,0.2,0.9,0.3,1.2l0.4,1.2l0.8,2.4l1.6,4.9c0.2,0.9,0.5,1.6,0.9,2.4l0.9,2.4l1.7,4.8c1,2.8,2.2,5.5,3.3,8.3
					c0.5,1.4,1.2,2.7,1.8,4.1l1.9,4.1c1.1,2.4,2.3,4.7,3.5,7.1l1.8,3.5c0.6,1.2,1.3,2.2,1.9,3.4c0.8,2.2,1.8,4.3,2.9,6.3
					c1.4,2.4,3,4.7,4.7,6.9l2.9,2.1l2.1,2.9c-2-1.2,0.2,1.9,0.6,2.9c0.5,0.5,0.9,1,1.2,1.6l1.3,1.5c0.9,0.9,1.8,1.9,2.6,2.8
					c0.5,1.4,0.9,2.6,1.3,3.9c1.2,1.5,2.6,2.8,3.8,4.2l1.9,2c0.6,0.7,1.2,1.4,1.9,2.1c1,1.2,2.2,2.2,3.5,3l0.4,0.5l0.9,1.2l1.1,1.2
					l4.8,4.5l1.2,1.2l1.2,1.1l2.5,2.1c1.2,1.2,2.4,2.5,3.7,3.6l1.5,1.3c-0.9-0.2-1.7-0.5-2.7-0.9l-0.9,0.2l2,1.6
					c0.6,0.5,1.2,1,1.9,1.5c3.1,2.2,4.3,2.6,5.4,2.8l0.6,0.1c1.7,1.3,3.3,2.6,5,3.8c0.8,0.5,1.5,1.2,2.2,1.6l2.3,1.6l4.6,3.1
					l1.1,0.8l1.2,0.7l0.5,0.3l1.5,2.3c3,1.6,5.9,3.1,9,4.7c3.3,1.6,6.8,3.3,10.2,4.9l2.3,0.9l1,0.5c1.3,0.5,2.6,1,3.9,1.6l4.5,1.8
					c-0.5,1.3,5.7,3.1,7.9,3.3c0.9,0.3,1.9,0.7,2.9,1l0.3,0.1l0.3,0.2l0.4,0.1l2,0.6l5.9,1.7c1.9,0.5,4,0.9,6,1.5l2.9,0.7
					c1,0.2,2,0.5,3,0.6l6,1.3c0.4,0.5,0.9,0.7,1.6,0.9c0.5,0.2,0.9,0.3,1.4,0.4c0.5,0.1,1.1,0.2,1.6,0.2c1.2,0.2,2.6,0.3,3.7,0.3
					l-0.9,0.9c-2.6-0.4-5.3-0.8-7.6-1.2l-6.7-1.6l-3.3-0.8l-3.4-0.9c-0.3,0.2-0.6,0.5-0.9,0.7c-1.4-0.2-2.7-0.5-3.9-0.8l-2.2-0.9
					c-0.7-0.3-1.4-0.7-2.1-1l-4.2-2.1c-1-0.1-2-0.2-3-0.2c-0.9-0.2-1.6-0.4-2.3-0.6l-1.9-0.5c-1.2-0.3-2.1-0.5-2.8-0.6
					c-1.5-0.2-2.1-0.1-2.2,0.5c-2.2-0.6-4.3-1.4-6.4-2.1c-3.2-1.4-6.7-3.1-11.4-5.1c-1.2-1-2.4-1.9-3.7-2.5c-1-0.5-2.2-1.2-3.6-1.8
					c-0.7-0.3-1.3-0.6-2-1l-2.2-1.1c0.9,1.2,2.2,2.2,3.6,2.9c0.8,0.4,1.6,0.9,2.6,1.3l-1.6-0.6c0.8,0.8,1.6,1.4,2.6,1.9
					c1.1,0.6,2.5,1.3,4,2c1.6,0.7,3.3,1.4,5,2.2s3.8,1.4,5.8,2.1l1.7,0.7c1.2,0.7,2.4,1.3,3.6,1.9c1.4,0.7,2.8,1.4,4.3,1.9
					c1.9,0.8,3.9,1.2,5.9,1.6l0.2,0.1l2.2,0.8c0.9,0.2,1.8,0.3,2.6,0.5l1-0.7c1.8,0.5,3.3,1.1,5.1,1.6c0.9,0.5,1.9,0.9,2.9,1.2
					c-0.7-0.2-1.5-0.2-2.2-0.5c-1.6-0.3-3.5-0.7-5.4-0.9l4,1.6l2,0.8c0.7,0.2,1.3,0.5,2,0.7c-0.2,0.3-0.2,0.6-0.4,0.9
					c0,0.1-0.1,0.2-0.1,0.2c1.2,0.4,2.5,0.8,3.7,1.2l3.1,0.7c1,0.2,2,0.5,3.1,0.7c2.9,0.5,1.9-0.6,4.1-0.7c1.2,0.4,2.2,0.9,3.3,1.6
					c0.6,0.3,1.3,0.6,2,0.8c1,0.2,2.1,0.4,3.1,0.5c2.4,0.2,5,0.5,7.7,0.8l7.4,0.4c0-0.1,0.1-0.2,0.1-0.2c0.9-0.1,1.9-0.2,2.7-0.2
					l2.7-0.4l5.4,0.2l2.7,0.1c0.9,0,1.9,0,2.7-0.1c1.9,0,3.6-0.1,5.4-0.1h0.9c0,0,0,0.1-0.1,0.1c1.4,0.5,2.9,0.7,4.4,0.6
					c1.5-0.1,2.9-0.3,4.3-0.8l4-0.2c1.3-0.1,2.6-0.2,4-0.4l1.7-0.5c2-0.2,4-0.5,5.9-0.8c1.2,0.2,1.2,0.5,2.4,0.6l6.7-1.2l1.6-0.3
					c0.5-0.1,1.1-0.2,1.6-0.4l3.2-0.7c3.5-0.8,7.5-1.6,7.4-0.9c1.6-0.5,3.5-0.9,5.7-1.5c1.2-0.3,2.4-0.6,3.9-1.1
					c1.5-0.5,2.9-1.1,4.7-1.8l3.3-1.6c1.2-0.5,2.2-1,3.3-1.6c1-0.3,4.8-0.9,7.7-3.3c-0.2-0.1-0.5-0.2-0.8-0.2
					c6.7-2.8,13.3-5.9,19.7-9.4c2-0.6,3.2-0.5,5.8-2.2c1.6-1.2,4.3-2.8,5.1-4.2l5-2.8l4.7-2.9l3.5-2.2c1.2-0.8,2.2-1.6,3.4-2.4
					l3.3-2.5c1.1-0.9,2.2-1.6,3.3-2.6l6.1-4.7c0.8-0.8,1.5-1.5,2.2-2.2l2.2-2.5c1.3-1.3,2.7-2.6,4.1-3.9l4-4.2
					c1.1-1,2.3-2.1,3.3-3.3c0.9-1,1.9-2.1,2.6-3.3c1.9-1.9,3.7-3.7,5.3-5.5c-1.4,2.4,1,0.8-0.2,3.3c1.3-0.9,3.3-3.9,4.9-5.7
					c0.9-1.7,1.8-3.2,2.6-5l0.6-0.9c0,1.2,1.5-0.4,2.4-1.3c0.8-1.1,1.6-2.2,2.4-3.5c1.1-1.8,2-3.6,2.9-5.4c1.6-2.1,2.6-3,3.4-4
					c1.6-2.9,4.6-7,4.8-9.2l3.4-7.1l1.1-1.9c0.4-0.6,0.6-1.3,1-1.9l1.9-4c0.8-1.2,1.5-2.4,2-3.7c0.6-1.6,1.2-3.2,1.8-4.6l0.7-3.3
					c0.2-1.1,0.5-2.2,0.6-3.3l2.6-8.1c0.5-1.3,0.8-2.7,1.2-4l1.1-4l0.1-0.4c0.9-0.4,1.1,0.8,2.5-0.6l1.6-9.2
					c0.2-0.5,0.2-1.1,0.4-1.6l0.3-1.5l0.5-2.6c0.3-1.7,0.7-3.3,1.2-5l0.2-1.4l0.2-1.5l0.2-2.9c0.5-2.4,1-4.9,1.5-7
					c0.3-1.6,0.5-3.1,0.5-4.7C452.9,224.1,453.1,221.3,452.9,218.5z M251.2-11.3c1.2,0,2.6-0.1,4,0c1.5,0.1,3.1,0.1,5,0.1l4.4,0.7
					c1.5,0.2,2.9,0.6,4.3,0.9l4.3,0.9l2.2,0.5l2.2,0.5c0.4,0.5,0.9,0.8,1.6,0.9h-0.1c-3.3-0.6-7.1-1.1-10.6-1.6
					c-2.2-0.5-4.6-0.7-6.9-1.1c-2.3-0.4-4.7-0.8-6.9-0.9c-2.8-0.2-5.5-0.4-8-0.5c-0.6-0.1-1.3-0.1-1.9-0.1l0.4-0.2
					C246.8-11.3,248.8-11.3,251.2-11.3z M48,88.6l-0.2,0.3l-0.2,0.2c0.2-0.4,0.5-0.7,0.7-1.1C48.1,88.2,48.1,88.3,48,88.6z
					 M63.9,305.9l-1.8-2c-0.6-0.7-1.2-1.4-1.8-2.1l-1.2-2.2l-2.3-4.5l-0.6-1.2l-0.5-1.2l-1.2-2.4l-2.3-4.9c-0.7-1.6-1.4-3.3-2.1-5
					c-0.7-1.7-1.4-3.3-2.1-5l-1.9-5c-1.3-3.3-2.2-6.7-3.3-9.8c-0.3-0.3-0.6-0.7-0.9-1.1c-0.2-0.6-0.5-1.3-0.6-2l-0.6-2.4
					c-0.4-1.8-0.9-4-1.6-7.1l1.6-0.2c-0.2-1.9-0.4-3.9-0.6-5.8c-0.6-1.9-1-3.6-1.7-4.5c-0.2-2.6-0.6-5.6-1.1-8.7
					c-0.5-3.1-0.7-6.4-1.2-9.5c-0.2-0.8-0.2-1.6-0.2-2.3l-0.2-2.2c-0.2-1.5-0.3-2.9-0.5-4.3l-0.3-1.9l-0.2-1.8
					c-0.1-0.5-0.1-0.9-0.2-1.2c0.2,0.4,0.4,0.7,0.7,0.9c0-2,0-4,0.1-6c0.1-0.9,0.2-1.7,0.5-2.6c0.2-0.5,0.5-0.8,0.6-1.2
					c0.4-0.8,0.7-1.9,0.9-5.8c-0.2-0.5-0.4-0.9-0.4-1.5c-0.1-0.9-0.1-1.6-0.1-2.5c0-1.7,0-3.3-0.5-3.4c0.2-2.2,0.5-4.3,0.8-6.2
					l1.2-5.6c0.6-3.6,1.6-7,2.1-10.5c0.6-2.7,1.1-4.7,1.5-6.6c0.4-1.9,0.6-3.5,1.2-5.6c0-1.8,2.8-6.9,1.6-6.3
					c2.8-10.1,6.7-18.9,11.2-27.9c-1.3-0.5-0.1-3,1.9-5.8c1.9-2.8,4.1-6.1,4.7-8.3c0.9-0.8,1.8-1.6,2.4-2.7c0.4-0.5,0.8-1.2,1.2-1.9
					l0.6-1l0.6-1c0.9-1.4,1.7-2.8,2.7-4.1c0.5-0.7,1-1.3,1.5-1.9c0.5-0.6,1-1.2,1.6-1.6c1.8-2.5,3.6-5,5.7-7.6c2-2.6,4.1-5,6.3-7.4
					c2.2-2.5,4.4-4.7,6.7-7c2.2-2.2,4.6-4.3,6.7-6.2c1.3-1.2,2.6-2.4,3.9-3.6l2-1.8c0.6-0.6,1.3-1.2,2-1.7c1.4-1.1,2.8-2.2,4.3-3.3
					l2.2-1.6c0.7-0.5,1.5-1,2.2-1.6c3-2,6.1-4.2,9.5-6.1l5-3l5.4-2.9c0.1-0.7,2.6-1.9,3.3-2.8l8.6-4.2l8.9-3.9l7.9-3
					c1.4-0.5,2.9-0.9,4.3-1.5l4.5-1.4c6-1.8,12.3-3.3,17.6-4.3c0.9-0.4,1.9-0.7,2.9-0.9c1.2-0.3,2.2-0.6,2.3-1.3
					c1.7,0.1,3.5,0,5.2-0.2c1.1-0.2,2.1-0.3,3.2-0.5c1.2-0.2,2.3-0.5,3.5-0.9c1.7,0,3.3-0.1,5-0.3c1.7-0.2,3.1-0.2,2.9,0.3
					c1.6-0.2,4.8,0,4.8-0.5c1.1-0.2,2.2-0.4,3.4-0.4c1.3-0.1,2.7,0.1,4,0c2.2-0.2,4-0.5,6.4-0.7c-0.8,0.5,0.5,0.7,2,0.8
					c1.2,0.2,2.3,0.1,3.5-0.1c1.4-0.2,2.8-0.2,4.2-0.1h1.2c0.4,0,0.9,0,1.2,0c0.8,0,1.6-0.2,2.2-0.4l1.2,0.2c1.5,0.5,3.1,1,4.7,1.2
					c1.2,0.3,2.4,0.2,3.5-0.1c1.3,0.2,2.3,0.6,3.6,0.9c2.1,0.2,4.1,0.3,6.2,0.2c1.3,0.2,2.6,0.4,3.6,0.5c-1.9,0.4,1.9,0.9,1.3,1.5
					c2.3,0.2,4.7,0.6,6.9,1.2c2.5,0.6,5.2,1.2,7.8,2.2l4,1.2c1.3,0.4,2.6,0.8,3.8,1.2c2.2,0.8,4.4,1.5,6.7,2
					c1.5,0.5,2.9,1.2,4.3,1.8l4.3,1.9c0.9,0.3,1.9,0.8,2.8,1.2c0.9,0.7,1.9,1.3,2.9,1.6l0.9,0.2h0.1c1.2,0.5,2.3,1.1,3.5,1.6
					c0.8,0.3,1.5,0.6,2.2,0.9c0.6,0.5,1.2,1,1.7,1.6c0.8,1,1.7,1.9,2.8,2.7c0.9,0.6,1.7,1.1,2.6,1.6c1.1,0.5,2.4,1.1,4,1.9
					c3.1,1.6,6,3.6,8.8,5.8c2.4,2,4.6,4,6.4,5.7c1,1.1,2,2.1,3.2,2.9c1,0.7,1.9,1.2,2.7,1.8c1.9,1,3.6,2.2,5.3,3.5
					c0,0.3,0.5,0.9,1,1.5s0.9,1.2,0.7,1.3c1.2,1.1,3.3,3.4,3.4,2.9c0.9,0.5,1.6,1.2,2.3,1.9c0.5,0.6,1.1,1.2,1.6,1.9
					c0.9,1.4,2,2.7,3.2,3.9c0.9,0.6,1.5,1.4,1.9,2.3c0.2,0.5-0.1,0.7-0.4,0.6l5,5.8c-0.5,0.2,2.7,4,5.5,7.5c1.2,2.2,4.5,6.1,3.9,6.7
					c1.1,1.5,1.9,2.9,3.1,4.7l2.3,3.7c0.9,1.6,1.8,3.3,2.6,4.9l1.3,2.5l0.7,1.2l0.6,1.2c1.7,4.2,3.2,7.1,4.4,10.1l2,4.7
					c0.7,1.7,1.3,3.6,2,5.7c-0.4,0.3-0.3,1-0.2,2c0.1,0.5,0.2,1,0.3,1.6c0.2,0.6,0.2,1.2,0.2,1.9l-1.2,0.2c0.2,2.4,1.1,5,2.1,7.6
					c1,2.6,1.7,5.4,2.2,8.1c1.3,2.9,2.2,10.9,3.3,10.6c0.4-1.4-0.4-4-0.9-6.5l-0.2-3.9c-0.1-1.3-0.3-2.6-0.5-3.9
					c0.5-0.1,0.9-0.1,1.4-0.2c0.5,0.9,0.9,1.5,1.3,2.2c0.8,2.2,1.3,4.3,2,6.6c0.2,1,0.5,2.2,0.8,3.5c0.2,1.1,0.5,2.2,1,3.2l0.8,4.4
					c0.2,1.6,0.3,3.3,0.5,5l0.5,5c0.2,0.8,0.2,1.6,0.2,2.5l0.2,2.6l0.5,5c-0.4,1.9-0.1,5.4,0.4,10.2c0.2-3.3,0.2-6.5,0.3-10.1
					l-0.3-6.2l-0.2-3.1l-0.3-3.1l-0.4-3.3l-0.1-2.2l-0.1-1.1l-0.1-1.1c-0.2-1.5-0.3-2.9-0.5-4.3c-0.2-1.5-0.4-2.9-0.7-4.5
					c-0.3-1.6-0.7-3.1-1.1-4.7l-0.4-3.9c-0.2-1.2-0.4-2.6-0.5-3.8c0.5-0.1,0.9-0.1,1.2-0.2l-0.9-4l-0.5-1.9l-0.5-1.9
					c-0.8-2.6-1.6-5.1-2.3-7.8c-0.8-2.1-1.6-4-2.2-5.9l-1-2.6l-1-2.6l-1.9-5.1c-0.3-0.9-0.7-1.7-1-2.6l-1.2-2.6
					c-0.6-1.2-1.2-2.3-1.8-3.4l-0.4-0.9l-0.5-0.9l-0.9-1.7c-0.5-1.2-1.2-2.2-1.6-3.4l-0.5-1.2c0.9,0.7,1.7,1.2,2.6,1.9l1.8,2
					c0.6,0.7,1.2,1.4,1.8,2.1l1.2,2.2l2.3,4.5l0.6,1.2l0.5,1.2l1.2,2.4l2.3,4.9c0.7,1.6,1.4,3.3,2.1,5c0.7,1.7,1.4,3.3,2.1,5l1.9,5
					c1.3,3.3,2.2,6.7,3.3,9.8c0.3,0.3,0.6,0.7,0.9,1.1c0.2,0.6,0.5,1.3,0.6,2l0.6,2.4c0.4,1.8,0.9,4,1.6,7.1l-1.6,0.2
					c0.2,1.9,0.4,3.9,0.6,5.8c0.6,1.9,1,3.6,1.7,4.5c0.2,2.6,0.6,5.6,1.1,8.7c0.5,3.1,0.7,6.4,1.2,9.5c0.2,0.8,0.2,1.6,0.2,2.3
					l0.2,2.2c0.2,1.5,0.3,2.9,0.5,4.3l0.3,1.9l0.2,1.9c0.1,0.5,0.1,0.9,0.2,1.2c-0.2-0.4-0.4-0.7-0.7-0.9c0,2,0,4-0.1,6
					c-0.1,0.9-0.2,1.7-0.5,2.6c-0.2,0.5-0.5,0.8-0.6,1.2c-0.4,0.8-0.7,1.9-0.9,5.8c0.2,0.5,0.3,1,0.3,1.5c0.1,0.9,0.1,1.6,0.1,2.5
					c0,1.7,0,3.3,0.5,3.4c-0.2,2.2-0.5,4.3-0.8,6.2l-1.2,5.6c-0.6,3.6-1.6,7-2.1,10.5c-0.6,2.7-1.1,4.7-1.5,6.6
					c-0.4,1.9-0.6,3.5-1.2,5.6c0,1.8-2.8,6.9-1.6,6.3c-2.5,10-6.4,18.8-10.9,27.8c1.3,0.5,0.1,3-1.9,5.8s-4.1,6.2-4.7,8.3
					c-0.9,0.8-1.8,1.6-2.4,2.7c-0.4,0.5-0.8,1.2-1.2,1.9l-0.6,1l-0.6,1c-0.9,1.4-1.7,2.8-2.7,4.1c-0.5,0.7-1,1.3-1.5,1.9
					c-0.5,0.6-1,1.2-1.6,1.6c-1.8,2.5-3.6,5-5.7,7.6c-2,2.6-4.1,5-6.3,7.4c-2.2,2.4-4.4,4.7-6.7,7s-4.6,4.3-6.7,6.2
					c-1.3,1.2-2.6,2.4-3.9,3.6l-2,1.8c-0.7,0.6-1.3,1.2-2,1.7c-1.4,1.1-2.8,2.2-4.3,3.3l-2.2,1.6c-0.7,0.5-1.5,1-2.2,1.6
					c-3,2-6.1,4.2-9.5,6.1l-5,3l-5.4,2.9c-0.1,0.7-2.6,1.9-3.3,2.8l-8.6,4.2l-8.9,3.9l-7.9,3c-1.4,0.5-2.9,0.9-4.3,1.5l-4.4,1.5
					c-6,1.8-12.3,3.3-17.6,4.3c-0.9,0.4-1.9,0.7-2.9,0.9c-1.2,0.3-2.2,0.6-2.3,1.3c-1.7-0.1-3.5,0-5.2,0.2c-2.2,0.3-4.4,0.8-6.6,1.4
					c-1.7,0-3.3,0.1-5,0.3c-1.7,0.2-3.1,0.2-2.9-0.3c-1.6,0.2-4.8,0-4.8,0.5c-1.1,0.2-2.2,0.4-3.4,0.4c-1.3,0.1-2.7-0.1-4,0
					c-2.2,0.2-4,0.5-6.4,0.7c0.8-0.5-0.5-0.7-2-0.8c-1.2-0.2-2.3-0.1-3.5,0.1c-1.4,0.2-2.8,0.2-4.2,0.1h-1.2c-0.4,0-0.9,0-1.2,0
					c-0.8,0-1.6,0.2-2.2,0.4l-1.2-0.2c-1.5-0.5-3.1-1-4.7-1.2c-1.2-0.3-2.4-0.2-3.6,0.1c-1.3-0.2-2.3-0.6-3.6-0.9
					c-2.1-0.2-4.1-0.3-6.2-0.2c-1.3-0.2-2.6-0.4-3.6-0.5c1.9-0.4-1.9-0.9-1.3-1.5c-2.3-0.2-4.7-0.6-6.9-1.2
					c-2.5-0.6-5.2-1.2-7.8-2.2l-4-1.2c-1.3-0.4-2.6-0.8-3.8-1.2c-2.2-0.8-4.4-1.5-6.7-2c-1.5-0.5-2.9-1.2-4.3-1.8l-4.3-1.9
					c-0.9-0.3-1.9-0.8-2.8-1.2c-0.9-0.7-1.9-1.3-2.9-1.6l-0.9-0.2h-0.1c-1.2-0.5-2.3-1.1-3.5-1.6c-0.8-0.3-1.5-0.6-2.2-0.9
					c-0.6-0.5-1.2-1.1-1.6-1.6c-0.8-1-1.7-1.9-2.8-2.7c-0.9-0.6-1.7-1.1-2.6-1.6c-1.1-0.5-2.4-1.1-4-1.9c-3.1-1.6-6-3.6-8.8-5.8
					c-2.4-2-4.6-3.9-6.4-5.7c-1-1.1-2-2.1-3.2-2.9c-1-0.7-1.9-1.2-2.7-1.8c-1.9-1-3.6-2.2-5.3-3.5c0-0.3-0.5-0.9-1-1.5
					c-0.5-0.5-0.9-1.2-0.7-1.3c-1.2-1.1-3.3-3.4-3.4-2.9c-0.9-0.5-1.6-1.2-2.3-1.9c-0.5-0.6-1.1-1.2-1.6-1.9c-0.9-1.4-2-2.7-3.2-3.9
					c-0.9-0.6-1.5-1.4-1.9-2.3c-0.2-0.5,0.1-0.7,0.4-0.6l-5-5.8c0.5-0.2-2.7-4-5.5-7.5c-1.2-2.2-4.5-6.1-3.9-6.7
					c-1.1-1.5-1.9-2.9-3.1-4.7l-2.3-3.7c-0.9-1.6-1.8-3.3-2.6-4.9l-1.4-2.3l-0.7-1.2l-0.6-1.3c-1.7-4.2-3.2-7.1-4.4-10.1l-2-4.7
					c-0.7-1.7-1.3-3.6-2-5.7c0.4-0.3,0.3-1,0.2-1.9c-0.1-0.5-0.2-1-0.2-1.6c-0.1-0.6-0.2-1.2-0.2-1.9l1.2-0.2
					c-0.2-2.4-1.1-5-2.1-7.6c-1-2.6-1.7-5.4-2.2-8.1c-1.3-2.9-2.2-10.9-3.3-10.6c-0.4,1.4,0.4,4,0.9,6.5l0.2,3.9
					c0.1,1.3,0.3,2.6,0.5,3.9c-0.5,0.1-0.9,0.1-1.4,0.2c-0.5-0.9-0.9-1.5-1.3-2.2c-0.8-2.2-1.3-4.3-2-6.6c-0.2-1-0.5-2.2-0.8-3.5
					c-0.2-1.1-0.5-2.2-1-3.2l-0.8-4.4c-0.2-1.6-0.3-3.3-0.5-5l-0.5-5c-0.2-0.8-0.2-1.6-0.2-2.5l-0.2-2.6l-0.5-5
					c0.4-1.9,0.1-5.4-0.4-10.2c-0.2,3.3-0.2,6.5-0.3,10.1l0.3,6.2l0.2,3.1l0.3,3.1l0.4,3.3l0.1,2.2l0.1,1.1l0.1,1.1
					c0.2,1.5,0.3,2.9,0.5,4.3c0.2,1.5,0.4,2.9,0.7,4.5c0.3,1.6,0.7,3.1,1.1,4.7l0.4,3.9c0.2,1.2,0.4,2.6,0.5,3.8
					c-0.5,0.1-0.9,0.1-1.2,0.2l0.9,4l0.5,1.9l0.5,1.9c0.8,2.6,1.6,5.1,2.3,7.8c0.8,2.1,1.6,4,2.2,5.9l0.9,2.7l1,2.6l1.9,5.1
					c0.3,0.9,0.6,1.7,1,2.6l1.2,2.6c0.6,1.2,1.2,2.3,1.8,3.4l0.4,0.9l0.5,0.9l0.9,1.6c0.5,1.2,1.2,2.2,1.7,3.4l0.5,1.2
					C65.5,307,64.7,306.4,63.9,305.9L63.9,305.9z M215.9,417.2c-1.2,0-2.6,0.1-4,0c-1.5-0.1-3.2-0.1-5-0.1l-4.4-0.7
					c-1.5-0.2-2.9-0.6-4.3-0.9l-4.3-0.9l-2.2-0.5l-2.2-0.6c-0.4-0.5-0.9-0.8-1.5-0.9h0.1c3.3,0.6,7.1,1,10.6,1.6
					c2.2,0.5,4.6,0.8,6.9,1.1c2.3,0.3,4.7,0.8,6.9,0.9c2.8,0.2,5.5,0.4,8,0.5c0.6,0.1,1.3,0.1,1.9,0.1l-0.4,0.2
					C220.2,417.3,218.4,417.2,215.9,417.2L215.9,417.2z M419.1,317.4l0.2-0.3l0.2-0.2c-0.2,0.4-0.5,0.7-0.7,1.1
					C418.9,317.7,419,317.6,419.1,317.4L419.1,317.4z"/>
				<path class="st0" d="M372.1,43c2.1,1.8,4,3.3,6,5.1c0.5,0.5,1,1.1,1.4,1.7c0,0.8,1,2,2.6,3.4c1.6,1.4,3.7,3.1,5.8,4.9
					c3.9,4.1,5.2,5,6.4,4.6l-5.1-5.7c-0.8-1-1.6-1.9-2.3-2.9l-2.4-2.8L387,54c0.9,0.9,1.6,1.9,2.5,2.8l5,5.8
					c2.2,2.5,3.7,3.3,4.1,2.8c-1.1-1.5-2.2-2.9-3.3-4.4l-3.6-4.3c-0.8-1.9,0.7-0.9,0.9-1.2l-2.6-2.8c-0.9-0.9-1.8-1.8-2.7-2.7
					c-1.9-1.8-3.7-3.7-5.7-5.6l-6.2-5.6c-1-0.9-2.2-1.9-3.3-2.7l-3.3-2.7c-0.9-0.7-1.7-1.4-2.6-2l-3.1-2c-1.5-0.1-2.8,0.1-4.3,0.1
					l1.1,0.8L357,31C362.3,34.8,367.3,38.8,372.1,43z M380.7,46.6c1.4,1.6,2.8,3,4.2,4.6c-0.9-0.9-1.8-1.9-2.7-2.9l-1.4-1.5
					c-0.5-0.5-1-0.9-1.5-1.4c-0.5-0.5-1.2-1.1-1.8-1.6C378.7,44.6,379.7,45.5,380.7,46.6L380.7,46.6z"/>
				<path class="st0" d="M345.1,21.3c1.4,0.8,2.7,1.8,4.4,2.8c2,1.2,4.1,2.2,6.2,3.3c-1.2-1.4-2.6-2.6-4.1-3.5
					c-1.1-0.7-2.3-1.5-3.7-2.3c-1.4-0.9-3.2-1.7-5.1-2.6C342.4,18.9,344.5,20.4,345.1,21.3z"/>
			</g>
		</g>
	</g>
</g>
</svg>
