<?xml version="1.0" encoding="utf-8"?>
<!-- Generator: Adobe Illustrator 24.1.0, SVG Export Plug-In . SVG Version: 6.00 Build 0)  -->
<svg version="1.1" id="FLDSRC_SHAPE" xmlns="http://www.w3.org/2000/svg" xmlns:xlink="http://www.w3.org/1999/xlink" x="0px"
	 y="0px" viewBox="0 0 4500 4449.9" style="enable-background:new 0 0 4500 4449.9;" xml:space="preserve">
<style type="text/css">
	.st0{fill:#DB4E0E;}
</style>
<g transform="matrix(0.47703180212014135 0 0 0.4770318021201414 15 16.502632707252094)">
	<g id="Calque_2">
		<g id="Calque_1-2">
			<path class="st0" d="M1772.6,7990.4c-44-37.5-83.1-70-125.5-107.5c-11.4-11.4-21.2-22.8-29.3-35.8c0-16.3-21.2-40.7-53.8-71.7
				s-78.2-65.1-122.2-102.6c-81.5-86.3-109.2-105.9-133.7-96.1l109.2,120.5c16.3,21.2,32.6,40.7,48.9,60.3l52.2,58.6l-53.8-57
				c-17.9-17.9-34.2-39.1-52.2-58.6l-104.3-122.2c-45.6-52.1-78.2-68.4-86.4-58.6c22.8,30.9,45.6,61.9,70.1,92.8l75,89.6
				c16.3,39.1-14.7,19.5-19.6,24.4l53.8,58.6c17.9,19.5,37.5,39.1,57,57c39.1,39.1,78.2,78.2,120.6,117.3l130.4,117.3
				c21.2,19.5,45.6,39.1,68.5,57l70.1,57c17.9,14.7,35.9,29.3,55.4,42.3l58.7,40.7c31,1.6,58.7-1.6,89.6-1.6l-22.8-16.3l60.3-16.3
				C1979.6,8161.4,1873.7,8076.7,1772.6,7990.4z M1593.3,7913.8c-29.3-32.6-58.7-63.5-88-96.1c17.9,19.5,37.5,39.1,57,60.3
				l29.3,30.9c9.8,9.8,21.2,19.5,31,30.9c9.8,11.4,24.4,22.8,37.5,32.6C1635.7,7954.5,1612.9,7935,1593.3,7913.8L1593.3,7913.8z"/>
			<path class="st0" d="M2338.2,8446.4c-29.3-16.3-58.7-37.5-92.9-58.6c-42.4-24.4-86.4-47.2-130.4-68.4
				c24.4,29.3,53.8,55.4,86.4,74.9c22.8,14.7,48.9,30.9,78.2,48.9c29.3,17.9,66.8,35.8,107.6,55.4
				C2396.8,8495.2,2354.5,8464.3,2338.2,8446.4z"/>
			<path class="st0" d="M9296.2,4954.5c-1.6-27.7-1.6-57-1.6-94.5c0-17.9,0-39.1,0-61.9l1.6-35.8v-24.4c1.6-17.9,1.6-37.5,1.6-57
				c0-55.4-1.6-112.4-3.3-171c-1.6-58.6-8.1-117.3-11.4-174.3c-11.4-40.7-21.2-74.9-35.9-115.6l-16.3-161.2
				c-1.6-26.1-8.1-53.7-11.4-79.8l-13-79.8c6.5-4.9,9.8-24.4,8.1-48.9c-1.6-29.3-4.9-58.6-14.7-86.3c-16.3-24.4-31-91.2-47.3-162.9
				c-16.3-71.7-45.6-143.3-78.2-182.4c-6.5-21.2-13-48.9-22.8-76.5l-34.2-102.6c-17.9-42.3,13,78.2-3.3,34.2
				c-16.3-32.6-34.2-79.8-52.2-118.9c-17.9-39.1-37.5-71.7-48.9-74.9c3.3,30.9,11.4,61.9,26.1,91.2c14.7,34.2,37.5,84.7,73.3,177.5
				c-3.3,34.2,14.7,107.5,37.5,187.3l17.9,61.9c4.9,21.2,9.8,40.7,14.7,61.9c8.1,35.8,14.7,73.3,19.6,109.1
				c17.9,48.9,34.2,104.2,50.5,159.6c11.4,71.7,19.6,110.8,24.4,154.7c14.7,66.8,29.3,128.7,42.4,190.6
				c-16.3-24.4-13,99.3-26.1,102.6l6.5,109.1c1.6,32.6,1.6,66.8,3.3,99.3c-9.8-1.6-19.6-1.6-29.3,0c-9.8-8.1-13-11.4-24.4,89.6
				c-9.8,26.1-19.6,57-29.3,83.1c-8.1,0-14.7,0-22.8-1.6c9.8-17.9,13-78.2,11.4-146.6c0-35.8-3.3-71.7-4.9-105.9
				c-3.3-27.7-8.1-57-16.3-83.1c-4.9,0-9.8,0-14.7-1.6c-19.6-17.9-37.5-37.5-53.8-58.6l-17.9-76.5l-21.2-79.8l-16.3-127
				c-4.9,0-9.8,0-24.4,0c-9.8-50.5-16.3-97.7-24.4-140.1c-3.3-21.2-8.1-40.7-13-60.3c-4.9-17.9-11.4-34.2-17.9-50.5
				c-13-57-24.4-114-39.1-171l-48.9-172.6c-1.6-8.1-4.9-17.9-6.5-26.1l-8.1-26.1l-16.3-50.5l-32.6-102.6
				c-4.9-17.9-11.4-34.2-17.9-50.5l-19.6-50.5l-35.9-101c-21.2-58.6-45.6-115.6-70.1-174.3c-11.4-29.3-24.4-57-37.5-86.3l-39.1-86.3
				c-22.8-50.5-48.9-99.3-73.3-148.2l-37.5-73.3c-13-24.4-27.7-47.2-40.7-71.7c-16.3-45.6-37.5-89.6-60.3-131.9
				c-29.3-50.5-63.6-99.3-99.4-145l-61.9-44l-45.6-60.3c42.4,26.1-4.9-39.1-13-60.3c-8.1-11.4-17.9-21.2-26.1-32.6l-27.7-30.9
				c-17.9-19.5-37.5-39.1-55.4-58.6c-11.4-29.3-17.9-55.4-27.7-81.4c-26.1-30.9-53.8-58.6-79.9-87.9l-39.1-44
				c-13-14.7-26.1-29.3-40.7-44c-21.2-24.4-45.6-45.6-73.3-63.5l-8.1-9.8l-17.9-22.8l-22.8-24.4l-101.1-94.5l-26.1-22.8l-26.1-22.8
				l-50.5-44c-26.1-26.1-50.5-52.1-78.2-76.5l-31-27.7c17.9,4.9,35.9,11.4,57,19.5l17.9-4.9l-40.7-34.2
				c-13-11.4-26.1-21.2-39.1-30.9c-65.2-47.2-91.3-53.7-114.1-58.6l-13-1.6c-34.2-27.7-71.7-53.7-105.9-79.8
				c-16.3-11.4-31-24.4-47.3-34.2l-48.9-32.6l-96.2-65.1l-24.4-16.3l-22.8-14.7l-11.4-6.5l-31-48.9
				c-63.6-34.2-123.9-65.1-189.1-97.7c-68.5-32.6-143.4-70-213.5-102.6l-48.9-19.5l-21.2-9.8c-27.7-11.4-53.8-22.8-81.5-32.6
				l-94.5-37.5c9.8-27.7-122.2-65.1-166.2-70c-19.6-6.5-40.7-14.7-60.3-21.2l-6.5-1.6l-6.5-3.3l-8.1-1.6l-42.4-13l-123.9-35.8
				c-40.7-11.4-83.1-19.5-125.5-30.9l-61.9-14.7c-21.2-4.9-42.4-9.8-63.6-13l-125.5-27.7c-8.1-9.8-19.6-14.7-32.6-17.9
				c-9.8-3.3-19.6-6.5-29.3-8.1c-9.8-1.6-22.8-3.3-34.2-4.9c-26.1-3.3-53.8-6.5-78.2-6.5l17.9-17.9c55.4,8.1,110.8,16.3,159.7,26.1
				l141.8,32.6l70.1,16.3l71.7,19.5c6.5-4.9,13-9.8,19.6-14.7c29.3,4.9,57,11.4,81.5,16.3l45.6,19.5c14.7,6.5,29.3,14.7,44,21.2
				l88,44c21.2,1.6,42.4,1.6,63.6,4.9c17.9,4.9,34.2,8.1,48.9,13l40.7,11.4c24.4,6.5,44,11.4,58.7,13c31,4.9,44,1.6,47.3-9.8
				c45.6,13,89.6,29.3,135.3,44c66.8,29.3,140.2,65.1,239.6,107.5c22.8,21.2,48.9,39.1,78.2,52.1c21.2,11.4,45.6,24.4,73.3,37.5
				c14.7,6.5,27.7,13,42.4,21.2l47.3,22.8c-19.6-26.1-45.6-47.2-75-61.9c-16.3-8.1-34.2-17.9-55.4-27.7l32.6,13
				c-16.3-16.3-34.2-29.3-53.8-40.7c-24.4-13-52.2-27.7-84.8-42.3c-32.6-14.7-68.5-30.9-105.9-45.6c-37.5-14.7-79.9-29.3-122.2-44
				l-35.9-14.7c-26.1-14.7-50.5-27.7-75-40.7c-29.3-14.7-58.7-29.3-89.6-40.7c-39.1-16.3-81.5-26.1-123.9-30.9l-4.9-1.6l-47.3-16.3
				c-17.9-3.3-37.5-6.5-53.8-11.4l-21.2,14.7c-37.5-11.4-70.1-22.8-107.6-32.6c-19.6-11.4-39.1-19.5-60.3-26.1
				c14.7,3.3,31,6.5,45.6,9.8c34.2,6.5,73.3,14.7,114.1,19.5l-81.5-34.2l-40.7-16.3c-14.7-4.9-27.7-9.8-42.4-14.7
				c3.3-6.5,4.9-13,8.1-19.5c0-1.6,1.6-3.3,1.6-3.3c-26.1-8.1-52.2-16.3-78.2-24.4l-65.2-14.7c-21.2-4.9-42.4-9.8-65.2-14.7
				c-61.9-9.8-40.7,13-86.4,14.7c-24.4-8.1-47.3-19.5-70.1-32.6c-13-6.5-27.7-13-42.4-16.3c-21.2-4.9-44-8.1-65.2-9.8
				c-50.5-4.9-105.9-11.4-161.4-16.3l-150-13c0,1.6-1.6,4.9-1.6,4.9c-19.6,1.6-39.1,3.3-57,4.9l-57,8.1l-114.1-3.3l-57-1.6
				c-19.6,0-39.1,0-57,1.6c-39.1,0-76.6,1.6-112.5,1.6h-21.2c0,0,0-1.6,1.6-1.6c-29.3-9.8-60.3-14.7-92.9-13
				c-31,1.6-61.9,6.5-91.3,16.3l-83.1,4.9c-27.7,1.6-53.8,4.9-83.1,8.1L4105,114c-42.4,4.9-83.1,9.8-123.9,16.3
				c-24.4-4.9-24.4-11.4-50.5-13L3792,136.8l-35.9,6.5c-11.4,1.6-22.8,4.9-34.2,6.5l-66.8,14.7c-73.3,16.3-158.1,32.6-156.5,17.9
				c-34.2,9.8-73.3,17.9-120.6,30.9c-24.4,6.5-50.5,13-81.5,22.8c-31,9.8-61.9,22.8-97.8,37.5l-70.1,32.6
				c-22.8,11.4-47.3,21.2-70.1,32.6c-21.2,6.5-101.1,17.9-161.4,70c4.9,1.6,11.4,3.3,16.3,4.9c-141.8,58.6-278.7,123.8-414,197.1
				c-42.4,13-66.8,9.8-122.2,47.2c-32.6,26.1-89.6,58.6-107.6,87.9l-104.3,57l-99.4,60.3l-73.3,47.2c-24.4,16.3-47.3,34.2-71.7,50.5
				l-70.1,52.1c-22.8,17.9-47.3,34.2-70.1,53.7l-127.1,97.7c-16.3,16.3-31,30.9-45.6,47.2l-47.3,52.1c-27.7,27.7-57,53.7-86.4,81.4
				l-84.8,87.9c-21.2,21.2-48.9,44-70.1,68.4c-19.6,21.2-39.1,44-53.8,68.4c-39.1,40.7-78.2,78.2-110.8,115.6
				c29.3-50.5-21.2-16.3,4.9-70c-27.7,19.5-70.1,81.4-102.7,120.5c-19.6,35.8-37.5,66.8-53.8,104.2l-13,17.9
				c0-24.4-31,8.1-50.5,27.7c-16.3,22.8-32.6,45.6-50.5,73.3c-22.8,37.5-42.4,74.9-60.3,114c-34.2,44-53.8,63.5-71.7,84.7
				c-32.6,60.3-96.2,146.6-101.1,192.2l-71.7,148.2l-22.8,40.7c-8.1,13-14.7,27.7-21.2,42.3l-40.7,83.1
				c-16.3,24.4-31,50.5-42.4,78.2c-13,32.6-26.1,66.8-37.5,96.1l-14.7,70c-4.9,22.8-9.8,45.6-13,70l-58.7,172.6
				c-9.8,27.7-16.3,55.4-24.4,83.1l-22.8,83.1l-1.6,8.1c-17.9,8.1-22.8-16.3-52.2,13l-45.6,197.1c-3.3,11.4-4.9,22.8-8.1,32.6
				l-6.5,30.9l-9.8,55.4c-6.5,35.8-14.7,68.4-26.1,105.9l-3.3,29.3l-3.3,30.9l-3.3,61.9c-9.8,50.5-22.8,102.6-31,146.6
				c-6.5,32.6-9.8,65.1-9.8,99.3c-11.4,57-14.7,117.3-11.4,175.9c1.6,27.7,1.6,57,1.6,94.5c0,17.9,0,39.1,0,61.9l-1.6,35.8
				c0,8.1,0,16.3,0,24.4c-1.6,17.9-1.6,37.5-1.6,57c0,55.4,1.6,112.4,3.3,171c1.6,58.6,8.1,117.3,11.4,174.3
				c11.4,40.7,21.2,74.9,35.9,115.6l16.3,161.2c1.6,26.1,6.5,53.7,11.4,79.8l13,79.8c-6.5,4.9-9.8,24.4-8.1,48.9
				c1.6,29.3,4.9,58.6,14.7,86.3c16.3,24.4,31,91.2,47.3,162.9c16.3,71.7,45.6,143.3,78.2,182.4c6.5,21.2,13,48.9,22.8,76.5
				l34.2,101c17.9,42.3-13-78.2,3.3-34.2c16.3,32.6,34.2,79.8,52.2,118.9c17.9,39.1,37.5,71.7,48.9,74.9
				c-3.3-30.9-11.4-61.9-26.1-91.2c-14.7-34.2-37.5-84.7-73.3-177.5c3.3-34.2-14.7-107.5-37.5-187.3l-17.9-61.9
				c-4.9-21.2-9.8-40.7-14.7-61.9c-8.1-35.8-14.7-73.3-17.9-109.1c-17.9-48.9-34.2-104.2-50.5-159.6
				c-11.4-71.7-19.6-110.8-24.4-154.7c-14.7-66.8-29.3-128.7-42.4-190.6c16.3,24.4,13-99.3,26.1-102.6l-8.1-109.1
				c-1.6-32.6-1.6-66.8-3.3-99.4c9.8,1.6,19.6,1.6,29.3,0c9.8,8.1,14.7,11.4,24.4-89.6c9.8-26.1,19.6-57,29.3-83.1
				c8.1,0,14.7,0,22.8,1.6c-9.8,17.9-13,78.2-11.4,146.6c0,35.8,3.3,71.7,6.5,105.9c3.3,27.7,8.1,57,16.3,83.1c4.9,0,9.8,0,14.7,1.6
				c19.6,17.9,37.5,37.5,53.8,58.6l17.9,76.5l22.8,79.8l16.3,127c4.9,0,9.8,0,24.4,0c9.8,48.9,16.3,97.7,24.4,140.1
				c3.3,21.2,8.1,40.7,13,60.3c4.9,17.9,11.4,34.2,17.9,50.5c13,57,24.4,114,39.1,171l48.9,172.6c1.6,8.1,4.9,17.9,6.5,26.1
				l8.1,26.1l16.3,50.5l32.6,102.6c4.9,17.9,11.4,34.2,17.9,50.5l19.6,50.5l35.9,101c21.2,58.6,45.6,115.6,70.1,174.3
				c11.4,29.3,24.4,57,37.5,86.3l39.1,86.3c22.8,50.5,48.9,99.4,73.3,148.2l37.5,73.3c13,24.4,27.7,47.2,40.7,71.7
				c16.3,45.6,37.5,89.6,60.3,131.9c29.3,50.5,63.6,99.3,99.4,145l61.9,44l44,60.3c-42.4-26.1,4.9,39.1,13,60.3
				c9.8,9.8,17.9,21.2,26.1,32.6l27.7,30.9c17.9,19.5,37.5,39.1,55.4,58.6c11.4,29.3,17.9,55.4,27.7,81.4
				c26.1,30.9,53.8,58.6,79.9,87.9l39.1,42.3c13,14.7,26.1,29.3,40.7,44c21.2,24.4,45.6,45.6,73.3,63.5l8.1,9.8l19.6,24.4l22.8,24.4
				l101.1,94.5l26.1,24.4l26.1,22.8l52.2,44c26.1,26.1,50.5,52.1,78.2,76.5l31,27.7c-17.9-4.9-35.9-11.4-57-19.5l-17.9,4.9
				l42.4,34.2c13,11.4,26.1,21.2,39.1,30.9c65.2,47.2,91.3,53.7,114.1,58.6l13,1.6c35.9,27.7,70.1,53.7,105.9,79.8
				c16.3,11.4,31,24.4,47.3,34.2l48.9,32.6l96.2,65.1l22.8,16.3l24.4,14.7l11.4,6.5l31,48.9c63.6,34.2,123.9,65.1,189.1,97.7
				c68.5,32.6,143.4,70,213.5,102.6l48.9,19.5l21.2,9.8c27.7,11.4,53.8,21.2,81.5,32.6l94.5,37.5c-9.8,27.7,120.6,65.1,166.2,70
				c19.6,6.5,40.7,14.7,60.3,21.2l6.5,1.6l6.5,3.3l8.1,1.6l42.4,13l123.9,35.8c40.7,11.4,83.1,19.5,125.5,30.9l61.9,14.7
				c21.2,4.9,42.4,9.8,63.6,13l125.5,27.7c8.1,9.8,19.6,14.7,32.6,17.9c9.8,3.3,19.6,6.5,29.3,8.1c9.8,1.6,22.8,3.3,34.2,4.9
				c26.1,3.3,53.8,6.5,78.2,6.5l-17.9,17.9c-55.4-8.1-110.8-16.3-159.7-24.4l-141.8-32.6l-70.1-16.3l-71.7-19.5
				c-6.5,4.9-13,9.8-19.6,14.7c-29.3-4.9-57-11.4-81.5-16.3l-45.6-19.5c-14.7-6.5-29.3-14.7-44-21.2l-88-44
				c-21.2-1.6-42.4-3.3-63.6-4.9c-17.9-4.9-34.2-8.1-48.9-13l-40.7-11.4c-24.4-6.5-44-11.4-58.7-13c-31-4.9-44-1.6-47.3,11.4
				c-45.6-13-89.6-29.3-135.3-44c-66.8-29.3-140.2-65.1-239.6-107.5c-24.4-21.2-50.5-39.1-78.2-52.1c-21.2-11.4-45.6-24.4-75-37.5
				c-14.7-6.5-27.7-13-42.4-21.2l-47.3-22.8c19.6,26.1,45.6,47.2,75,61.9c16.3,8.1,34.2,17.9,55.4,27.7l-32.6-13
				c16.3,16.3,34.2,29.3,53.8,40.7c22.8,13,52.2,27.7,84.8,42.3c32.6,14.7,68.5,29.3,105.9,45.6s79.9,29.3,122.2,44l35.9,14.7
				c26.1,14.7,50.5,27.7,75,40.7c29.3,14.7,58.7,29.3,89.6,40.7c39.1,16.3,81.5,26.1,123.9,32.6l4.9,1.6l47.3,16.3
				c17.9,3.3,37.5,6.5,53.8,11.4l21.2-14.7c37.5,11.4,70.1,22.8,107.6,32.6c19.6,11.4,39.1,19.5,60.3,26.1
				c-14.7-3.3-31-4.9-45.6-9.8c-34.2-6.5-73.3-14.7-114.1-19.5l83.1,34.2l42.4,16.3c14.7,4.9,27.7,9.8,42.4,14.7
				c-3.3,6.5-4.9,13-8.1,19.5c0,1.6-1.6,3.3-1.6,3.3c26.1,8.1,52.2,16.3,78.2,24.4l65.2,14.7c21.2,4.9,42.4,9.8,65.2,14.7
				c61.9,9.8,40.7-13,86.4-14.7c24.4,8.1,47.3,19.5,70.1,32.6c13,6.5,27.7,13,42.4,16.3c21.2,4.9,44,8.1,65.2,9.8
				c50.5,4.9,105.9,11.4,161.4,16.3l156.5,8.1c0-1.6,1.6-4.9,1.6-4.9c19.6-1.6,39.1-3.3,57-4.9l57-8.1l114.1,3.3l57,1.6
				c19.6,0,39.1,0,57-1.6c39.1,0,76.6-1.6,112.5-1.6h19.6c0,0,0,1.6-1.6,1.6c29.3,9.8,61.9,14.7,92.9,13s61.9-6.5,91.3-16.3
				l83.1-4.9c27.7-1.6,53.8-4.9,83.1-8.1l35.9-11.4c42.4-4.9,83.1-9.8,123.9-16.3c24.4,4.9,24.4,11.4,50.5,13l140.2-24.4l34.2-6.5
				c11.4-1.6,22.8-4.9,34.2-8.1l66.8-14.7c73.3-16.3,158.1-32.6,154.8-17.9c34.2-9.8,73.3-17.9,120.6-30.9
				c24.4-6.5,50.5-13,81.5-22.8c31-9.8,61.9-22.8,97.8-37.5l70.1-32.6c24.4-11.4,47.3-21.2,70.1-32.6c21.2-6.5,101.1-17.9,161.4-70
				c-4.9-1.6-11.4-3.3-16.3-4.9c141.8-58.6,280.3-123.8,414-197.1c42.4-13,66.8-9.8,122.2-47.2c32.6-26.1,89.6-58.6,107.6-87.9
				l105.9-58.6l99.4-60.3l73.3-47.2c24.4-16.3,47.3-34.2,71.7-50.5l70.1-52.1c22.8-17.9,47.3-34.2,70.1-53.7l128.8-97.7
				c16.3-16.3,31-30.9,45.6-47.2l47.3-52.1c27.7-27.7,57-53.7,86.4-81.4l84.8-87.9c22.8-21.2,48.9-44,70.1-68.4
				c19.6-21.2,39.1-44,53.8-68.4c39.1-40.7,78.2-78.2,110.8-115.6c-29.3,50.5,21.2,16.3-4.9,70c27.7-19.5,70.1-81.4,102.7-120.5
				c19.6-35.8,37.5-66.8,55.4-105.9l13-17.9c0,24.4,31-8.1,50.5-27.7c16.3-22.8,32.6-45.6,50.5-73.3c22.8-37.5,42.4-74.9,60.3-114
				c34.2-44,53.8-63.5,71.7-84.7c32.6-60.3,96.2-146.6,101.1-192.2l71.7-148.2l22.8-40.7c8.1-13,13-27.7,21.2-40.7l40.7-83.1
				c16.3-24.4,31-50.5,42.4-78.2c13-32.6,26.1-66.8,37.5-96.1l14.7-70c4.9-22.8,9.8-45.6,13-70l55.4-169.4
				c9.8-27.7,16.3-57,24.4-83.1l22.8-83.1l1.6-8.1c17.9-8.1,22.8,16.3,52.2-13l32.6-192.2c3.3-11.4,4.9-22.8,8.1-32.6l6.5-30.9
				l11.4-55.4c6.5-35.8,14.7-68.4,26.1-105.9l3.3-29.3l3.3-30.9l4.9-60.3c9.8-50.5,21.2-102.6,31-146.6c6.5-32.6,9.8-65.1,9.8-99.3
				C9294.6,5073.4,9299.5,5013.1,9296.2,4954.5z M5055.2,128.7c24.4,0,53.8-1.6,84.8,0c31,1.6,65.2,1.6,105.9,1.6l92.9,14.7
				c31,4.9,60.3,13,91.3,17.9l89.6,19.5l45.6,9.8l45.6,11.4c8.1,9.8,19.6,16.3,32.6,19.5h-1.6c-70.1-13-148.3-22.8-223.3-34.2
				c-47.3-9.8-96.2-14.7-145.1-22.8s-97.8-16.3-145.1-19.5c-58.7-3.3-115.7-8.1-167.9-11.4c-13-1.6-27.7-1.6-40.7-1.6l8.1-4.9
				C4963.9,128.7,5004.7,128.7,5055.2,128.7z M784.9,2226.4l-4.9,6.5l-4.9,4.9c4.9-8.1,9.8-14.7,14.7-22.8
				C788.1,2218.3,786.5,2221.6,784.9,2226.4z M1119,6790l-37.5-42.3c-13-14.7-26.1-29.3-37.5-44l-24.4-45.6l-48.9-94.5l-13-24.4
				l-11.4-24.4l-24.4-50.5l-48.9-102.6c-14.7-34.2-29.3-70-44-105.9c-14.7-35.8-29.3-70-44-105.9l-39.1-105.9
				c-27.7-70-47.3-140.1-68.5-206.8c-6.5-6.5-13-14.7-17.9-22.8c-4.9-13-9.8-27.7-13-42.3l-13-50.5c-8.1-37.5-19.6-83.1-32.6-149.8
				l34.2-3.3c-3.3-40.7-8.1-81.4-13-122.2c-13-40.7-21.2-74.9-35.9-94.5c-4.9-55.4-13-117.3-22.8-182.4
				c-9.8-65.1-14.7-133.6-24.4-198.7c-3.3-16.3-3.3-32.6-4.9-48.9l-4.9-47.2c-3.3-30.9-6.5-61.9-11.4-89.6l-6.5-40.7l-3.3-37.5
				c-1.6-9.8-1.6-17.9-3.3-26.1c3.3,8.1,8.1,14.7,14.7,19.5c0-42.3,0-84.7,1.6-127c1.6-17.9,4.9-35.8,11.4-53.7
				c4.9-11.4,9.8-16.3,13-24.4c8.1-16.3,14.7-39.1,17.9-122.2c-4.9-9.8-8.1-19.5-8.1-30.9c-1.6-17.9-1.6-34.2-1.6-52.1
				c0-35.8,0-70-11.4-71.7c4.9-45.6,9.8-89.6,16.3-130.3l24.4-117.3c13-76.5,32.6-146.6,44-221.5c13-57,22.8-99.3,31-138.4
				c8.1-39.1,13-73.3,26.1-117.3c0-37.5,58.7-145,32.6-131.9c58.7-211.7,141.8-397.4,236.3-586.3c-27.7-9.8-1.6-63.5,39.1-122.2
				c40.7-58.6,86.4-128.7,97.8-174.3c19.6-16.3,37.5-34.2,50.5-57c8.1-11.4,16.3-24.4,24.4-39.1l13-21.2l13-21.2
				c17.9-29.3,35.9-58.6,57-86.3c9.8-14.7,21.2-27.7,31-40.7c9.8-13,21.2-24.4,34.2-34.2c37.5-52.1,76.6-105.9,119-159.6
				c42.4-53.7,86.4-104.2,132-156.4c45.6-52.1,92.9-99.3,140.2-146.6s96.2-89.6,141.8-130.3c27.7-26.1,53.8-50.5,81.5-76.5
				l42.4-37.5c13-13,27.7-24.4,42.4-35.8c29.3-22.8,58.7-45.6,89.6-70l45.6-34.2c14.7-11.4,31-21.2,47.3-32.6
				c63.6-42.3,128.8-87.9,198.8-128.7l105.9-63.5l112.5-61.9c1.6-14.7,55.4-39.1,68.5-58.6l180.9-87.9l187.4-81.4l166.2-63.5
				c29.3-11.4,60.3-19.5,91.3-30.9l94.5-29.3c127.1-37.5,257.5-68.4,370-89.6c19.6-8.1,40.7-14.7,60.3-17.9
				c24.4-6.5,47.3-13,48.9-27.7c35.9,1.6,73.3,0,109.2-3.3c22.8-3.3,44-6.5,66.8-11.4c24.4-4.9,48.9-9.8,73.3-17.9
				c35.9,0,70.1-1.6,104.3-6.5c35.9-3.3,65.2-3.3,61.9,6.5c32.6-3.3,101.1,0,101.1-9.8c22.8-4.9,47.3-8.1,71.7-8.1
				c27.7-1.6,57,1.6,83.1,0c45.6-4.9,84.8-9.8,135.3-14.7c-16.3,11.4,11.4,14.7,42.4,16.3c24.4,3.3,48.9,1.6,73.3-1.6
				c29.3-3.3,58.7-3.3,88-1.6h26.1c8.1,0,17.9,0,26.1,0c16.3,0,32.6-3.3,47.3-8.1l26.1,3.3c31,11.4,65.2,21.2,97.8,26.1
				c24.4,6.5,50.5,4.9,73.3-1.6c27.7,4.9,48.9,13,76.6,17.9c44,4.9,86.4,6.5,130.4,3.3c27.7,3.3,53.8,8.1,76.6,9.8
				c-40.7,8.1,40.7,19.5,27.7,30.9c48.9,4.9,97.8,13,145.1,26.1c52.2,13,109.2,26.1,164.6,45.6l83.1,26.1
				c27.7,8.1,53.8,16.3,79.9,26.1c45.6,16.3,92.9,30.9,141.8,42.3c31,11.4,61.9,24.4,91.3,37.5l89.6,39.1
				c19.6,6.5,39.1,16.3,58.7,26.1c17.9,14.7,39.1,27.7,61.9,34.2l19.6,4.9h1.6c24.4,11.4,48.9,22.8,73.3,32.6
				c16.3,6.5,31,13,45.6,17.9c13,9.8,24.4,21.2,35.9,32.6c16.3,21.2,35.9,40.7,58.7,57c17.9,13,35.9,22.8,55.4,32.6
				c22.8,11.4,50.5,22.8,84.8,39.1c65.2,34.2,127.1,74.9,184.2,122.2c50.5,42.3,96.2,83.1,135.3,120.5c21.2,22.8,42.4,44,66.8,61.9
				c21.2,14.7,39.1,26.1,57,37.5c39.1,21.2,76.6,45.6,110.8,73.3c0,6.5,11.4,19.5,21.2,30.9c9.8,11.4,19.6,24.4,14.7,27.7
				c26.1,22.8,68.5,71.7,71.7,61.9c17.9,11.4,34.2,24.4,48.9,39.1c11.4,13,22.8,26.1,32.6,39.1c19.6,29.3,42.4,57,66.8,81.4
				c17.9,13,31,29.3,39.1,48.9c3.3,9.8-1.6,14.7-8.1,13l105.9,122.2c-11.4,3.3,57,83.1,115.7,158c24.4,47.2,94.5,128.7,81.5,140.1
				c22.8,30.9,40.7,61.9,65.2,99.3l48.9,78.2c19.6,34.2,37.5,68.4,55.4,102.6l27.7,52.1l14.7,26.1l13,26.1
				c35.9,87.9,66.8,148.2,92.9,211.7l42.4,97.7c14.7,35.8,27.7,74.9,42.4,120.5c-8.1,6.5-6.5,21.2-4.9,42.3
				c1.6,9.8,3.3,21.2,6.5,34.2s3.3,26.1,4.9,40.7l-24.4,4.9c3.3,50.5,22.8,104.2,44,159.6s35.9,112.4,45.6,171
				c27.7,60.3,45.6,228,70.1,223.1c8.1-29.3-8.1-84.7-19.6-136.8l-4.9-81.4c-1.6-27.7-6.5-53.7-9.8-81.4c9.8-1.6,19.6-1.6,29.3-3.3
				c9.8,17.9,19.6,30.9,27.7,45.6c16.3,47.2,27.7,91.2,42.4,138.4c4.9,21.2,11.4,47.2,16.3,73.3c3.3,22.8,11.4,45.6,21.2,66.8
				l16.3,92.8c4.9,34.2,6.5,70,11.4,104.2l9.8,104.2c3.3,16.3,3.3,34.2,4.9,52.1l4.9,53.7l9.8,105.9c-8.1,39.1-1.6,112.4,8.1,213.4
				c3.3-68.4,4.9-136.8,6.5-211.7l-6.5-130.3l-3.3-65.1l-6.5-65.1l-8.1-68.4l-1.6-45.6l-1.6-22.8l-1.6-22.8
				c-3.3-30.9-6.5-60.3-11.4-91.2c-4.9-30.9-8.1-61.9-14.7-94.5c-6.5-32.6-14.7-65.1-22.8-97.7l-8.1-81.4
				c-3.3-26.1-8.1-53.7-11.4-79.8c11.4-1.6,19.6-1.6,24.4-3.3l-19.6-83.1l-9.8-40.7l-11.4-40.7c-16.3-53.7-32.6-107.5-48.9-162.9
				c-16.3-44-32.6-84.7-45.6-123.8l-21.2-55.4l-21.2-53.7l-39.1-107.5c-6.5-17.9-14.7-35.8-21.2-53.7l-24.4-53.7
				c-13-24.4-26.1-48.9-37.5-71.7l-8.1-17.9l-9.8-17.9l-17.9-35.8c-11.4-24.4-24.4-47.2-34.2-71.7l-11.4-24.4
				c19.6,14.7,35.9,26.1,53.8,39.1l37.5,42.3c13,14.7,26.1,29.3,37.5,44l24.4,45.6l48.9,94.5l13,24.4l11.4,24.4l24.4,50.5
				l48.9,102.6c14.7,34.2,29.3,70,44,105.9c14.7,35.8,29.3,70,44,105.9l39.1,105.9c27.7,70,47.3,140.1,68.5,206.8
				c6.5,6.5,13,14.7,17.9,22.8c4.9,13,9.8,27.7,13,42.3l13,50.5c8.1,37.5,19.6,83.1,32.6,149.8l-34.2,3.3
				c3.3,40.7,8.2,81.4,13,122.2c13,40.7,21.2,74.9,35.9,94.5c4.9,55.4,13,117.3,22.8,182.4c9.8,65.1,14.7,133.6,24.4,198.7
				c3.3,16.3,3.3,32.6,4.9,48.9l4.9,47.2c3.3,30.9,6.5,61.9,11.4,89.6l6.5,40.7l4.9,39.1c1.6,9.8,1.6,17.9,3.3,26.1
				c-3.3-8.1-8.1-14.7-14.7-19.5c0,42.3,0,84.7-1.6,127c-1.6,17.9-4.9,35.8-11.4,53.7c-4.9,11.4-9.8,16.3-13,24.4
				c-8.1,16.3-14.7,39.1-19.6,122.2c4.9,9.8,6.5,21.2,6.5,30.9c1.6,17.9,1.6,34.2,1.6,52.1c0,35.8,0,70,11.4,71.7
				c-4.9,45.6-9.8,89.6-16.3,130.3l-24.4,117.3c-13,76.5-32.6,146.6-44,221.5c-13,57-22.8,99.3-31,138.4s-13,73.3-26.1,117.3
				c0,37.5-58.7,145-32.6,131.9c-52.2,210.1-135.3,395.8-229.8,584.7c27.7,9.8,1.6,63.5-39.1,122.2
				c-40.7,58.6-86.4,130.3-97.8,174.3c-19.6,16.3-37.5,34.2-50.5,57c-8.1,11.4-16.3,24.4-24.4,39.1l-13,21.2l-13,21.2
				c-17.9,29.3-35.9,58.6-57,86.3c-9.8,14.7-21.2,27.7-31,40.7c-9.8,13-21.2,24.4-34.2,34.2c-37.5,52.1-76.6,105.9-119,159.6
				c-42.4,53.7-86.4,105.9-132,156.4s-92.9,99.4-140.2,146.6c-47.3,47.2-96.2,89.6-141.8,130.3c-27.7,26.1-53.8,50.5-81.5,76.5
				l-42.4,37.5c-14.7,13-27.7,24.4-42.4,35.8c-29.3,22.8-58.7,45.6-89.6,70l-45.6,34.2c-14.7,11.4-31,21.2-47.3,32.6
				c-63.6,42.3-128.8,87.9-198.8,128.7l-105.9,63.5l-112.5,61.9c-1.6,14.7-55.4,39.1-68.5,58.6l-180.9,87.9l-187.4,81.4l-166.2,63.5
				c-29.3,11.4-60.3,19.5-91.3,30.9l-92.9,30.9c-127.1,37.5-257.5,68.4-370,89.6c-19.6,8.1-40.7,14.7-60.3,17.9
				c-24.4,6.5-47.3,13-48.9,27.7c-35.9-1.6-73.3,0-109.2,3.3c-47.3,6.5-92.9,16.3-138.5,29.3c-35.9,0-70.1,1.6-104.3,6.5
				c-35.9,3.3-65.2,3.3-61.9-6.5c-32.6,3.3-101.1,0-101.1,9.8c-22.8,4.9-47.3,8.1-71.7,8.1c-27.7,1.6-57-1.6-83.1,0
				c-45.6,4.9-84.8,9.8-135.3,14.7c16.3-11.4-11.4-14.7-42.4-16.3c-24.4-3.3-48.9-1.6-73.3,1.6c-29.3,3.3-58.7,3.3-88,1.6h-26.1
				c-8.1,0-17.9,0-26.1,0c-16.3,0-32.6,3.3-47.3,8.1l-26.1-3.3c-31-11.4-65.2-21.2-97.8-26.1c-24.4-6.5-50.5-4.9-75,1.6
				c-27.7-4.9-48.9-13-76.6-17.9c-44-4.9-86.4-6.5-130.4-3.3c-27.7-3.3-53.8-8.1-76.6-11.4c40.7-8.1-40.7-19.5-27.7-30.9
				c-48.9-4.9-97.8-13-145.1-26.1c-52.2-13-109.2-26.1-164.6-45.6l-83.1-26.1c-27.7-8.1-53.8-16.3-79.9-26.1
				c-45.6-16.3-92.9-30.9-141.8-42.3c-31-11.4-61.9-24.4-91.3-37.5l-91.3-39.1c-19.6-6.5-39.1-16.3-58.7-26.1
				c-17.9-14.7-39.1-27.7-61.9-34.2l-19.6-4.9h-1.6c-24.4-11.4-48.9-22.8-73.3-32.6c-16.3-6.5-31-13-45.6-17.9
				c-13-9.8-24.4-22.8-34.2-34.2c-16.3-21.2-35.9-40.7-58.7-57c-17.9-13-35.9-22.8-55.4-32.6c-22.8-11.4-50.5-22.8-84.8-39.1
				c-65.2-34.2-127.1-74.9-184.2-122.2c-50.5-42.3-96.2-81.4-135.3-120.5c-21.2-22.8-42.4-44-66.8-61.9
				c-21.2-14.7-39.1-26.1-57-37.5c-39.1-21.2-76.6-45.6-110.8-73.3c0-6.5-11.4-19.5-21.2-30.9c-9.8-11.4-19.6-24.4-14.7-27.7
				c-26.1-22.8-68.5-71.7-71.7-61.9c-17.9-11.4-34.2-24.4-48.9-39.1c-11.4-13-22.8-26.1-32.6-40.7c-19.6-29.3-42.4-57-66.8-81.4
				c-17.9-13-31-29.3-39.1-48.9c-3.3-9.8,1.6-14.7,8.1-13l-104.3-122.2c11.4-3.3-57-83.1-115.7-158
				c-26.1-47.2-94.5-128.7-81.5-140.1c-22.8-30.9-40.7-61.9-65.2-99.4l-48.9-78.2c-19.6-34.2-37.5-68.4-55.4-102.6l-29.3-48.9
				l-14.7-26.1l-13-27.7c-35.9-87.9-66.8-148.2-92.9-211.7l-42.4-97.7c-14.7-35.8-27.7-74.9-42.4-120.5c8.1-6.5,6.5-21.2,4.9-40.7
				c-1.6-9.8-3.3-21.2-4.9-34.2s-3.3-26.1-4.9-40.7l24.4-4.9c-3.3-50.5-22.8-104.2-44-159.6s-35.9-112.4-45.6-171
				c-27.7-60.3-45.6-228-70.1-223.1c-8.1,29.3,8.1,84.7,19.6,136.8l4.9,81.4c1.6,27.7,6.5,53.7,9.8,81.4c-9.8,1.6-19.6,1.6-29.3,3.3
				c-9.8-17.9-19.6-30.9-27.7-45.6c-16.3-47.2-27.7-91.2-42.4-138.4c-4.9-21.2-11.4-47.2-16.3-73.3c-3.3-22.8-11.4-45.6-21.2-66.8
				l-16.3-92.8c-4.9-34.2-6.5-70-11.4-104.2l-9.8-104.2c-3.3-16.3-3.3-34.2-4.9-52.1l-4.9-53.7l-9.8-105.9
				c8.1-39.1,1.6-112.4-8.1-213.4c-3.3,68.4-4.9,136.8-6.5,211.7l6.5,130.3l3.3,65.1l6.5,65.1l8.1,68.4l1.6,45.6l1.6,22.8l1.6,22.8
				c3.3,30.9,6.5,60.3,11.4,91.2c4.9,30.9,8.1,61.9,14.7,94.5c6.5,32.6,14.7,65.1,22.8,97.7l8.1,81.4c3.3,26.1,8.1,53.7,11.4,79.8
				c-11.4,1.6-19.6,1.6-24.4,3.3l19.6,83.1l9.8,40.7l11.4,40.7c16.3,53.7,32.6,107.5,48.9,162.9c16.3,44,32.6,84.7,45.6,123.8
				l19.6,57l21.2,53.7l39.1,107.5c6.5,17.9,13,35.8,21.2,53.7l24.4,53.7c13,24.4,26.1,48.9,37.5,71.7l8.1,17.9l9.8,17.9l17.9,34.2
				c11.4,24.4,24.4,47.2,35.9,71.7l11.4,24.4C1153.2,6814.4,1136.9,6801.4,1119,6790L1119,6790z M4313.6,9128.8
				c-24.4,0-53.8,1.6-84.8,0c-31-1.6-66.8-1.6-105.9-1.6l-92.9-14.7c-31-4.9-60.3-13-91.3-17.9l-91.3-19.5l-45.6-9.8l-45.6-13
				c-8.1-9.8-19.6-16.3-31-19.5h1.6c70.1,13,148.3,21.2,223.3,34.2c47.3,9.8,96.2,16.3,145.1,22.8c48.9,6.5,97.8,16.3,145.1,19.5
				c58.7,3.3,115.7,8.1,167.9,11.4c13,1.6,27.7,1.6,40.7,1.6l-8.1,4.9C4404.9,9130.4,4365.8,9128.8,4313.6,9128.8L4313.6,9128.8z
				 M8583.9,7032.7l4.9-6.5l4.9-4.9c-4.9,8.1-9.8,14.7-14.7,22.8C8580.7,7039.2,8582.3,7035.9,8583.9,7032.7L8583.9,7032.7z"/>
			<path class="st0" d="M7597.8,1268.8c44,37.5,83.1,70,125.5,107.5c11.4,11.4,21.2,22.8,29.3,35.8c0,16.3,21.2,42.3,55.4,71.7
				c34.2,29.3,78.2,65.1,122.2,102.6c81.5,86.3,109.2,105.9,133.7,96.1l-107.6-120.5c-16.3-21.2-32.6-40.7-48.9-60.3l-50.5-58.6
				l53.8,57c17.9,19.5,34.2,39.1,52.2,58.6l104.3,122.2c45.6,52.1,78.2,68.4,86.4,58.6c-22.8-30.9-45.6-61.9-70.1-92.8l-75-89.6
				c-16.3-39.1,14.7-19.5,19.6-24.4l-53.8-58.6c-17.9-19.5-37.5-37.5-57-57c-39.1-37.5-78.2-78.2-120.6-117.3l-130.4-117.3
				c-21.2-19.5-45.6-39.1-68.5-57l-70.1-57c-17.9-14.7-35.9-29.3-55.4-42.3l-65.2-42.3c-31-1.6-58.7,1.6-89.6,1.6l22.8,16.3
				L7280,1018C7390.8,1097.8,7495.2,1180.8,7597.8,1268.8z M7777.1,1345.3c29.3,32.6,58.7,63.5,88,96.1
				c-17.9-19.5-37.5-39.1-57-60.3l-29.3-30.9c-9.8-9.8-21.2-19.5-31-29.3s-24.4-22.8-37.5-32.6
				C7734.8,1303,7757.6,1322.5,7777.1,1345.3L7777.1,1345.3z"/>
			<path class="st0" d="M7030.6,812.8c29.3,16.3,57,37.5,92.9,58.6c42.4,24.4,86.4,47.2,130.4,68.4c-24.4-29.3-53.8-53.7-86.4-73.3
				c-22.8-14.7-48.9-30.9-78.2-48.9s-66.8-35.8-107.6-55.4C6972,763.9,7016,794.8,7030.6,812.8z"/>
		</g>
	</g>
</g>
</svg>
